<svg width="744" height="597" viewBox="0 0 744 597" fill="none" xmlns="http://www.w3.org/2000/svg">
<path d="M603.172 39.927L624.824 18.2607C628.466 14.6168 634.373 14.6156 638.017 18.258L638.019 18.2607L695.663 75.9337C699.16 79.4324 701.125 84.177 701.125 89.124V471.114" stroke="#C5CFD6" stroke-width="8"/>
<path d="M669.64 470.448H731.444C733.1 470.448 734.443 471.79 734.443 473.446V474.612C734.443 476.268 733.1 477.611 731.444 477.611H669.64C667.984 477.611 666.642 476.268 666.642 474.612V473.446C666.642 471.79 667.984 470.448 669.64 470.448Z" fill="#AFB9C5" stroke="#C5CFD6"/>
<path d="M615.841 27.5686C630.674 42.4014 630.674 66.4501 615.841 81.2829L593.106 104.017L539.392 50.3029L562.127 27.5686C576.959 12.7358 601.008 12.7358 615.841 27.5686Z" fill="#C5CFD6" stroke="#C5CFD6"/>
<path d="M593.674 103.744C593.434 103.984 593.037 104.137 592.404 104.125C591.77 104.113 590.957 103.934 589.974 103.576C588.011 102.86 585.48 101.471 582.546 99.5026C576.686 95.5713 569.309 89.3915 561.811 81.8932C554.312 74.3949 548.132 67.0174 544.201 61.1575C542.233 58.2241 540.844 55.6928 540.128 53.7297C539.77 52.7468 539.591 51.934 539.579 51.2998C539.567 50.6663 539.72 50.2693 539.96 50.0299C540.199 49.7905 540.596 49.6369 541.229 49.649C541.864 49.6611 542.676 49.8399 543.659 50.1983C545.622 50.9139 548.154 52.3036 551.087 54.2716C556.947 58.2029 564.325 64.3827 571.823 71.881C579.321 79.3792 585.501 86.7568 589.432 92.6166C591.4 95.5501 592.79 98.0814 593.506 100.044C593.864 101.027 594.043 101.84 594.055 102.474C594.067 103.108 593.913 103.505 593.674 103.744Z" fill="#FFFAFE" stroke="#C5CFD6"/>
<path d="M625 292H620V452H625V292Z" fill="#C5CFD6"/>
<path fill-rule="evenodd" clip-rule="evenodd" d="M651.571 174.327C656.944 168.02 660.581 160.29 659.973 151.629C658.222 126.673 623.484 132.163 616.726 144.759C609.969 157.354 610.772 189.303 619.505 191.554C622.988 192.452 630.407 190.253 637.959 185.701L633.219 219.234H661.206L651.571 174.327Z" fill="#B28B67"/>
<path fill-rule="evenodd" clip-rule="evenodd" d="M672.175 143.322C673.079 142.426 673.572 141.147 673.998 139.933C674.441 138.672 674.872 137.398 675.166 136.085C675.753 133.462 675.759 130.446 673.888 128.409C672.387 126.776 670.136 126.044 668.058 125.884C666.673 125.778 665.251 125.972 663.924 126.408C662.607 126.841 661.472 127.704 660.196 128.239C660.147 125.413 659.663 122.455 658.229 120.042C656.849 117.72 654.649 116.417 652.144 116.072C649.572 115.718 647.033 116.32 644.731 117.565C644.154 117.877 643.583 118.203 643.037 118.573C642.579 118.883 642.104 119.255 641.567 119.381C640.968 119.522 640.672 119.176 640.283 118.739C639.827 118.228 639.313 117.777 638.769 117.377C636.365 115.61 633.21 114.883 630.425 115.942C629.142 116.43 627.894 117.259 627.023 118.401C626.247 119.419 625.693 121.034 624.622 121.744C624.168 122.045 623.847 121.646 623.433 121.351C622.811 120.908 622.218 120.419 621.589 119.988C620.705 119.383 619.748 118.93 618.724 118.693C617.224 118.346 615.151 118.427 614.722 120.392C614.561 121.13 614.684 121.919 614.736 122.663C614.808 123.684 614.882 124.704 614.971 125.724C615.038 126.498 615.123 127.245 615.269 128.006C615.347 128.411 615.591 129.166 615.417 129.572C615.2 130.079 614.198 129.791 613.77 129.808C612.924 129.843 612.075 129.992 611.293 130.353C610.687 130.633 610.05 131.045 609.794 131.74C609.637 132.166 609.678 132.604 609.753 133.043C609.842 133.57 609.74 133.85 609.673 134.381C608.537 133.822 604.602 132.579 604.106 134.615C603.942 135.293 604.317 136.058 604.603 136.63C605.106 137.632 605.765 138.549 606.438 139.423C607.843 141.246 609.52 142.818 611.324 144.163C609.21 145.103 608.658 147.875 610.488 149.526C611.296 150.255 612.383 150.418 613.402 150.371C613.775 150.354 614.313 150.21 614.607 150.275C614.765 150.31 614.934 150.444 615.153 150.459C616.591 150.558 618.215 150.211 619.621 149.892C622.127 149.323 624.499 148.136 626.437 146.328C626.934 145.864 627.344 145.597 628.013 145.604C628.599 145.61 629.174 145.771 629.76 145.785C631.309 145.825 632.706 145.068 634.145 144.563C634.233 146.507 634.787 148.648 635.582 150.396C636.23 151.822 637.584 152.03 638.915 152.155C643.169 152.555 647.439 152.108 651.699 152.114C647.575 153.046 643.314 153.431 639.227 154.527C637.379 155.023 638.79 156.268 639.58 157.131C640.881 158.553 641.848 160.314 642.519 162.169C644.536 159.54 648.102 157.807 651.261 158.615C654.751 159.507 657.209 164.228 654.977 167.621C653.681 169.591 651.341 170.352 649.394 171.198C650.913 172.777 651.28 175.11 652.194 177.074C652.645 178.043 653.278 179.139 654.287 179.476C654.66 179.601 655.097 179.612 655.392 179.916C655.756 180.293 655.843 180.714 656.309 181.037C658.167 182.329 661.069 182.229 662.715 180.544C664.205 179.019 663.817 176.607 662.573 175.061C664.553 174.236 668.16 173.175 667.373 170.09C671.663 169.805 682.08 162.848 676.322 157.763C679.482 155.978 682.385 151.613 680.355 147.766C678.792 144.803 675.157 143.479 672.175 143.322Z" fill="#191847"/>
<path fill-rule="evenodd" clip-rule="evenodd" d="M711.788 364.998H621.701L609.897 509.596H744L711.788 364.998Z" fill="#C5CFD6"/>
<path fill-rule="evenodd" clip-rule="evenodd" d="M711.788 364.998H684.081L667.498 509.596H744L711.788 364.998Z" fill="black" fill-opacity="0.1"/>
<path fill-rule="evenodd" clip-rule="evenodd" d="M518.994 340.225C509.389 334.457 493.274 341.868 493.285 350.116C493.318 374.797 515.842 491.114 517.018 498.467C518.194 505.82 530.791 507.762 531.525 498.491C532.692 483.739 534.861 432.671 532.691 409.033C531.795 399.276 530.831 389.984 529.881 381.694C541.7 403.037 559.978 433.596 584.716 473.369L598.146 467.233C587.6 432.488 578.953 407.958 572.204 393.645C560.648 369.137 549.812 348.149 545.252 340.757C538.078 329.128 525.592 333.185 518.994 340.225Z" fill="#B28B67"/>
<path fill-rule="evenodd" clip-rule="evenodd" d="M597.186 447.938L551.092 338.745C540.05 320.983 509.09 342.36 512.856 352.662C521.405 376.052 564.885 451.773 567.432 458.742L597.186 447.938Z" fill="#1F28CF"/>
<path fill-rule="evenodd" clip-rule="evenodd" d="M599.746 460.348C602.617 462.711 604.485 464.642 605.35 466.139C606.401 467.96 607.632 470.793 609.042 474.637C606.93 475.857 587.943 486.819 552.083 507.522C547.778 503.484 547.107 500.349 550.071 498.117C553.034 495.886 555.48 494.004 557.408 492.472L577.068 465.385C577.446 464.863 578.176 464.748 578.697 465.126C578.706 465.132 578.714 465.139 578.723 465.146L582.808 468.291C586.556 467.964 589.352 467.268 591.198 466.202C592.698 465.336 594.419 463.535 596.362 460.798C597.108 459.748 598.564 459.501 599.614 460.246C599.659 460.279 599.703 460.312 599.746 460.348Z" fill="white"/>
<path fill-rule="evenodd" clip-rule="evenodd" d="M534.475 492.573C535.779 496.055 536.431 498.661 536.431 500.39C536.431 502.493 536.081 505.561 535.38 509.596C532.941 509.596 511.017 509.596 469.61 509.596C467.9 503.945 468.887 500.895 472.569 500.444C476.252 499.994 479.311 499.587 481.747 499.224L512.316 485.596C512.904 485.334 513.594 485.598 513.856 486.186C513.861 486.196 513.865 486.206 513.869 486.216L515.834 490.983C519.243 492.574 522.013 493.369 524.144 493.369C525.876 493.369 528.267 492.67 531.319 491.271C532.489 490.734 533.874 491.248 534.411 492.419C534.434 492.469 534.455 492.521 534.475 492.573Z" fill="white"/>
<path fill-rule="evenodd" clip-rule="evenodd" d="M490.055 358.506C490.055 389.486 504.767 461.75 504.777 468.572L536.431 468.596C531.798 404.116 530.155 371.528 531.503 370.833C533.524 369.791 614.356 378.904 638.599 378.904C673.557 378.904 688.019 356.859 689.192 316.021H619.941C605.841 317.53 532.293 332.364 504.979 337.464C493.285 339.647 490.055 349.972 490.055 358.506Z" fill="#2B44FF"/>
<path fill-rule="evenodd" clip-rule="evenodd" d="M609.153 243.372L568.678 221.204C561.947 213.211 555.315 207.004 548.782 202.581C546.786 201.748 543.295 201.244 546.56 207.038C549.824 212.832 552.998 219.074 551.335 220.859C549.671 222.644 545.524 220.15 543.54 223.116C542.217 225.093 549.302 228.217 564.796 232.487L594.206 259.415L609.153 243.372ZM545.761 262.076L527.982 252.309C525.487 242.817 522.505 238.041 519.036 237.981C516.37 236.741 521.012 248.736 515.959 247.696C510.907 246.656 498.575 237.484 496.45 239.346C493.307 242.101 496.11 250.561 499.412 254.769C505.585 262.634 510.695 265.323 523.327 268.845C529.931 270.687 537.072 274.378 544.748 279.918L545.761 262.076Z" fill="#997659"/>
<path fill-rule="evenodd" clip-rule="evenodd" d="M628.865 238.434C614.688 238.284 595.782 235.29 575.61 222.486L567.688 240.152C581.603 253.961 601.167 265.306 618.274 264.826C631.755 264.447 638.645 248.141 628.865 238.434Z" fill="#2026A2"/>
<path fill-rule="evenodd" clip-rule="evenodd" d="M609.775 266.766C594.724 270.519 569.485 266.093 534.058 253.486C525.27 271.666 521.208 284.627 521.871 292.369C552.263 308.244 578.311 315.322 599.771 315.79C599.089 328.523 600.639 340.64 605.846 351.711C616.55 374.472 679.228 353.393 700.302 357.542C713.5 314.682 687.982 297.263 687.962 269.839C687.939 239.806 663.824 193.579 660.276 193.579H627.921C626.135 216.515 617.15 241.793 609.775 266.766Z" fill="#1F28CF"/>
<path fill-rule="evenodd" clip-rule="evenodd" d="M298.767 316H539L492.279 348.012L233 353L298.767 316Z" fill="#C5CFD6"/>
<path fill-rule="evenodd" clip-rule="evenodd" d="M298.767 316H539L347.437 331.012L233 353L298.767 316Z" fill="black" fill-opacity="0.1"/>
<path fill-rule="evenodd" clip-rule="evenodd" d="M101.816 183.453C96.6754 177.528 93.196 170.266 93.7774 162.129C95.4526 138.685 128.688 143.842 135.153 155.675C141.618 167.508 140.85 197.523 132.494 199.638C129.162 200.481 122.064 198.415 114.839 194.139L119.374 225.642H92.5984L101.816 183.453Z" fill="#915B3C"/>
<path fill-rule="evenodd" clip-rule="evenodd" d="M99.759 188.731C96.3984 174.05 86.8246 164.042 88.2868 157.48C89.2615 153.106 91.8596 150.385 96.0809 149.319C98.2641 140.646 105.305 136.957 117.205 138.252C135.054 140.195 145.948 147.474 141.244 163.49C136.919 163.49 131.698 161.955 124.479 164.586C122.188 165.421 120.55 168.01 119.564 172.353H116.301C113.135 167.199 110.013 165.305 106.936 166.671C103.858 168.037 103.158 171.356 104.837 176.627L103.23 188.731H99.759Z" fill="#191847"/>
<path fill-rule="evenodd" clip-rule="evenodd" d="M17.8503 362.582H146.15C156.008 362.582 164 370.43 164 380.11V480.899C164 490.579 156.008 498.427 146.15 498.427H17.8503C7.99187 498.427 0 490.579 0 480.899V380.11C0 370.43 7.99187 362.582 17.8503 362.582ZM35.7007 393.257C33.2361 393.257 31.2381 395.219 31.2381 397.639V463.37C31.2381 465.79 33.2361 467.752 35.7007 467.752H128.299C130.764 467.752 132.762 465.79 132.762 463.37V397.639C132.762 395.219 130.764 393.257 128.299 393.257H35.7007Z" fill="#C5CFD6"/>
<path fill-rule="evenodd" clip-rule="evenodd" d="M274.626 492.949C252.63 466.574 237.747 447.02 229.977 434.288C216.673 412.488 205.784 393.09 202.348 385.68C194.154 368.011 221.212 359.737 227.336 367.978C236.605 380.453 256.4 419.706 286.721 485.738L274.626 492.949Z" fill="#B28B67"/>
<path fill-rule="evenodd" clip-rule="evenodd" d="M229.553 485.281L188.617 384.095C179.862 365.649 222.143 353.524 228.577 362.109C243.186 381.597 277.906 458.478 282.259 464.284L229.553 485.281Z" fill="#2F3676"/>
<path fill-rule="evenodd" clip-rule="evenodd" d="M120.526 464.988C128.5 453.566 157.505 415.139 173.303 399.239C177.843 394.67 182.272 390.285 186.462 386.199C198.915 374.052 223.713 394.468 211.283 405.532C180.328 433.084 135.161 470.28 131.388 473.596C126.099 478.244 115.515 472.167 120.526 464.988Z" fill="#915B3C"/>
<path fill-rule="evenodd" clip-rule="evenodd" d="M122.391 459.829C119.645 462.049 117.858 463.863 117.03 465.27C116.025 466.98 114.847 469.642 113.498 473.253C115.519 474.399 133.684 484.697 167.992 504.148C172.111 500.353 172.753 497.408 169.917 495.312C167.082 493.215 164.742 491.448 162.897 490.008L144.088 464.561C143.726 464.071 143.028 463.962 142.53 464.318C142.521 464.324 142.513 464.33 142.504 464.336L138.596 467.291C135.011 466.984 132.335 466.33 130.569 465.329C129.135 464.515 127.488 462.823 125.629 460.252C124.916 459.265 123.523 459.033 122.518 459.734C122.475 459.764 122.432 459.795 122.391 459.829Z" fill="#FFFDFD"/>
<path fill-rule="evenodd" clip-rule="evenodd" d="M265.165 489.007C263.917 492.279 263.292 494.727 263.292 496.352C263.292 498.327 263.628 501.21 264.298 505C266.632 505 287.607 505 327.222 505C328.858 499.692 327.914 496.826 324.391 496.403C320.868 495.979 317.941 495.597 315.611 495.256L286.364 482.453C285.801 482.207 285.142 482.455 284.891 483.007C284.887 483.017 284.882 483.026 284.878 483.036L282.998 487.514C279.737 489.008 277.087 489.755 275.048 489.755C273.391 489.755 271.103 489.098 268.184 487.784C267.064 487.28 265.739 487.763 265.226 488.863C265.204 488.91 265.183 488.959 265.165 489.007Z" fill="#FFFDFD"/>
<path fill-rule="evenodd" clip-rule="evenodd" d="M173.887 389.149C139.863 383.706 117.074 379.984 105.518 377.983C72.581 372.28 62.9762 354.875 68.6551 316.901H129.342C137.372 319.179 170.929 333.263 230.01 359.155C240.64 364.337 238.66 379.615 236.717 384.648C236.638 384.853 218.718 415.006 182.957 475.106L133.313 444.051L173.98 392.808C175.054 390.684 175.023 389.464 173.887 389.149Z" fill="#5C63AB"/>
<path fill-rule="evenodd" clip-rule="evenodd" d="M178.259 302.56L213.846 328.221C223.498 330.779 231.562 333.961 238.038 337.767C239.568 339.136 241.417 341.908 235.072 341.429C228.728 340.949 222.033 340.726 221.158 342.851C220.283 344.975 224.122 347.516 222.352 350.383C221.173 352.295 215.6 347.502 205.633 336.006L170.392 321.656L178.259 302.56ZM41.6223 303.446L64.9364 303.536C50.541 349.168 42.7696 373.381 41.6223 376.173C39.0407 382.455 44.5036 392.023 46.8397 397.165C39.231 400.508 40.0417 388.126 30.4435 392.511C21.6826 396.514 15.0183 403.766 4.89641 397.633C3.65199 396.879 2.2883 394.04 5.58314 391.821C13.7918 386.294 25.621 376.621 27.2193 373.437C29.3988 369.095 34.1998 345.764 41.6223 303.446Z" fill="#915B3C"/>
<path fill-rule="evenodd" clip-rule="evenodd" d="M107.877 207.382L117.524 205.757C153.318 236.12 168.02 294.45 211.894 325.351L201.334 338.204C125.22 328.95 106.355 257.801 107.877 207.382Z" fill="#530378"/>
<path fill-rule="evenodd" clip-rule="evenodd" d="M65.8231 326.43C104.505 326.43 132.958 326.43 151.183 326.43C155.083 326.43 154.348 320.899 153.785 318.108C147.277 285.9 121.875 251.18 121.875 205.332L97.2529 201.54C76.8875 233.703 69.8448 273.302 65.8231 326.43Z" fill="#DDE3E9"/>
<path fill-rule="evenodd" clip-rule="evenodd" d="M66.5091 233.155C62.9331 232.145 60.1013 229.791 58.0136 226.092C49.0143 210.147 52.2644 201.368 61.8818 198.482C71.4992 195.596 80.0759 201.54 95.3989 201.54C96.2324 201.54 96.9957 201.592 97.689 201.694L105.397 202.126C127.512 275.724 133.611 324.827 123.694 349.436H56.5095C52.5289 358.55 48.7198 366.219 45.0821 372.442H26.7755C25.0526 317.739 38.2971 271.31 66.5091 233.155Z" fill="#6B0999"/>
<path fill-rule="evenodd" clip-rule="evenodd" d="M71.1394 311.638C73.2524 328.998 76.6866 341.597 81.4422 349.436H56.5095C61.1528 338.804 66.0294 326.205 71.1394 311.638Z" fill="black" fill-opacity="0.1"/>
<path d="M248.404 352H242.596V538.957H248.404V352Z" fill="#C5CFD6"/>
<path d="M481.404 346H475.596V532.957H481.404V346Z" fill="#C5CFD6"/>
</svg>
