<svg width="16" height="16" viewBox="0 0 16 16" fill="none" xmlns="http://www.w3.org/2000/svg">
<g clip-path="url(#clip0_117_1157)">
<path d="M13.3331 1.33325H6.22201V3.55547H7.11089V2.22214H13.3331C13.5998 2.22214 13.7776 2.39992 13.7776 2.66659V7.55547C13.7776 7.82214 13.5998 7.99992 13.3331 7.99992H7.55534V11.111H5.19978L3.55534 12.3999V11.111H2.22201C1.95534 11.111 1.77756 10.9333 1.77756 10.6666V5.7777C1.77756 5.51103 1.95534 5.33325 2.22201 5.33325H7.99978V4.44436H2.22201C1.46645 4.44436 0.888672 5.02214 0.888672 5.7777V10.6666C0.888672 11.4221 1.46645 11.9999 2.22201 11.9999H2.66645V14.2666L5.46645 11.9999H8.44423V8.88881H13.3331C14.0887 8.88881 14.6664 8.31103 14.6664 7.55547V2.66659C14.6664 1.91103 14.0887 1.33325 13.3331 1.33325Z" fill="#464545"/>
<path d="M2.75537 10.1777H3.82204L4.0887 9.46661H5.46648L5.73315 10.1777H6.79982L5.2887 6.22217H4.22204L2.75537 10.1777ZM4.75537 7.33328L5.19982 8.71106H4.31093L4.75537 7.33328Z" fill="#464545"/>
<path d="M8.88867 7.55564C9.37756 7.55564 10.0442 7.4223 10.6664 7.11119C11.2887 7.4223 11.9998 7.55564 12.4442 7.55564V6.66675C12.4442 6.66675 11.9998 6.66675 11.5109 6.48897C12.0442 5.95564 12.4442 5.15564 12.4442 4.00008V3.55564H11.1109V2.66675H10.222V3.55564H8.88867V4.44453H11.5109C11.422 5.24453 11.0664 5.73341 10.6664 6.04453C10.3998 5.8223 10.1331 5.51119 9.95534 5.11119H9.022C9.19978 5.68897 9.46645 6.13341 9.82201 6.48897C9.37756 6.66675 8.97756 6.66675 8.88867 6.66675V7.55564Z" fill="#464545"/>
</g>
<defs>
<clipPath id="clip0_117_1157">
<rect width="16" height="16" fill="white"/>
</clipPath>
</defs>
</svg>
