<svg width="16" height="16" viewBox="0 0 16 16" fill="none" xmlns="http://www.w3.org/2000/svg">
<path d="M8.00016 14.6666C7.08905 14.6666 6.22794 14.4915 5.41683 14.1413C4.60572 13.791 3.8975 13.3133 3.29216 12.7079C2.68683 12.1026 2.20905 11.3944 1.85883 10.5833C1.50861 9.77214 1.3335 8.91103 1.3335 7.99992C1.3335 7.0777 1.50861 6.21392 1.85883 5.40859C2.20905 4.60325 2.68683 3.8977 3.29216 3.29192C3.8975 2.68614 4.60572 2.20836 5.41683 1.85859C6.22794 1.50881 7.08905 1.3337 8.00016 1.33325C8.92239 1.33325 9.78638 1.50836 10.5922 1.85859C11.3979 2.20881 12.1033 2.68659 12.7082 3.29192C13.3131 3.89725 13.7908 4.60281 14.1415 5.40859C14.4922 6.21436 14.6673 7.07814 14.6668 7.99992C14.6668 8.91103 14.4917 9.77214 14.1415 10.5833C13.7913 11.3944 13.3135 12.1028 12.7082 12.7086C12.1028 13.3144 11.3973 13.7921 10.5915 14.1419C9.78572 14.4917 8.92194 14.6666 8.00016 14.6666ZM8.00016 13.2999C8.28905 12.8999 8.53905 12.4833 8.75016 12.0499C8.96127 11.6166 9.1335 11.1555 9.26683 10.6666H6.7335C6.86683 11.1555 7.03905 11.6166 7.25016 12.0499C7.46127 12.4833 7.71127 12.8999 8.00016 13.2999ZM6.26683 13.0333C6.06683 12.6666 5.89194 12.2859 5.74216 11.8913C5.59238 11.4966 5.46727 11.0884 5.36683 10.6666H3.40016C3.72238 11.2221 4.12527 11.7055 4.60883 12.1166C5.09239 12.5277 5.64505 12.8333 6.26683 13.0333ZM9.7335 13.0333C10.3557 12.8333 10.9086 12.5277 11.3922 12.1166C11.8757 11.7055 12.2784 11.2221 12.6002 10.6666H10.6335C10.5335 11.0888 10.4086 11.4973 10.2588 11.8919C10.1091 12.2866 9.93394 12.667 9.7335 13.0333ZM2.8335 9.33325H5.10016C5.06683 9.11103 5.04194 8.8917 5.0255 8.67525C5.00905 8.45881 5.00061 8.2337 5.00016 7.99992C4.99972 7.76614 5.00816 7.54125 5.0255 7.32525C5.04283 7.10925 5.06772 6.8897 5.10016 6.66658H2.8335C2.77794 6.88881 2.73639 7.10836 2.70883 7.32525C2.68127 7.54214 2.66727 7.76703 2.66683 7.99992C2.66639 8.23281 2.68039 8.45792 2.70883 8.67525C2.73727 8.89258 2.77883 9.11192 2.8335 9.33325ZM6.4335 9.33325H9.56683C9.60016 9.11103 9.62527 8.8917 9.64216 8.67525C9.65905 8.45881 9.66727 8.2337 9.66683 7.99992C9.66639 7.76614 9.65794 7.54125 9.6415 7.32525C9.62505 7.10925 9.60016 6.8897 9.56683 6.66658H6.4335C6.40016 6.88881 6.37527 7.10836 6.35883 7.32525C6.34239 7.54214 6.33394 7.76703 6.3335 7.99992C6.33305 8.23281 6.3415 8.45792 6.35883 8.67525C6.37616 8.89258 6.40105 9.11192 6.4335 9.33325ZM10.9002 9.33325H13.1668C13.2224 9.11103 13.2642 8.8917 13.2922 8.67525C13.3202 8.45881 13.3339 8.2337 13.3335 7.99992C13.3331 7.76614 13.3193 7.54125 13.2922 7.32525C13.2651 7.10925 13.2233 6.8897 13.1668 6.66658H10.9002C10.9335 6.88881 10.9586 7.10836 10.9755 7.32525C10.9924 7.54214 11.0006 7.76703 11.0002 7.99992C10.9997 8.23281 10.9913 8.45792 10.9748 8.67525C10.9584 8.89258 10.9335 9.11192 10.9002 9.33325ZM10.6335 5.33325H12.6002C12.2779 4.7777 11.8753 4.29436 11.3922 3.88325C10.9091 3.47214 10.3562 3.16659 9.7335 2.96659C9.9335 3.33325 10.1086 3.71392 10.2588 4.10859C10.4091 4.50325 10.5339 4.91147 10.6335 5.33325ZM6.7335 5.33325H9.26683C9.1335 4.84436 8.96127 4.38325 8.75016 3.94992C8.53905 3.51659 8.28905 3.09992 8.00016 2.69992C7.71127 3.09992 7.46127 3.51659 7.25016 3.94992C7.03905 4.38325 6.86683 4.84436 6.7335 5.33325ZM3.40016 5.33325H5.36683C5.46683 4.91103 5.59194 4.50259 5.74216 4.10792C5.89239 3.71325 6.06727 3.33281 6.26683 2.96659C5.64461 3.16659 5.09172 3.47214 4.60816 3.88325C4.12461 4.29436 3.72194 4.7777 3.40016 5.33325Z" fill="#464545"/>
</svg>
