<svg width="46" height="43" viewBox="0 0 46 43" fill="none" xmlns="http://www.w3.org/2000/svg">
<path d="M0 5C0 2.23858 2.23858 0 5 0H41C43.7614 0 46 2.23858 46 5V38C46 40.7614 43.7614 43 41 43H5C2.23858 43 0 40.7614 0 38V5Z" fill="black"/>
<path d="M6.66 28V14H12.72C13.9733 14 15.0533 14.2067 15.96 14.62C16.8667 15.02 17.5667 15.6 18.06 16.36C18.5533 17.12 18.8 18.0267 18.8 19.08C18.8 20.12 18.5533 21.02 18.06 21.78C17.5667 22.54 16.8667 23.1267 15.96 23.54C15.0533 23.94 13.9733 24.14 12.72 24.14H8.46L9.9 22.68V28H6.66ZM9.9 23.04L8.46 21.5H12.54C13.54 21.5 14.2867 21.2867 14.78 20.86C15.2733 20.4333 15.52 19.84 15.52 19.08C15.52 18.3067 15.2733 17.7067 14.78 17.28C14.2867 16.8533 13.54 16.64 12.54 16.64H8.46L9.9 15.1V23.04Z" fill="#DDD6F5"/>
<path d="M40.4946 28.0129L40.3804 14.0134L34.3206 14.0628C33.0673 14.0731 31.989 14.2886 31.0857 14.7093C30.1824 15.1167 29.4871 15.7024 29 16.4664C28.5129 17.2304 28.2736 18.139 28.2822 19.1923C28.2907 20.2323 28.5447 21.1302 29.0442 21.8862C29.5438 22.6421 30.2485 23.2231 31.1585 23.629C32.0684 24.0216 33.15 24.2127 34.4033 24.2025L38.6632 24.1677L37.2113 22.7195L37.2547 28.0394L40.4946 28.0129ZM37.2143 23.0795L38.6416 21.5278L34.5618 21.5611C33.5618 21.5693 32.8134 21.3621 32.3166 20.9394C31.8198 20.5168 31.5683 19.9255 31.5621 19.1655C31.5558 18.3922 31.7976 17.7902 32.2874 17.3596C32.7772 16.9289 33.5221 16.7095 34.5221 16.7013L38.602 16.668L37.1495 15.1398L37.2143 23.0795Z" fill="#DDD6F5"/>
<path d="M12 28L21.1414 22H25.8293L35 28H30.0191L22.5185 22.7029H24.3936L16.8637 28H12ZM16.5707 26.7143L17.8306 25.66H28.3783L29.6675 26.7143H16.5707Z" fill="white"/>
</svg>
