<svg width="1077" height="795" viewBox="0 0 1077 795" fill="none" xmlns="http://www.w3.org/2000/svg">
<path d="M1077 698.561H0V699.095H1077V698.561Z" fill="#EBEBEB"/>
<path d="M959.091 722.992H849.452V723.525H959.091V722.992Z" fill="#EBEBEB"/>
<path d="M214.689 716.677H112.999V717.21H214.689V716.677Z" fill="#EBEBEB"/>
<path d="M857.292 713.092H815.956V713.625H857.292V713.092Z" fill="#EBEBEB"/>
<path d="M713.448 727.238H683.12V727.771H713.448V727.238Z" fill="#EBEBEB"/>
<path d="M663.927 727.238H587.59V727.771H663.927V727.238Z" fill="#EBEBEB"/>
<path d="M543.261 718.234H420.505V718.768H543.261V718.234Z" fill="#EBEBEB"/>
<path d="M510.498 603.4H94.5822C91.324 603.394 88.2011 602.108 85.8992 599.824C83.5973 597.54 82.3044 594.444 82.3044 591.217V12.0764C82.3328 8.86738 83.6382 5.79907 85.937 3.5379C88.2359 1.27673 91.3426 0.00531404 94.5822 -0.000183105H510.498C513.76 -0.000183105 516.889 1.2834 519.195 3.5682C521.502 5.853 522.797 8.95185 522.797 12.183V591.217C522.797 594.448 521.502 597.547 519.195 599.832C516.889 602.117 513.76 603.4 510.498 603.4ZM94.5822 0.426551C91.4668 0.432204 88.4809 1.66208 86.28 3.84623C84.0791 6.03038 82.8429 8.99033 82.8429 12.0764V591.217C82.8429 594.303 84.0791 597.263 86.28 599.447C88.4809 601.631 91.4668 602.861 94.5822 602.867H510.498C513.616 602.861 516.604 601.632 518.808 599.448C521.012 597.265 522.253 594.305 522.259 591.217V12.0764C522.253 8.98837 521.012 6.02847 518.808 3.84493C516.604 1.66139 513.616 0.432192 510.498 0.426551H94.5822Z" fill="#EBEBEB"/>
<path d="M976.429 603.4H560.492C557.232 603.395 554.107 602.109 551.801 599.826C549.496 597.542 548.198 594.446 548.193 591.217V12.0764C548.227 8.86543 549.537 5.79715 551.839 3.53656C554.141 1.27598 557.25 0.00525409 560.492 -0.000183105H976.429C979.665 0.0109215 982.767 1.28481 985.061 3.54539C987.355 5.80596 988.657 8.87107 988.686 12.0764V591.217C988.686 594.441 987.396 597.533 985.099 599.817C982.801 602.1 979.684 603.389 976.429 603.4ZM560.492 0.426551C557.375 0.432192 554.386 1.66139 552.182 3.84493C549.978 6.02847 548.737 8.98837 548.731 12.0764V591.217C548.737 594.305 549.978 597.265 552.182 599.448C554.386 601.632 557.375 602.861 560.492 602.867H976.429C979.547 602.861 982.535 601.632 984.739 599.448C986.944 597.265 988.185 594.305 988.19 591.217V12.0764C988.185 8.98837 986.944 6.02847 984.739 3.84493C982.535 1.66139 979.547 0.432192 976.429 0.426551H560.492Z" fill="#EBEBEB"/>
<path d="M840.857 65.4395H621.58V698.562H840.857V65.4395Z" fill="#EBEBEB"/>
<path d="M826.059 685.76V78.2412L636.378 78.2412V685.76H826.059Z" fill="#FAFAFA"/>
<path d="M615.01 65.4395H395.733V698.562H615.01V65.4395Z" fill="#EBEBEB"/>
<path d="M615.01 696.087H621.58L621.58 67.9357H615.01L615.01 696.087Z" fill="#E0E0E0"/>
<path d="M600.212 685.738V78.2198L410.531 78.2198V685.738H600.212Z" fill="#FAFAFA"/>
<path d="M941.018 60.6815H295.572C294.814 60.6759 294.089 60.3751 293.552 59.8441C293.016 59.3132 292.713 58.5946 292.707 57.8437C292.713 57.0928 293.016 56.3742 293.552 55.8433C294.089 55.3123 294.814 55.0115 295.572 55.0059H941.018C941.776 55.0115 942.502 55.3123 943.038 55.8433C943.574 56.3742 943.877 57.0928 943.883 57.8437C943.877 58.5946 943.574 59.3132 943.038 59.8441C942.502 60.3751 941.776 60.6759 941.018 60.6815Z" fill="#E0E0E0"/>
<path d="M826.059 90.3394V78.2416L636.378 78.2416V90.3394L826.059 90.3394Z" fill="#E0E0E0"/>
<path d="M826.059 98.6176V78.2198L636.378 78.2198V98.6176L826.059 98.6176Z" fill="#E0E0E0"/>
<path d="M600.212 122.792V78.2198L410.531 78.2198V122.792L600.212 122.792Z" fill="#E0E0E0"/>
<g opacity="0.8">
<path d="M869.009 41.7345H808.266V690.774H869.009V41.7345Z" fill="#F5F5F5"/>
<path d="M852.984 41.7345H824.314V690.774H852.984V41.7345Z" fill="#F0F0F0"/>
<path d="M901.599 41.7345H840.856V690.774H901.599V41.7345Z" fill="#F5F5F5"/>
<path d="M885.573 41.7345H856.904V690.774H885.573V41.7345Z" fill="#F0F0F0"/>
<path d="M931.971 41.7345H871.228V690.774H931.971V41.7345Z" fill="#F5F5F5"/>
</g>
<g opacity="0.8">
<path d="M390.866 41.7344H302.702V690.774H390.866V41.7344Z" fill="#F5F5F5"/>
<path d="M367.582 41.7345H325.966V690.774H367.582V41.7345Z" fill="#F0F0F0"/>
<path d="M438.146 41.7345H349.983V690.774H438.146V41.7345Z" fill="#F5F5F5"/>
<path d="M414.861 41.7345H373.246V690.774H414.861V41.7345Z" fill="#F0F0F0"/>
<path d="M482.217 41.7345H394.054V690.774H482.217V41.7345Z" fill="#F5F5F5"/>
</g>
<path d="M260.85 108.241H118.621V425.453H260.85V108.241Z" fill="#F0F0F0"/>
<path d="M260.85 425.474H265.33L265.33 108.262H260.85L260.85 425.474Z" fill="#E6E6E6"/>
<path d="M247.925 412.65L247.925 121.042H131.545V412.65H247.925Z" fill="#FAFAFA"/>
<path d="M269.81 582.64H123.812C120.601 582.634 117.523 581.37 115.251 579.123C112.978 576.876 111.696 573.829 111.685 570.649C111.696 567.468 112.978 564.421 115.251 562.174C117.523 559.927 120.601 558.663 123.812 558.657H269.81C273.017 558.669 276.09 559.936 278.357 562.182C280.625 564.428 281.904 567.472 281.916 570.649C281.904 573.825 280.625 576.869 278.357 579.115C276.09 581.362 273.017 582.629 269.81 582.64Z" fill="#F5F5F5"/>
<path d="M158.922 582.64H134.948L107.7 698.562H131.653L158.922 582.64Z" fill="#E6E6E6"/>
<path d="M206.741 582.64H182.788L169.369 698.562H193.321L206.741 582.64Z" fill="#E6E6E6"/>
<path d="M234.7 582.64H258.653L285.922 698.562H261.948L234.7 582.64Z" fill="#E6E6E6"/>
<path d="M538.5 794.918C769.156 794.918 956.14 784.104 956.14 770.765C956.14 757.425 769.156 746.612 538.5 746.612C307.845 746.612 120.861 757.425 120.861 770.765C120.861 784.104 307.845 794.918 538.5 794.918Z" fill="#F5F5F5"/>
<path d="M677.584 519.249H493.783C490.298 519.249 487.472 522.048 487.472 525.5V532.67C487.472 536.122 490.298 538.921 493.783 538.921H677.584C681.07 538.921 683.895 536.122 683.895 532.67V525.5C683.895 522.048 681.07 519.249 677.584 519.249Z" fill="#263238"/>
<path d="M675.839 757.963H683.895L674.633 538.921H663.475L675.839 757.963Z" fill="#407BFF"/>
<path opacity="0.6" d="M675.839 757.963H683.895L674.633 538.921H663.475L675.839 757.963Z" fill="white"/>
<path d="M601.677 757.963H593.621L602.883 538.921H614.041L601.677 757.963Z" fill="#407BFF"/>
<path opacity="0.6" d="M601.677 757.963H593.621L602.883 538.921H614.041L601.677 757.963Z" fill="white"/>
<path d="M569.712 757.963H577.768L568.484 538.921H557.348L569.712 757.963Z" fill="#407BFF"/>
<path opacity="0.6" d="M569.712 757.963H577.768L568.484 538.921H557.348L569.712 757.963Z" fill="white"/>
<path d="M495.528 757.963H487.472L496.756 538.921H507.892L495.528 757.963Z" fill="#407BFF"/>
<path opacity="0.6" d="M495.528 757.963H487.472L496.756 538.921H507.892L495.528 757.963Z" fill="white"/>
<g opacity="0.3">
<path d="M674.634 538.9H663.476L663.993 548.224H675.022L674.634 538.9Z" fill="#407BFF"/>
<path d="M602.497 548.224H613.504L614.042 538.9H602.884L602.497 548.224Z" fill="#407BFF"/>
<path d="M557.348 538.9L557.865 548.224H568.894L568.484 538.9H557.348Z" fill="#407BFF"/>
<path d="M496.347 548.224H507.397L507.914 538.9H496.756L496.347 548.224Z" fill="#407BFF"/>
</g>
<path d="M564.52 725.766L546.297 735.368L517.563 696.941L535.807 687.339L564.52 725.766Z" fill="#FFB573"/>
<path d="M539.707 729.436L558.748 716.336C558.904 716.204 559.086 716.106 559.282 716.049C559.478 715.991 559.684 715.975 559.887 716.001C560.09 716.027 560.285 716.095 560.46 716.2C560.635 716.306 560.786 716.446 560.902 716.613L572.297 730.887C572.845 731.674 573.059 732.642 572.894 733.584C572.729 734.525 572.197 735.365 571.414 735.923C564.715 740.361 561.699 741.918 552.932 747.082C547.526 750.239 534.602 757.75 526.654 761.185C518.705 764.62 515.517 756.726 518.576 754.571C525.835 749.493 535.442 739.507 537.617 732.487C537.953 731.269 538.688 730.196 539.707 729.436Z" fill="#263238"/>
<path opacity="0.2" d="M535.829 687.36L517.563 696.94L531.413 715.46L549.248 705.304L535.829 687.36Z" fill="black"/>
<path d="M579.836 459.741C579.836 459.741 438.232 455.367 437.672 513.979C436.983 598.216 517.693 708.847 517.693 708.847L549.271 688.043C549.271 688.043 493.956 607.626 493.482 541.866C535.205 530.195 633.492 537.599 646.222 503.247C656.648 475.21 651.198 459.741 651.198 459.741H579.836Z" fill="#407BFF"/>
<path opacity="0.2" d="M579.836 459.741C579.836 459.741 438.232 455.367 437.672 513.979C436.983 598.216 517.693 708.847 517.693 708.847L549.271 688.043C549.271 688.043 493.956 607.626 493.482 541.866C535.205 530.195 633.492 537.599 646.222 503.247C656.648 475.21 651.198 459.741 651.198 459.741H579.836Z" fill="black"/>
<path d="M557.843 693.398L520.277 716.186L508.495 704.344L549.765 678.591L557.843 693.398Z" fill="#263238"/>
<path d="M535.765 736.499C537.269 735.421 538.642 734.175 539.857 732.786C539.922 732.718 539.964 732.632 539.979 732.54C539.994 732.449 539.981 732.354 539.942 732.27C539.902 732.185 539.839 732.114 539.758 732.065C539.678 732.016 539.585 731.993 539.491 731.997C538.694 731.997 531.629 731.997 530.121 734.28C529.949 734.535 529.844 734.829 529.818 735.135C529.792 735.441 529.844 735.749 529.971 736.029C530.113 736.472 530.372 736.869 530.72 737.18C531.068 737.491 531.493 737.705 531.952 737.8C533.342 737.846 534.699 737.383 535.765 736.499ZM538.371 732.978C535.765 735.666 533.46 737.096 532.125 736.861C531.825 736.796 531.55 736.65 531.329 736.439C531.109 736.228 530.952 735.96 530.875 735.666C530.795 735.538 530.753 735.39 530.753 735.24C530.753 735.089 530.795 734.941 530.875 734.813C531.737 733.618 535.549 733.085 538.371 732.978Z" fill="#407BFF"/>
<path d="M539.771 732.871C539.832 732.825 539.884 732.767 539.922 732.701C539.963 732.629 539.985 732.548 539.985 732.466C539.985 732.384 539.963 732.303 539.922 732.231C539.793 732.018 536.777 726.94 533.934 726.47C533.551 726.397 533.156 726.414 532.781 726.522C532.407 726.629 532.063 726.824 531.78 727.089C531.455 727.329 531.22 727.668 531.111 728.054C531.002 728.44 531.025 728.851 531.177 729.223C532.081 731.356 537.057 733.085 539.448 732.935L539.771 732.871ZM532.684 727.58C532.84 727.465 533.018 727.383 533.207 727.339C533.396 727.295 533.592 727.29 533.783 727.324C535.485 727.601 537.552 730.268 538.629 731.89C536.282 731.676 532.749 730.183 532.167 728.796C532.06 728.54 531.995 728.177 532.534 727.708C532.577 727.751 532.62 727.687 532.684 727.58Z" fill="#407BFF"/>
<path d="M530.811 749.322L510.348 748.362L506.988 700.504L527.451 701.464L530.811 749.322Z" fill="#FFB573"/>
<path d="M509.874 744.905L533.03 744.18C533.421 744.15 533.807 744.275 534.106 744.527C534.405 744.779 534.591 745.137 534.624 745.524L536.325 763.639C536.36 764.598 536.01 765.531 535.352 766.235C534.694 766.938 533.782 767.355 532.814 767.394C524.758 767.394 520.881 767.159 510.693 767.394C504.424 767.586 492.104 768.504 483.509 767.394C474.915 766.285 476.229 757.942 479.955 757.622C488.808 756.918 500.677 750.858 506.363 746.143C507.364 745.359 508.598 744.924 509.874 744.905Z" fill="#263238"/>
<path d="M502.68 748.682C504.531 748.583 506.366 748.282 508.151 747.785C508.241 747.762 508.321 747.713 508.383 747.645C508.445 747.577 508.486 747.492 508.5 747.401C508.513 747.31 508.5 747.217 508.461 747.134C508.422 747.05 508.359 746.98 508.28 746.932C507.612 746.505 501.646 742.665 499.169 743.774C498.886 743.897 498.638 744.088 498.45 744.33C498.262 744.573 498.139 744.859 498.092 745.161C497.964 745.608 497.959 746.081 498.076 746.531C498.193 746.98 498.429 747.391 498.759 747.721C499.897 748.521 501.297 748.864 502.68 748.682ZM506.794 747.145C503.132 747.977 500.332 747.956 499.427 747.039C499.217 746.817 499.069 746.545 498.997 746.25C498.925 745.954 498.932 745.645 499.018 745.353C499.036 745.204 499.093 745.063 499.184 744.943C499.275 744.823 499.396 744.729 499.535 744.67C500.87 744.094 504.36 745.694 506.794 747.145Z" fill="#407BFF"/>
<path d="M508.043 747.807C508.114 747.826 508.188 747.826 508.259 747.807C508.329 747.77 508.388 747.714 508.429 747.647C508.471 747.579 508.494 747.502 508.496 747.423C508.496 747.167 508.797 741.278 506.643 739.358C506.362 739.09 506.018 738.896 505.642 738.792C505.266 738.687 504.87 738.677 504.489 738.76C504.077 738.783 503.685 738.943 503.376 739.214C503.067 739.485 502.86 739.852 502.788 740.254C502.378 742.388 505.588 746.655 507.677 747.807C507.796 747.846 507.924 747.846 508.043 747.807ZM504.963 739.614C505.153 739.603 505.343 739.631 505.521 739.697C505.699 739.763 505.862 739.866 505.997 739.998C507.289 741.15 507.548 744.5 507.569 746.399C505.717 744.948 503.563 741.79 503.843 740.318C503.843 740.041 504.037 739.699 504.726 739.593L504.963 739.614Z" fill="#407BFF"/>
<path opacity="0.2" d="M527.473 701.464L506.988 700.504L508.905 727.879L529.325 727.857L527.473 701.464Z" fill="black"/>
<path d="M630.196 459.741C630.196 459.741 482.044 473.61 487.429 517.798C495.226 581.509 499.061 718.832 499.061 718.832L536.82 720.304C536.82 720.304 552.824 596.552 544.553 531.198C582.894 531.198 676.766 533.929 685.317 511.056C692.877 490.829 690.185 459.848 690.185 459.848L630.196 459.741Z" fill="#407BFF"/>
<path d="M540.999 722.608L495.679 720.389L494.042 700.845L543.756 704.238L540.999 722.608Z" fill="#263238"/>
<path d="M597.326 330.313C597.046 333.897 596.766 337.013 596.357 340.298C595.948 343.584 595.517 346.699 595 350.028C593.987 356.429 592.695 362.83 591.187 369.38C588.251 382.915 583.476 395.992 576.992 408.256C575.057 411.701 572.831 414.977 570.336 418.049C567.548 421.517 564.252 424.552 560.557 427.053C553.449 431.729 545.228 434.481 536.713 435.033C529.256 435.517 521.771 434.796 514.548 432.899C511.139 432.036 507.787 430.967 504.51 429.699C502.873 429.08 501.279 428.397 499.707 427.565C498.134 426.733 496.67 426.05 494.86 425.09L500.525 410.816L504.639 411.328L508.947 411.755C511.834 411.989 514.677 412.139 517.563 412.139C522.796 412.227 528.018 411.631 533.094 410.368C537.161 409.401 540.926 407.46 544.058 404.714C545.4 403.469 546.6 402.081 547.633 400.574C548.906 398.634 550.043 396.609 551.037 394.515C553.315 389.619 555.181 384.545 556.616 379.344C558.253 373.946 559.566 368.292 560.751 362.531C561.936 356.77 562.905 350.945 563.874 345.078L565.145 336.244C565.533 333.343 565.964 330.227 566.244 327.71L597.326 330.313Z" fill="#FFB573"/>
<path d="M597.456 312.923C582.378 298.436 563.638 306.992 556.186 334.26C551.967 348.816 549.084 363.72 547.57 378.79L595.539 388.605C604.263 362.595 612.965 327.774 597.456 312.923Z" fill="#263238"/>
<path opacity="0.3" d="M582.012 342.582C585.437 339.53 595.173 353.25 601.118 370.17C599.438 376.571 597.521 382.737 595.56 388.519L566.697 382.609C569.002 365.711 574.322 349.452 582.012 342.582Z" fill="black"/>
<path d="M497.273 404.415L486.503 400.34L486.029 422.978C486.029 422.978 504.123 430.723 507.806 421.826L506.514 416.172C505.89 413.68 504.746 411.347 503.154 409.321C501.562 407.296 499.558 405.625 497.273 404.415Z" fill="#FFB573"/>
<path d="M473.795 400.937L467.441 419.927L486.116 422.978L486.59 400.34L473.795 400.937Z" fill="#FFB573"/>
<path d="M490.079 416.065C489.851 416.069 489.628 416.008 489.433 415.891C489.239 415.774 489.082 415.605 488.98 415.404L469.745 378.726C469.593 378.437 469.561 378.1 469.658 377.788C469.755 377.477 469.972 377.216 470.262 377.062C470.557 376.918 470.897 376.893 471.211 376.992C471.524 377.092 471.786 377.308 471.942 377.595L491.113 414.209C491.265 414.498 491.297 414.834 491.2 415.146C491.103 415.458 490.886 415.719 490.596 415.873C490.438 415.97 490.262 416.035 490.079 416.065Z" fill="#263238"/>
<path d="M595.668 298.393L618.673 291.992L648.226 290.627C652.714 290.413 657.149 291.668 660.847 294.197C664.544 296.727 667.3 300.39 668.689 304.624C674.311 321.693 679.459 346.273 683.271 367.545C687.579 391.421 689.733 427.288 690.186 459.848H579.836C577.316 391.89 568.592 351.714 564.758 329.481C563.994 325.123 564.692 320.638 566.746 316.711C568.8 312.784 572.097 309.633 576.131 307.739L595.668 298.393Z" fill="#263238"/>
<path opacity="0.3" d="M683.271 367.46C680.299 350.711 676.465 331.849 672.2 316.252C652.534 312.966 643.013 355.682 648.851 376.869C654.688 398.057 685.813 385.212 685.813 385.212C685.081 378.832 684.219 372.837 683.271 367.46Z" fill="black"/>
<path d="M614.752 247.506C619.49 259.027 616.647 280.151 607.299 274.176C597.95 268.202 611.865 240.507 614.752 247.506Z" fill="#263238"/>
<path d="M609.583 254.888L600.644 268.415L588.495 286.829C590.065 288.404 591.335 290.247 592.243 292.27C594.397 296.708 596.314 300.015 586.901 306.373C585.89 307.016 585.086 307.932 584.586 309.014C584.086 310.096 583.91 311.297 584.08 312.476C584.64 315.356 587.526 318.151 597.671 316.38C607.449 314.526 616.371 309.621 623.132 302.383C626.513 299.033 625.738 296.516 622.485 293.038C613.18 283.223 610.423 267.541 609.583 254.888Z" fill="#FFB573"/>
<path opacity="0.2" d="M591.402 282.284L598.855 269.162C599.013 269.504 599.185 269.866 599.372 270.25C600.034 271.871 600.567 273.54 600.966 275.243C602.323 281.068 597.756 289.389 592.737 293.358L592.156 292.227C591.252 290.338 590.092 288.579 588.709 287C588.621 286.913 588.52 286.841 588.408 286.786L591.402 282.284Z" fill="black"/>
<path d="M546.664 238.97C543.886 245.179 553.729 262.761 564.995 255.656C576.26 248.551 551.575 227.982 546.664 238.97Z" fill="#263238"/>
<path d="M600.966 320.157C600.818 320.159 600.673 320.109 600.559 320.015C600.444 319.921 600.367 319.79 600.342 319.645C599.523 314.374 596.034 311.11 592.092 307.141C587.095 302.298 581.43 296.793 579.577 286.018C579.549 285.86 579.585 285.696 579.678 285.564C579.771 285.432 579.913 285.342 580.073 285.314C580.233 285.286 580.397 285.321 580.531 285.413C580.664 285.506 580.755 285.646 580.783 285.805C582.593 296.196 588.107 301.551 592.953 306.267C596.938 310.128 600.686 313.777 601.569 319.453C601.585 319.533 601.584 319.615 601.565 319.695C601.547 319.774 601.513 319.849 601.465 319.915C601.416 319.981 601.355 320.037 601.284 320.078C601.213 320.12 601.134 320.146 601.053 320.157H600.966Z" fill="white"/>
<path d="M605.553 232.719C609.861 252.05 613.222 263.167 606.264 275.393C595.753 293.892 569.474 291.374 559.479 273.579C550.476 257.577 545.112 228.644 561.849 216.162C565.593 213.404 569.98 211.628 574.603 210.996C579.225 210.365 583.934 210.9 588.292 212.551C592.65 214.202 596.517 216.916 599.535 220.442C602.552 223.967 604.622 228.19 605.553 232.719Z" fill="#FFB573"/>
<path d="M611.349 245.991C604.629 255.443 587.009 238.096 588.452 226.446C570.962 236.304 551.964 249.469 540.44 238.373C527.128 225.571 530.768 207.222 546.363 205.579C543.606 210.913 559.287 213.282 567.623 205.046C581.732 191.219 604.026 194.1 603.617 205.302C614.365 201.077 626.104 225.23 611.349 245.991Z" fill="#263238"/>
<path d="M601.548 208.438C605.705 205.365 602.948 194.42 593.298 191.219C602.474 192.393 611.973 199.156 601.548 208.438Z" fill="#263238"/>
<path d="M617.574 245.137C617.759 249.557 616.303 253.891 613.481 257.32C609.777 261.694 604.068 258.216 602.711 252.754C601.527 247.868 603.056 240.294 607.924 237.947C612.792 235.6 617.316 239.632 617.574 245.137Z" fill="#FFB573"/>
<path d="M577.553 248.401C578.07 249.959 577.682 251.538 576.648 251.901C575.614 252.263 574.494 251.303 573.869 249.767C573.245 248.231 573.74 246.63 574.774 246.246C575.808 245.862 577.036 246.822 577.553 248.401Z" fill="#263238"/>
<path d="M559.89 254.802C560.429 256.381 560.019 257.96 558.986 258.323C557.952 258.686 556.724 257.726 556.207 256.189C555.69 254.653 556.099 253.053 557.112 252.69C558.124 252.327 559.373 253.245 559.89 254.802Z" fill="#263238"/>
<path d="M565.943 253.906C566.014 258.573 565.464 263.229 564.306 267.754C567.473 268.906 570.962 266.196 570.962 266.196L565.943 253.906Z" fill="#ED893E"/>
<path d="M575.399 274.88C577.233 274.283 578.926 273.323 580.373 272.057C581.821 270.792 582.994 269.248 583.821 267.519C583.871 267.4 583.873 267.267 583.824 267.147C583.776 267.027 583.682 266.931 583.562 266.879C583.439 266.836 583.304 266.841 583.184 266.892C583.064 266.944 582.968 267.038 582.916 267.157C581.991 269.02 580.645 270.648 578.983 271.913C577.321 273.178 575.387 274.048 573.331 274.454C573.263 274.462 573.199 274.485 573.14 274.519C573.082 274.554 573.031 274.6 572.992 274.654C572.952 274.709 572.924 274.771 572.91 274.837C572.896 274.903 572.895 274.971 572.909 275.037C572.922 275.103 572.949 275.165 572.987 275.22C573.026 275.276 573.076 275.322 573.134 275.358C573.192 275.393 573.256 275.416 573.323 275.426C573.391 275.436 573.459 275.432 573.525 275.414C574.161 275.277 574.787 275.099 575.399 274.88Z" fill="#263238"/>
<path d="M579.168 241.616C579.318 241.546 579.445 241.435 579.534 241.296C579.672 241.078 579.718 240.815 579.661 240.563C579.605 240.312 579.451 240.092 579.233 239.952C577.958 239.1 576.492 238.573 574.963 238.417C573.433 238.26 571.889 238.48 570.466 239.056C570.347 239.109 570.24 239.185 570.151 239.279C570.062 239.374 569.994 239.485 569.949 239.607C569.905 239.728 569.886 239.858 569.893 239.987C569.901 240.116 569.934 240.242 569.992 240.358C570.108 240.588 570.311 240.764 570.556 240.848C570.802 240.932 571.071 240.917 571.306 240.806C572.429 240.376 573.64 240.222 574.837 240.355C576.033 240.489 577.179 240.907 578.177 241.574C578.321 241.673 578.491 241.73 578.666 241.738C578.842 241.745 579.016 241.703 579.168 241.616Z" fill="#263238"/>
<path d="M556.401 244.689C556.442 244.528 556.442 244.359 556.401 244.198C556.297 243.962 556.103 243.775 555.861 243.679C555.619 243.584 555.348 243.586 555.108 243.686C553.674 244.237 552.4 245.131 551.4 246.289C550.4 247.447 549.706 248.833 549.379 250.322C549.336 250.574 549.396 250.832 549.545 251.04C549.695 251.248 549.922 251.389 550.176 251.431C550.43 251.474 550.691 251.414 550.901 251.266C551.111 251.118 551.253 250.894 551.296 250.642C551.576 249.478 552.139 248.4 552.934 247.5C553.73 246.601 554.735 245.907 555.862 245.478C556.012 245.403 556.141 245.291 556.235 245.153C556.329 245.015 556.386 244.855 556.401 244.689Z" fill="#263238"/>
<path d="M664.876 305.114C667.03 308.571 668.753 311.686 670.541 315.014C672.328 318.343 674.052 321.586 675.732 324.915C679.135 331.55 682.194 338.378 685.166 345.334C688.139 352.289 690.745 359.459 692.985 366.926C695.436 374.765 697.082 382.828 697.896 390.994C698.332 395.761 698.165 400.563 697.401 405.29C696.909 408.407 695.951 411.435 694.558 414.272C692.944 417.479 690.704 420.336 687.967 422.679C685.503 424.8 682.691 426.489 679.652 427.672C677.103 428.664 674.452 429.379 671.747 429.806C667.179 430.513 662.539 430.635 657.94 430.168C653.833 429.822 649.758 429.173 645.748 428.227C641.92 427.363 638.139 426.309 634.418 425.069C627.106 422.671 620.004 419.688 613.18 416.15L618.629 401.79C632.027 404.308 646.416 406.634 658.5 405.908C661.142 405.772 663.759 405.328 666.297 404.586C668.451 403.945 669.55 402.985 669.464 402.687C669.377 402.388 669.334 402.687 669.291 402.473C669.248 402.26 669.291 402.239 669.291 401.15C669.425 398.752 669.28 396.347 668.861 393.981C667.83 387.892 666.222 381.913 664.057 376.122C661.903 369.935 659.297 363.683 656.475 357.496C653.653 351.308 650.616 345.099 647.536 338.911C645.985 335.81 644.384 332.745 642.733 329.715L637.865 320.775L664.876 305.114Z" fill="#FFB573"/>
<path d="M654.817 290.84C634.01 287.704 623.778 305.392 633.579 331.806C638.639 346.095 644.998 359.9 652.577 373.05L697.445 353.57C689.281 327.432 676.099 294.062 654.817 290.84Z" fill="#263238"/>
<path d="M607.084 399.828L597.477 402.687L611.112 421.89C611.112 421.89 631.317 414.721 627.181 406.015L622.097 403.156C617.746 400.66 612.232 398.078 607.084 399.828Z" fill="#FFB573"/>
<path d="M588.969 415.915L598.598 425.432L611.112 421.868L597.478 402.687L588.969 415.915Z" fill="#FFB573"/>
<path d="M609.971 251.239C611.684 251.239 613.073 249.577 613.073 247.527C613.073 245.476 611.684 243.814 609.971 243.814C608.258 243.814 606.869 245.476 606.869 247.527C606.869 249.577 608.258 251.239 609.971 251.239Z" fill="white"/>
<path d="M612.534 257.342L610.746 257.278L609.648 248.722L613.051 247.975L612.534 257.342Z" fill="white"/>
<path d="M624.898 418.625C618.436 418.625 612.706 417.665 609.238 414.55C607.944 413.316 606.937 411.818 606.287 410.16C605.636 408.502 605.356 406.724 605.468 404.949C605.666 396.15 607.049 387.417 609.583 378.982C612.577 367.353 614.946 358.179 607.752 346.849C596.292 328.862 599.717 303.706 607.752 287.938C613.891 275.883 611.737 262.441 610.961 257.491C610.853 256.851 610.767 256.339 610.724 255.997C610.715 255.917 610.723 255.836 610.747 255.759C610.77 255.682 610.809 255.61 610.862 255.548C610.914 255.486 610.978 255.436 611.051 255.399C611.124 255.363 611.203 255.341 611.284 255.336C611.447 255.318 611.61 255.364 611.739 255.463C611.868 255.563 611.952 255.709 611.974 255.869C611.974 256.189 612.081 256.68 612.167 257.299C612.986 262.441 615.118 276.075 608.786 288.493C600.924 303.962 597.563 328.606 608.786 346.102C616.26 357.859 613.718 367.737 610.767 379.174C608.286 387.494 606.931 396.104 606.739 404.778C606.623 406.382 606.861 407.992 607.438 409.496C608.015 410.999 608.916 412.36 610.078 413.483C615.894 418.668 628.732 417.345 641.139 416.065C646.696 415.51 652.447 414.913 657.509 414.913C657.675 414.913 657.834 414.978 657.951 415.094C658.068 415.21 658.134 415.367 658.134 415.532C658.134 415.696 658.068 415.853 657.951 415.969C657.834 416.085 657.675 416.15 657.509 416.15C652.512 416.15 646.739 416.726 641.268 417.302C635.837 418.016 630.373 418.457 624.898 418.625Z" fill="white"/>
<path d="M683.292 414.059H658.779C658.066 414.059 657.487 414.633 657.487 415.34V417.046C657.487 417.754 658.066 418.327 658.779 418.327H683.292C684.006 418.327 684.584 417.754 684.584 417.046V415.34C684.584 414.633 684.006 414.059 683.292 414.059Z" fill="white"/>
<path d="M837.131 432.536H239.87C237.969 432.531 236.148 431.78 234.804 430.449C233.46 429.118 232.703 427.314 232.697 425.431C232.703 423.548 233.46 421.745 234.804 420.413C236.148 419.082 237.969 418.332 239.87 418.326H837.131C839.032 418.332 840.853 419.082 842.197 420.413C843.541 421.745 844.298 423.548 844.304 425.431C844.298 427.314 843.541 429.118 842.197 430.449C840.853 431.78 839.032 432.531 837.131 432.536Z" fill="#407BFF"/>
<path opacity="0.3" d="M837.131 432.536H697.315C695.414 432.531 693.593 431.78 692.249 430.449C690.905 429.118 690.148 427.314 690.142 425.431C690.148 423.548 690.905 421.745 692.249 420.413C693.593 419.082 695.414 418.332 697.315 418.326H837.131C839.032 418.332 840.853 419.082 842.197 420.413C843.541 421.745 844.298 423.548 844.304 425.431C844.298 427.314 843.541 429.118 842.197 430.449C840.853 431.78 839.032 432.531 837.131 432.536Z" fill="#263238"/>
<path d="M830.54 767.308H844.304L828.472 432.536H809.431L830.54 767.308Z" fill="#263238"/>
<path opacity="0.1" d="M830.54 767.308H844.304L828.472 432.536H809.431L830.54 767.308Z" fill="white"/>
<path d="M703.906 767.308H690.142L705.974 432.536H725.015L703.906 767.308Z" fill="#263238"/>
<path opacity="0.2" d="M703.906 767.308H690.142L705.974 432.536H725.015L703.906 767.308Z" fill="white"/>
<path d="M373.116 767.308H386.858L371.026 432.536H351.985L373.116 767.308Z" fill="#263238"/>
<path opacity="0.1" d="M373.116 767.308H386.858L371.026 432.536H351.985L373.116 767.308Z" fill="white"/>
<path d="M246.461 767.308H232.697L248.529 432.536H267.57L246.461 767.308Z" fill="#263238"/>
<path opacity="0.2" d="M246.461 767.308H232.697L248.529 432.536H267.57L246.461 767.308Z" fill="white"/>
<path d="M711.877 450.352H252.536V478.41H711.877V450.352Z" fill="#263238"/>
<path opacity="0.2" d="M711.877 450.352H252.536V478.41H711.877V450.352Z" fill="white"/>
<path d="M328.119 399.464C327.323 399.464 326.559 399.776 325.994 400.331C325.429 400.887 325.109 401.641 325.104 402.43V415.232C325.104 416.024 325.421 416.784 325.987 417.344C326.552 417.904 327.319 418.219 328.119 418.219H425.803C426.062 418.219 426.311 418.119 426.496 417.939C426.681 417.76 426.788 417.515 426.794 417.259V400.317C426.788 400.061 426.681 399.817 426.496 399.637C426.311 399.458 426.062 399.357 425.803 399.357L328.119 399.464Z" fill="#407BFF"/>
<path opacity="0.9" d="M385.933 401.257H426.859V416.534H385.933C385.47 416.534 385.027 416.352 384.699 416.028C384.372 415.704 384.188 415.264 384.188 414.806V402.964C384.194 402.509 384.38 402.075 384.707 401.756C385.034 401.436 385.474 401.257 385.933 401.257Z" fill="white"/>
<path d="M379.212 399.464H280.537C278.872 399.464 277.522 400.802 277.522 402.451V415.36C277.522 417.01 278.872 418.347 280.537 418.347H379.212C380.877 418.347 382.228 417.01 382.228 415.36V402.451C382.228 400.802 380.877 399.464 379.212 399.464Z" fill="#407BFF"/>
<path opacity="0.2" d="M379.212 399.464H280.537C278.872 399.464 277.522 400.802 277.522 402.451V415.36C277.522 417.01 278.872 418.347 280.537 418.347H379.212C380.877 418.347 382.228 417.01 382.228 415.36V402.451C382.228 400.802 380.877 399.464 379.212 399.464Z" fill="black"/>
<path opacity="0.5" d="M330.682 399.464H315.712C315.034 399.464 314.484 400.009 314.484 400.68V417.131C314.484 417.803 315.034 418.347 315.712 418.347H330.682C331.361 418.347 331.91 417.803 331.91 417.131V400.68C331.91 400.009 331.361 399.464 330.682 399.464Z" fill="#407BFF"/>
<path opacity="0.5" d="M352.287 399.464H337.339C336.66 399.464 336.111 400.009 336.111 400.68V417.131C336.111 417.803 336.66 418.347 337.339 418.347H352.287C352.965 418.347 353.515 417.803 353.515 417.131V400.68C353.515 400.009 352.965 399.464 352.287 399.464Z" fill="#407BFF"/>
<path d="M310.457 376.207C310.061 376.207 309.669 376.284 309.303 376.434C308.937 376.585 308.605 376.805 308.325 377.082C308.045 377.359 307.822 377.689 307.671 378.051C307.519 378.414 307.441 378.802 307.441 379.194V396.477C307.441 396.869 307.519 397.258 307.671 397.62C307.822 397.982 308.045 398.312 308.325 398.589C308.605 398.867 308.937 399.087 309.303 399.237C309.669 399.387 310.061 399.464 310.457 399.464H416.283C416.542 399.458 416.788 399.353 416.97 399.169C417.151 398.986 417.252 398.739 417.252 398.483V377.146C417.252 376.889 417.151 376.643 416.97 376.459C416.788 376.276 416.542 376.17 416.283 376.164L310.457 376.207Z" fill="#407BFF"/>
<path opacity="0.9" d="M368.334 378.021H417.316V397.672H368.334C367.871 397.672 367.428 397.49 367.1 397.166C366.773 396.842 366.589 396.402 366.589 395.944V379.792C366.584 379.561 366.624 379.332 366.71 379.117C366.795 378.903 366.922 378.707 367.085 378.542C367.247 378.377 367.442 378.246 367.656 378.156C367.871 378.067 368.101 378.021 368.334 378.021Z" fill="white"/>
<path d="M361.527 376.208H278.555C276.89 376.208 275.54 377.545 275.54 379.195V396.456C275.54 398.106 276.89 399.443 278.555 399.443H361.527C363.193 399.443 364.543 398.106 364.543 396.456V379.195C364.543 377.545 363.193 376.208 361.527 376.208Z" fill="#407BFF"/>
<path opacity="0.2" d="M361.527 376.208H278.555C276.89 376.208 275.54 377.545 275.54 379.195V396.456C275.54 398.106 276.89 399.443 278.555 399.443H361.527C363.193 399.443 364.543 398.106 364.543 396.456V379.195C364.543 377.545 363.193 376.208 361.527 376.208Z" fill="white"/>
<path opacity="0.6" d="M353.752 380.816H292.988C291.977 380.816 291.157 381.628 291.157 382.63V393.021C291.157 394.022 291.977 394.834 292.988 394.834H353.752C354.763 394.834 355.583 394.022 355.583 393.021V382.63C355.583 381.628 354.763 380.816 353.752 380.816Z" fill="#407BFF"/>
<path d="M341.495 365.091C339.836 365.091 338.479 365.881 338.479 366.841V374.458C338.479 375.418 339.836 376.208 341.495 376.208H439.2C439.739 376.208 440.17 375.952 440.17 375.653V365.667C440.17 365.347 439.739 365.091 439.2 365.091H341.495Z" fill="#407BFF"/>
<path opacity="0.9" d="M398.922 366.136H440.171V375.141H398.922C398.567 375.141 398.228 375.001 397.977 374.753C397.727 374.505 397.586 374.168 397.586 373.818V367.417C397.597 367.073 397.743 366.748 397.992 366.509C398.241 366.27 398.575 366.136 398.922 366.136Z" fill="white"/>
<path d="M393.3 365.091H293.204C291.931 365.091 290.899 366.113 290.899 367.374V373.946C290.899 375.207 291.931 376.229 293.204 376.229H393.3C394.573 376.229 395.605 375.207 395.605 373.946V367.374C395.605 366.113 394.573 365.091 393.3 365.091Z" fill="#407BFF"/>
<path opacity="0.2" d="M393.3 365.091H293.204C291.931 365.091 290.899 366.113 290.899 367.374V373.946C290.899 375.207 291.931 376.229 293.204 376.229H393.3C394.573 376.229 395.605 375.207 395.605 373.946V367.374C395.605 366.113 394.573 365.091 393.3 365.091Z" fill="black"/>
<path opacity="0.5" d="M305.782 365.091H302.658C302.409 365.091 302.206 365.292 302.206 365.539V375.781C302.206 376.028 302.409 376.229 302.658 376.229H305.782C306.032 376.229 306.234 376.028 306.234 375.781V365.539C306.234 365.292 306.032 365.091 305.782 365.091Z" fill="#407BFF"/>
<path opacity="0.5" d="M387.031 365.091H383.972C383.723 365.091 383.52 365.292 383.52 365.539V375.781C383.52 376.028 383.723 376.229 383.972 376.229H387.031C387.281 376.229 387.483 376.028 387.483 375.781V365.539C387.483 365.292 387.281 365.091 387.031 365.091Z" fill="#407BFF"/>
<path d="M323.833 349.003C322.175 349.003 320.818 349.793 320.818 350.753V363.32C320.818 364.302 322.175 365.091 323.833 365.091H429.659C430.198 365.091 430.65 364.835 430.65 364.515V349.579C430.65 349.259 430.198 349.003 429.659 349.003H323.833Z" fill="#407BFF"/>
<path opacity="0.9" d="M381.258 350.048H430.649V364.024H381.258C380.904 364.024 380.564 363.885 380.314 363.637C380.063 363.388 379.922 363.052 379.922 362.701V351.371C379.922 351.02 380.063 350.684 380.314 350.436C380.564 350.188 380.904 350.048 381.258 350.048Z" fill="white"/>
<path d="M375.615 349.003H291.222C289.949 349.003 288.917 350.025 288.917 351.286V362.808C288.917 364.069 289.949 365.091 291.222 365.091H375.615C376.888 365.091 377.92 364.069 377.92 362.808V351.286C377.92 350.025 376.888 349.003 375.615 349.003Z" fill="#407BFF"/>
<path opacity="0.1" d="M375.615 349.003H291.222C289.949 349.003 288.917 350.025 288.917 351.286V362.808C288.917 364.069 289.949 365.091 291.222 365.091H375.615C376.888 365.091 377.92 364.069 377.92 362.808V351.286C377.92 350.025 376.888 349.003 375.615 349.003Z" fill="black"/>
<path d="M559.868 414.784H470.972C470.496 414.784 470.039 414.97 469.701 415.302C469.362 415.633 469.169 416.084 469.163 416.555C469.169 417.027 469.362 417.477 469.701 417.809C470.039 418.14 470.496 418.326 470.972 418.326H559.868C560.342 418.326 560.797 418.14 561.132 417.807C561.468 417.475 561.656 417.025 561.656 416.555C561.656 416.086 561.468 415.635 561.132 415.303C560.797 414.971 560.342 414.784 559.868 414.784Z" fill="white"/>
<path d="M733.781 410.56H792.198L797.475 418.134H728.504L733.781 410.56Z" fill="#263238"/>
<path d="M823.991 281.281C823.991 282.821 823.53 284.327 822.666 285.607C821.802 286.888 820.574 287.886 819.137 288.476C817.701 289.065 816.12 289.219 814.595 288.919C813.07 288.618 811.669 287.877 810.569 286.788C809.47 285.698 808.721 284.311 808.418 282.8C808.114 281.289 808.27 279.723 808.865 278.3C809.46 276.877 810.468 275.661 811.761 274.805C813.054 273.95 814.574 273.493 816.129 273.493C817.162 273.49 818.186 273.69 819.141 274.08C820.096 274.47 820.964 275.044 821.694 275.768C822.425 276.491 823.004 277.351 823.398 278.297C823.792 279.243 823.994 280.257 823.991 281.281Z" fill="black"/>
<path d="M764.929 415.68C764.52 415.679 764.117 415.578 763.756 415.387C763.395 415.195 763.087 414.918 762.859 414.581C762.632 414.244 762.491 413.857 762.45 413.453C762.409 413.049 762.469 412.642 762.624 412.267L818.908 280.321C819.199 279.77 819.688 279.347 820.279 279.137C820.869 278.927 821.518 278.944 822.096 279.186C822.674 279.428 823.139 279.877 823.399 280.443C823.658 281.009 823.693 281.651 823.497 282.241L767.213 414.166C767.023 414.611 766.706 414.993 766.3 415.262C765.894 415.531 765.418 415.677 764.929 415.68Z" fill="#263238"/>
<path d="M821.191 283.777C820.657 283.771 820.137 283.6 819.705 283.286L717.498 207.349C716.972 206.959 716.625 206.378 716.532 205.733C716.439 205.089 716.608 204.435 717.003 203.914C717.397 203.393 717.984 203.049 718.634 202.957C719.284 202.865 719.945 203.033 720.47 203.423L822.699 279.318C823.112 279.632 823.416 280.066 823.568 280.56C823.719 281.053 823.712 281.581 823.546 282.07C823.379 282.559 823.063 282.984 822.641 283.287C822.219 283.589 821.712 283.753 821.191 283.756V283.777Z" fill="#263238"/>
<path d="M829.053 281.281C829.053 282.821 828.592 284.327 827.728 285.607C826.864 286.888 825.636 287.886 824.199 288.476C822.763 289.065 821.182 289.219 819.657 288.919C818.132 288.618 816.731 287.877 815.631 286.788C814.532 285.698 813.783 284.311 813.479 282.8C813.176 281.289 813.332 279.723 813.927 278.3C814.522 276.877 815.53 275.661 816.823 274.805C818.115 273.95 819.635 273.493 821.19 273.493C822.224 273.49 823.247 273.69 824.203 274.08C825.158 274.47 826.026 275.044 826.756 275.768C827.487 276.491 828.066 277.351 828.46 278.297C828.854 279.243 829.055 280.257 829.053 281.281Z" fill="#263238"/>
<path d="M718.984 213.153C723.315 213.153 726.825 209.675 726.825 205.386C726.825 201.097 723.315 197.62 718.984 197.62C714.654 197.62 711.144 201.097 711.144 205.386C711.144 209.675 714.654 213.153 718.984 213.153Z" fill="#263238"/>
<path d="M707.998 240.89C705.54 243.325 702.408 244.983 698.999 245.655C695.589 246.327 692.055 245.982 688.843 244.664C685.632 243.347 682.887 241.115 680.955 238.252C679.024 235.389 677.993 232.023 677.993 228.579C677.993 225.135 679.024 221.769 680.955 218.906C682.887 216.043 685.632 213.811 688.843 212.494C692.055 211.176 695.589 210.831 698.999 211.503C702.408 212.175 705.54 213.833 707.998 216.268C711.289 219.536 713.138 223.963 713.138 228.579C713.138 233.195 711.289 237.622 707.998 240.89Z" fill="#407BFF"/>
<path opacity="0.7" d="M707.998 240.89C705.54 243.325 702.408 244.983 698.999 245.655C695.589 246.327 692.055 245.982 688.843 244.664C685.632 243.347 682.887 241.115 680.955 238.252C679.024 235.389 677.993 232.023 677.993 228.579C677.993 225.135 679.024 221.769 680.955 218.906C682.887 216.043 685.632 213.811 688.843 212.494C692.055 211.176 695.589 210.831 698.999 211.503C702.408 212.175 705.54 213.833 707.998 216.268C711.289 219.536 713.138 223.963 713.138 228.579C713.138 233.195 711.289 237.622 707.998 240.89Z" fill="white"/>
<path d="M718.984 205.386C715.489 201.921 711.339 199.171 706.771 197.295C702.202 195.42 697.306 194.454 692.36 194.454C687.415 194.454 682.519 195.42 677.95 197.295C673.382 199.171 669.232 201.921 665.737 205.386L718.984 258.173C722.487 254.709 725.265 250.595 727.161 246.066C729.057 241.537 730.033 236.682 730.033 231.78C730.033 226.877 729.057 222.022 727.161 217.493C725.265 212.964 722.487 208.85 718.984 205.386Z" fill="#263238"/>
<g opacity="0.2">
<path d="M665.715 205.386L442.087 418.326H671.509L718.983 258.152L665.715 205.386Z" fill="#407BFF"/>
<path opacity="0.7" d="M665.715 205.386L442.087 418.326H671.509L718.983 258.152L665.715 205.386Z" fill="white"/>
</g>
</svg>
