<svg width="791" height="640" viewBox="0 0 791 640" fill="none" xmlns="http://www.w3.org/2000/svg">
<path d="M395.111 639.517C613.325 639.517 790.222 629.189 790.222 616.449C790.222 603.709 613.325 593.381 395.111 593.381C176.897 593.381 0 603.709 0 616.449C0 629.189 176.897 639.517 395.111 639.517Z" fill="#F5F5F5"/>
<path d="M448.074 144.211H321.485C319.822 144.24 318.172 143.916 316.644 143.259C315.116 142.602 313.745 141.627 312.623 140.399C311.501 139.171 310.654 137.718 310.137 136.137C309.62 134.556 309.445 132.883 309.625 131.23L316.35 54.3431C316.708 50.8265 318.343 47.5632 320.946 45.1711C323.548 42.7789 326.937 41.4238 330.472 41.3623H457.06C458.724 41.3323 460.374 41.6567 461.902 42.314C463.43 42.9712 464.8 43.9462 465.922 45.1742C467.044 46.4021 467.892 47.8548 468.409 49.4358C468.926 51.0167 469.1 52.6895 468.92 54.3431L462.196 131.311C461.819 134.813 460.175 138.057 457.575 140.432C454.974 142.808 451.595 144.151 448.074 144.211Z" fill="#407BFF"/>
<path d="M376.2 87.8443C375.55 94.1841 372.602 100.067 367.914 104.384C363.225 108.701 357.12 111.153 350.748 111.279C347.747 111.332 344.77 110.745 342.014 109.557C339.258 108.37 336.787 106.609 334.765 104.392C332.742 102.175 331.215 99.5521 330.285 96.699C329.355 93.8458 329.044 90.8273 329.371 87.8443C330.013 81.5011 332.958 75.6132 337.648 71.2947C342.338 66.9762 348.449 64.5266 354.823 64.4095C357.824 64.3569 360.801 64.9439 363.557 66.1315C366.313 67.319 368.784 69.0799 370.807 71.297C372.829 73.5141 374.356 76.1365 375.286 78.9897C376.216 81.8428 376.527 84.8613 376.2 87.8443Z" fill="#407BFF"/>
<path opacity="0.7" d="M376.2 87.8443C375.55 94.1841 372.602 100.067 367.914 104.384C363.225 108.701 357.12 111.153 350.748 111.279C347.747 111.332 344.77 110.745 342.014 109.557C339.258 108.37 336.787 106.609 334.765 104.392C332.742 102.175 331.215 99.5521 330.285 96.699C329.355 93.8458 329.044 90.8273 329.371 87.8443C330.013 81.5011 332.958 75.6132 337.648 71.2947C342.338 66.9762 348.449 64.5266 354.823 64.4095C357.824 64.3569 360.801 64.9439 363.557 66.1315C366.313 67.319 368.784 69.0799 370.807 71.297C372.829 73.5141 374.356 76.1365 375.286 78.9897C376.216 81.8428 376.527 84.8613 376.2 87.8443Z" fill="white"/>
<path d="M359.856 83.6874C359.408 88.8227 357.452 92.9798 352.316 92.9798C347.181 92.9798 345.938 88.9042 346.386 83.6874C346.835 78.4706 348.811 74.395 353.947 74.395C359.082 74.395 360.305 78.5521 359.856 83.6874Z" fill="#263238"/>
<path d="M352.053 95.8738C341.313 95.8738 335.485 98.258 332.734 101.763C334.689 104.732 337.361 107.16 340.502 108.823C343.644 110.486 347.154 111.331 350.708 111.28C354.479 111.23 358.194 110.352 361.589 108.707C364.984 107.063 367.975 104.692 370.352 101.763C368.213 98.258 362.812 95.8738 352.053 95.8738Z" fill="#263238"/>
<path d="M431.404 61.6789H393.358C392.946 61.6873 392.536 61.6075 392.157 61.4447C391.778 61.2819 391.438 61.0399 391.161 60.735C390.883 60.4301 390.673 60.0692 390.546 59.6767C390.419 59.2842 390.377 58.869 390.424 58.4591C390.514 57.5867 390.92 56.7774 391.565 56.1841C392.211 55.5908 393.052 55.2547 393.929 55.2394H431.975C432.387 55.2309 432.797 55.3108 433.176 55.4736C433.555 55.6364 433.895 55.8783 434.173 56.1832C434.451 56.4882 434.66 56.849 434.787 57.2415C434.914 57.634 434.956 58.0492 434.909 58.4591C434.824 59.3332 434.419 60.1451 433.773 60.7392C433.126 61.3334 432.283 61.668 431.404 61.6789Z" fill="white"/>
<path d="M441.553 85.4601H391.28C390.868 85.4686 390.458 85.3887 390.079 85.2259C389.7 85.0631 389.36 84.8212 389.082 84.5162C388.804 84.2113 388.595 83.8505 388.468 83.458C388.341 83.0654 388.299 82.6503 388.346 82.2404C388.435 81.366 388.84 80.5542 389.486 79.9576C390.131 79.361 390.972 79.0206 391.851 79.0003H442.124C442.537 78.9948 442.947 79.0773 443.326 79.2424C443.705 79.4075 444.045 79.6514 444.322 79.9579C444.6 80.2644 444.809 80.6264 444.936 81.0199C445.063 81.4135 445.104 81.8295 445.058 82.2404C444.973 83.1145 444.568 83.9264 443.921 84.5205C443.274 85.1146 442.431 85.4492 441.553 85.4601Z" fill="white"/>
<path d="M450.702 97.3407H390.24C389.828 97.3492 389.418 97.2693 389.039 97.1065C388.66 96.9437 388.32 96.7018 388.042 96.3969C387.764 96.0919 387.555 95.7311 387.428 95.3386C387.301 94.9461 387.259 94.5309 387.306 94.121C387.395 93.2486 387.801 92.4392 388.447 91.846C389.093 91.2527 389.934 90.9166 390.811 90.9012H451.273C451.685 90.8928 452.095 90.9727 452.474 91.1354C452.853 91.2982 453.193 91.5402 453.471 91.8451C453.748 92.15 453.958 92.5109 454.085 92.9034C454.212 93.2959 454.254 93.7111 454.207 94.121C454.122 94.9951 453.717 95.807 453.07 96.4011C452.423 96.9952 451.58 97.3298 450.702 97.3407Z" fill="white"/>
<path d="M445.588 109.241H389.202C388.788 109.247 388.379 109.164 387.999 108.999C387.62 108.834 387.281 108.59 387.003 108.284C386.726 107.977 386.516 107.615 386.39 107.222C386.263 106.828 386.221 106.412 386.267 106.001C386.361 105.13 386.769 104.324 387.413 103.731C388.058 103.139 388.897 102.801 389.772 102.781H446.159C446.571 102.773 446.981 102.853 447.36 103.016C447.739 103.178 448.079 103.42 448.357 103.725C448.634 104.03 448.844 104.391 448.971 104.784C449.098 105.176 449.14 105.591 449.093 106.001C449.008 106.877 448.604 107.691 447.958 108.289C447.311 108.886 446.468 109.225 445.588 109.241Z" fill="white"/>
<path d="M438.374 121.122H388.162C387.749 121.13 387.34 121.051 386.961 120.888C386.582 120.725 386.242 120.483 385.964 120.178C385.686 119.873 385.477 119.512 385.35 119.12C385.222 118.727 385.181 118.312 385.227 117.902C385.312 117.026 385.716 116.212 386.363 115.614C387.009 115.017 387.853 114.678 388.733 114.662H439.005C439.419 114.657 439.829 114.739 440.208 114.904C440.587 115.069 440.926 115.313 441.204 115.62C441.481 115.926 441.691 116.288 441.817 116.682C441.944 117.075 441.986 117.491 441.94 117.902C441.849 118.785 441.434 119.603 440.775 120.198C440.117 120.792 439.261 121.122 438.374 121.122Z" fill="white"/>
<path d="M443.509 133.003H387.123C386.71 133.011 386.301 132.931 385.922 132.768C385.543 132.606 385.203 132.364 384.925 132.059C384.647 131.754 384.437 131.393 384.31 131C384.183 130.608 384.142 130.193 384.188 129.783C384.274 128.909 384.678 128.097 385.325 127.503C385.972 126.909 386.815 126.574 387.693 126.563H444.079C444.492 126.555 444.902 126.635 445.281 126.797C445.66 126.96 446 127.202 446.278 127.507C446.555 127.812 446.765 128.173 446.892 128.565C447.019 128.958 447.061 129.373 447.014 129.783C446.92 130.654 446.513 131.46 445.868 132.053C445.223 132.645 444.384 132.983 443.509 133.003Z" fill="white"/>
<path d="M188.149 120.813L182.28 131.002L176.513 141.456C172.723 148.446 169.095 155.476 165.794 162.568C164.144 166.114 162.574 169.639 161.148 173.205L160.883 173.837C160.89 173.891 160.89 173.946 160.883 174C160.808 174.085 160.746 174.181 160.7 174.285C160.591 174.465 160.503 174.657 160.435 174.856C160.284 175.624 160.369 176.42 160.679 177.138C161.808 179.918 163.478 182.446 165.59 184.576C168.084 187.255 170.738 189.78 173.538 192.136L168.769 202.325C166.524 201.706 164.324 200.929 162.187 200.002C160.039 199.079 157.955 198.01 155.952 196.803C151.377 194.155 147.456 190.513 144.479 186.145C142.604 183.367 141.347 180.219 140.79 176.914C140.555 175.074 140.555 173.211 140.79 171.371C140.883 170.458 141.04 169.552 141.259 168.661L141.585 167.336L141.85 166.542C143.154 162.364 144.519 158.248 146.109 154.315C149.183 146.395 152.651 138.635 156.502 131.063C158.397 127.293 160.374 123.564 162.452 119.916C164.531 116.269 166.528 112.662 168.953 108.933L188.149 120.813Z" fill="#FFC3BD"/>
<path d="M168.341 191.036L179.059 188.244L179.671 205.545C179.671 205.545 171.295 206.788 166.16 201.653L168.341 191.036Z" fill="#FFC3BD"/>
<path d="M194.222 185.33L191.817 200.511L179.672 205.545L179.061 188.244L194.222 185.33Z" fill="#FFC3BD"/>
<path d="M238.523 39.3411C238.747 40.5231 239.582 41.3789 240.357 41.1955C241.131 41.0121 241.559 39.9525 241.314 38.7706C241.07 37.5886 240.255 36.7327 239.48 36.9161C238.706 37.0995 238.196 38.1592 238.523 39.3411Z" fill="#263238"/>
<path d="M239.462 41.3792C241.616 44.7053 244.215 47.7219 247.185 50.3455C246.494 51.0897 245.65 51.674 244.71 52.0577C243.77 52.4413 242.758 52.6151 241.744 52.5667L239.462 41.3792Z" fill="#ED847E"/>
<path d="M232.859 33.6556C232.679 33.6566 232.505 33.5913 232.37 33.4722C232.24 33.3389 232.167 33.1597 232.167 32.973C232.167 32.7863 232.24 32.607 232.37 32.4737C233.122 31.6142 234.071 30.95 235.136 30.5382C236.201 30.1265 237.35 29.9795 238.484 30.1099C238.67 30.1423 238.836 30.2474 238.945 30.4022C239.054 30.557 239.097 30.7487 239.065 30.9352C239.032 31.1216 238.927 31.2876 238.772 31.3965C238.617 31.5054 238.426 31.5484 238.239 31.5159C237.353 31.4351 236.459 31.5666 235.634 31.8998C234.808 32.2329 234.074 32.758 233.491 33.4315C233.411 33.5163 233.312 33.581 233.202 33.6199C233.093 33.6589 232.975 33.6712 232.859 33.6556Z" fill="#263238"/>
<path d="M204.819 55.99C206.856 66.933 209.098 87.0054 201.436 94.3212C201.436 94.3212 204.431 105.427 224.789 105.427C247.205 105.427 235.467 94.3212 235.467 94.3212C223.24 91.4071 223.587 82.3389 225.706 73.8208L204.819 55.99Z" fill="#FFC3BD"/>
<path d="M197.014 96.3386C195.384 93.3022 193.59 89.8176 197.32 88.7375C201.395 87.5352 227.744 85.314 235.488 87.5556C233.103 91.7942 237.138 96.9907 237.138 96.9907L197.014 96.3386Z" fill="#263238"/>
<path d="M130.724 606.892C131.328 607.107 131.969 607.2 132.609 607.165C133.25 607.13 133.876 606.968 134.453 606.688C134.676 606.483 134.83 606.214 134.892 605.918C134.954 605.622 134.922 605.314 134.8 605.037C134.734 604.807 134.618 604.594 134.459 604.414C134.3 604.234 134.103 604.092 133.883 603.998C131.845 603.02 127.219 604.915 127.015 604.997C126.955 605.027 126.903 605.073 126.867 605.131C126.831 605.188 126.812 605.255 126.812 605.323C126.802 605.39 126.814 605.458 126.848 605.517C126.881 605.576 126.933 605.622 126.995 605.649C128.191 606.193 129.441 606.61 130.724 606.892ZM133.17 604.487L133.577 604.63C133.709 604.684 133.826 604.768 133.921 604.873C134.016 604.979 134.087 605.105 134.127 605.241C134.311 605.873 134.127 606.077 133.985 606.138C133.19 606.831 130.194 606.138 128.095 605.343C129.707 604.705 131.439 604.427 133.17 604.528V604.487Z" fill="#407BFF"/>
<path d="M127.076 605.71H127.259C128.951 605.221 132.578 602.633 132.619 600.941C132.62 600.675 132.53 600.416 132.363 600.208C132.196 600 131.962 599.856 131.702 599.8C131.445 599.715 131.174 599.683 130.905 599.704C130.636 599.725 130.373 599.799 130.133 599.922C128.095 600.941 126.872 605.098 126.811 605.262C126.779 605.313 126.761 605.373 126.761 605.435C126.761 605.496 126.779 605.556 126.811 605.608C126.843 605.647 126.884 605.676 126.93 605.694C126.976 605.712 127.027 605.717 127.076 605.71ZM131.315 600.412H131.478C131.906 600.554 131.906 600.778 131.906 600.86C131.906 601.858 129.481 603.876 127.83 604.711C128.3 603.065 129.251 601.596 130.561 600.493C130.798 600.39 131.061 600.362 131.315 600.412Z" fill="#407BFF"/>
<path d="M241.254 609.439C243.17 609.439 245.024 609.174 245.656 608.318C245.82 608.089 245.908 607.815 245.908 607.533C245.908 607.252 245.82 606.978 245.656 606.749C245.534 606.544 245.372 606.366 245.18 606.226C244.987 606.086 244.768 605.986 244.535 605.934C242.049 605.261 236.812 608.237 236.588 608.359C236.528 608.397 236.48 608.453 236.452 608.518C236.423 608.583 236.413 608.655 236.425 608.726C236.436 608.797 236.47 608.863 236.521 608.914C236.573 608.965 236.639 608.999 236.71 609.011C238.208 609.293 239.73 609.436 241.254 609.439ZM243.638 606.525C243.862 606.502 244.087 606.502 244.311 606.525C244.6 606.598 244.848 606.781 245.004 607.034C245.269 607.462 245.167 607.686 245.004 607.809C244.291 608.787 240.521 608.807 237.729 608.4C239.562 607.405 241.567 606.769 243.638 606.525Z" fill="#407BFF"/>
<path d="M236.73 609.032H236.873C238.687 608.217 242.273 604.956 241.988 603.285C241.988 602.898 241.641 602.409 240.663 602.307C240.299 602.252 239.928 602.278 239.576 602.384C239.223 602.489 238.899 602.672 238.625 602.918C236.71 604.467 236.323 608.502 236.302 608.685C236.293 608.745 236.302 608.805 236.328 608.86C236.353 608.914 236.394 608.96 236.445 608.991C236.532 609.037 236.633 609.052 236.73 609.032ZM240.378 602.918H240.602C241.234 602.918 241.275 603.244 241.295 603.326C241.458 604.345 239.013 606.892 237.219 607.992C237.405 606.277 238.117 604.661 239.257 603.367C239.576 603.111 239.97 602.968 240.378 602.959V602.918Z" fill="#407BFF"/>
<path d="M220.266 608.665H235.243L236.731 574.001H221.753L220.266 608.665Z" fill="#FFC3BD"/>
<path d="M110.386 601.736L125.018 604.894L139.71 572.615L125.079 569.457L110.386 601.736Z" fill="#FFC3BD"/>
<path d="M126.424 603.427L109.999 599.881C109.707 599.809 109.399 599.843 109.13 599.978C108.862 600.112 108.649 600.338 108.532 600.615L102.826 612.984C102.687 613.286 102.619 613.616 102.626 613.948C102.632 614.281 102.714 614.607 102.865 614.903C103.016 615.199 103.233 615.457 103.497 615.658C103.762 615.858 104.069 615.996 104.395 616.062C110.162 617.203 113.015 617.468 120.249 619.037C124.692 619.994 134.738 622.44 140.872 623.764C147.006 625.089 149.146 619.2 146.741 618.099C136.002 613.188 131.519 608.868 128.605 604.854C128.079 604.124 127.302 603.616 126.424 603.427Z" fill="#263238"/>
<path d="M235.141 606.892H218.838C218.541 606.893 218.253 606.994 218.02 607.179C217.787 607.363 217.623 607.621 217.554 607.911L214.6 621.217C214.525 621.54 214.525 621.875 214.6 622.197C214.674 622.52 214.821 622.821 215.029 623.078C215.238 623.336 215.501 623.542 215.801 623.682C216.101 623.822 216.429 623.892 216.76 623.887C222.649 623.785 231.167 623.439 238.585 623.439C247.245 623.439 254.744 623.907 264.913 623.907C271.027 623.907 272.759 617.692 270.191 617.142C258.474 614.574 248.916 614.309 238.788 608.053C237.704 607.335 236.441 606.933 235.141 606.892Z" fill="#263238"/>
<path d="M174.638 97.704C160.598 100.924 149.023 136.728 149.023 136.728L177.206 158.207C184.505 150.445 189.654 140.913 192.143 130.553C196.973 111.704 188.984 94.4027 174.638 97.704Z" fill="#407BFF"/>
<path opacity="0.2" d="M186.661 124.033C179.04 131.573 176.472 145.307 175.963 157.249L177.206 158.207C184.505 150.434 189.659 140.898 192.163 130.533C192.449 129.413 192.693 128.292 192.897 127.191L186.661 124.033Z" fill="black"/>
<path d="M258.576 98.4786C258.576 98.4786 270.069 109.727 265.728 169.537C264.587 185.35 258.535 204.567 255.397 227.859H185.439C184.868 215.632 186.478 155.619 174.638 97.7042C183.515 95.9965 192.494 94.8666 201.517 94.3215C212.851 93.6689 224.214 93.6689 235.548 94.3215C243.321 95.1046 251.02 96.4945 258.576 98.4786Z" fill="#263238"/>
<path opacity="0.6" d="M266.605 148.547C265.281 139.866 263.875 132.245 262.53 125.724L262.081 125.459L240.155 134.649C241.214 148.282 255.622 162.038 265.648 170.087C265.648 169.904 265.648 169.7 265.648 169.537C266.218 161.732 266.503 154.783 266.605 148.547Z" fill="black"/>
<path opacity="0.2" d="M236.73 574.001L235.956 591.873H220.978L221.752 574.001H236.73Z" fill="black"/>
<path opacity="0.2" d="M125.078 569.457L139.71 572.615L132.129 589.264L117.498 586.106L125.078 569.457Z" fill="black"/>
<path d="M198.542 44.8639C202.394 59.1286 203.902 67.8097 212.807 73.7805C226.134 82.7468 242.702 72.4559 243.231 57.2335C243.7 43.5394 237.322 22.3665 221.936 19.4932C218.54 18.8274 215.03 19.0427 211.741 20.1186C208.452 21.1946 205.494 23.0953 203.148 25.6394C200.802 28.1836 199.147 31.2863 198.341 34.6517C197.534 38.0172 197.604 41.533 198.542 44.8639Z" fill="#FFC3BD"/>
<path d="M230.984 227.859C230.984 227.859 213.989 342.282 204.676 385.138C194.487 432.007 139.69 587.37 139.69 587.37L112.893 581.562C112.893 581.562 151.183 455.014 159.762 389.397C163.573 360.154 164.123 310.493 169.034 273.934C171.355 257.631 176.934 241.961 185.439 227.859H230.984Z" fill="#263238"/>
<path d="M146.109 578.362L141.116 588.042L110.957 581.521L113.504 572.452L146.109 578.362Z" fill="#407BFF"/>
<path opacity="0.6" d="M220.244 268.615C200.6 272.467 202.678 345.726 205.042 383.405C210.707 356.771 219.001 305.52 224.666 269.145C223.296 268.47 221.736 268.283 220.244 268.615Z" fill="black"/>
<path d="M255.315 227.859C255.315 227.859 261.428 339.796 259.819 385.443C258.127 432.945 241.478 588.409 241.478 588.409H216.189C216.189 588.409 215.252 435.716 214.151 389.07C212.908 338.227 206.774 227.859 206.774 227.859H255.315Z" fill="#263238"/>
<path d="M246.348 578.362C246.45 578.362 244.902 588.877 244.902 588.877H214.131L213.316 579.483L246.348 578.362Z" fill="#407BFF"/>
<path d="M265.891 112.132C268.194 115.719 270.802 119.733 273.431 123.462C276.06 127.191 278.77 130.961 281.582 134.568C286.908 141.715 292.847 148.384 299.332 154.498C300.901 155.945 302.511 157.29 304.141 158.574L305.364 159.491C305.14 159.372 304.899 159.29 304.65 159.246C304.12 159.144 303.856 159.246 303.998 159.246C305.199 159.334 306.401 159.102 307.483 158.574C309.263 157.809 310.986 156.916 312.638 155.904C320.228 150.9 327.422 145.32 334.158 139.215L342.9 146.286C337.598 155.183 330.997 163.24 323.317 170.189C321.137 172.112 318.791 173.837 316.307 175.345C313.169 177.298 309.668 178.594 306.016 179.156C301.932 179.739 297.774 178.858 294.278 176.67L292.505 175.549C290.182 174.041 287.961 172.451 285.841 170.78C277.775 164.226 270.418 156.842 263.894 148.751C260.695 144.798 257.618 140.804 254.744 136.667C251.871 132.531 249.1 128.516 246.41 123.788L265.891 112.132Z" fill="#FFC3BD"/>
<path d="M236.486 121.119C231.697 141.191 268.011 160.836 268.011 160.836L291.588 133.203C284.509 122.754 276.443 113.01 267.501 104.103C250.995 88.2692 240.113 105.835 236.486 121.119Z" fill="#407BFF"/>
<path d="M331.753 143.31L337.316 125.438L351.968 132.734C351.968 132.734 349.829 145.776 339.171 148.038L331.753 143.31Z" fill="#FFC3BD"/>
<path d="M343.185 120.487L356.41 124.114L351.968 132.734L337.316 125.439L343.185 120.487Z" fill="#FFC3BD"/>
<path d="M213.744 66.0156C217.548 65.1672 221.029 63.2457 223.774 60.479C226.519 57.7123 228.413 54.2165 229.232 50.406C229.232 50.406 225.971 41.8064 232.085 35.9579C238.198 30.1094 235.182 23.731 229.069 22.5287C222.955 21.3264 213.581 28.6422 213.581 28.6422L206.123 42.0102L209.159 55.5005L213.744 66.0156Z" fill="#263238"/>
<path opacity="0.3" d="M213.744 66.0156C217.548 65.1672 221.029 63.2457 223.774 60.479C226.519 57.7123 228.413 54.2165 229.232 50.406C229.232 50.406 225.971 41.8064 232.085 35.9579C238.198 30.1094 235.182 23.731 229.069 22.5287C222.955 21.3264 213.581 28.6422 213.581 28.6422L206.123 42.0102L209.159 55.5005L213.744 66.0156Z" fill="white"/>
<path d="M222.954 45.4546C223.946 49.0309 226.096 52.1772 229.067 54.4006C232.96 57.2943 235.874 54.4006 235.588 50.0397C235.344 45.9641 233.021 39.8506 228.721 38.5872C224.421 37.3237 221.894 41.1549 222.954 45.4546Z" fill="#FFC3BD"/>
<path d="M215.782 62.022C212.134 53.3206 205.409 30.8028 229.17 22.5293C229.17 22.5293 227.438 0.806217 238.992 9.65031C238.992 9.65031 227.947 -4.45132 226.419 9.97637C226.419 9.97637 223.709 5.06525 227.784 1.82513C227.784 1.82513 206.041 -5.47023 206.55 10.9953C205.951 9.3017 205.777 7.48673 206.043 5.71003C206.31 3.93333 207.009 2.24934 208.079 0.806224C208.079 0.806224 203.351 0.520924 201.476 7.97931C199.601 15.4377 181.139 13.889 182.83 30.8639C182.83 30.8639 166.528 51.3643 205.674 68.8691C205.674 68.8691 200.518 72.048 203.453 77.1222C203.987 75.3422 204.881 73.691 206.08 72.2712C207.279 70.8514 208.757 69.6934 210.422 68.8691C210.422 68.8691 207.875 74.6768 213.316 76.3886C212.773 74.8877 212.636 73.2701 212.919 71.6993C213.202 70.1285 213.894 68.6602 214.926 67.4426C215.571 66.715 215.994 65.8179 216.146 64.8574C216.298 63.8969 216.171 62.913 215.782 62.022Z" fill="#263238"/>
<path opacity="0.1" d="M229.782 70.9474C224.606 71.1919 224.911 76.2457 224.993 77.0608C229.48 76.6238 233.681 74.66 236.894 71.4976C235.019 71.8236 233.022 70.8047 229.782 70.9474Z" fill="black"/>
<path d="M227.153 20.3489C227.153 20.3489 229.822 10.5063 234.856 12.4626C239.889 14.4189 236.323 22.3867 238.931 26.1159C237.722 25.6012 236.669 24.7794 235.875 23.7321C235.082 22.6848 234.576 21.4483 234.407 20.1451C233.674 15.4989 229.109 22.5294 229.109 22.5294L227.153 20.3489Z" fill="#263238"/>
<path d="M229.129 59.7604L233.979 54.1971L232.125 52.5669H226.113L224.259 54.1971L229.129 59.7604Z" fill="#407BFF"/>
<path opacity="0.2" d="M228.457 52.5669H226.113L224.259 54.1971L229.129 59.7604L226.602 54.1971L228.457 52.5669Z" fill="white"/>
</svg>
