<svg width="1298" height="967" viewBox="0 0 1298 967" fill="none" xmlns="http://www.w3.org/2000/svg">
<path d="M1297.61 849.675H0V850.324H1297.61V849.675Z" fill="#EBEBEB"/>
<path d="M1167.59 891.432H1081.64V892.081H1167.59V891.432Z" fill="#EBEBEB"/>
<path d="M859.589 898.491H837.036V899.14H859.589V898.491Z" fill="#EBEBEB"/>
<path d="M1079.04 867.348H1029.24V867.997H1079.04V867.348Z" fill="#EBEBEB"/>
<path d="M248.233 871.708H136.145V872.357H248.233V871.708Z" fill="#EBEBEB"/>
<path d="M287.784 871.708H271.356V872.357H287.784V871.708Z" fill="#EBEBEB"/>
<path d="M584.313 882.66H341.193V883.309H584.313V882.66Z" fill="#EBEBEB"/>
<path d="M615.067 733.928H113.956C110.03 733.921 106.268 732.357 103.494 729.579C100.721 726.8 99.1633 723.035 99.1633 719.109V14.6891C99.1975 10.7859 100.77 7.05387 103.54 4.30356C106.31 1.55325 110.053 0.00680836 113.956 0.00012207H615.067C618.997 0.00012207 622.766 1.56137 625.545 4.34042C628.324 7.11947 629.886 10.8887 629.886 14.8188V719.109C629.886 723.04 628.324 726.809 625.545 729.588C622.766 732.367 618.997 733.928 615.067 733.928ZM113.956 0.519168C110.202 0.526043 106.605 2.02197 103.953 4.67859C101.301 7.33522 99.8121 10.9355 99.8121 14.6891V719.109C99.8121 722.863 101.301 726.463 103.953 729.12C106.605 731.776 110.202 733.272 113.956 733.279H615.067C618.823 733.272 622.423 731.777 625.079 729.121C627.735 726.466 629.23 722.865 629.237 719.109V14.6891C629.23 10.9331 627.735 7.33289 625.079 4.67701C622.423 2.02112 618.823 0.526028 615.067 0.519168H113.956Z" fill="#EBEBEB"/>
<path d="M1176.44 733.928H675.302C671.374 733.921 667.609 732.358 664.832 729.58C662.054 726.803 660.491 723.037 660.484 719.109V14.6891C660.525 10.7836 662.103 7.05153 664.877 4.30194C667.651 1.55235 671.397 0.00673544 675.302 0.00012207H1176.44C1180.34 0.0136289 1184.07 1.56309 1186.84 4.31267C1189.6 7.06225 1191.17 10.7904 1191.21 14.6891V719.109C1191.21 723.031 1189.65 726.792 1186.88 729.569C1184.12 732.347 1180.36 733.914 1176.44 733.928ZM675.302 0.519168C671.546 0.526028 667.946 2.02112 665.29 4.67701C662.634 7.33289 661.139 10.9331 661.132 14.6891V719.109C661.139 722.865 662.634 726.466 665.29 729.121C667.946 731.777 671.546 733.272 675.302 733.279H1176.44C1180.2 733.272 1183.8 731.777 1186.45 729.121C1189.11 726.466 1190.6 722.865 1190.61 719.109V14.6891C1190.6 10.9331 1189.11 7.33289 1186.45 4.67701C1183.8 2.02112 1180.2 0.526028 1176.44 0.519168H675.302Z" fill="#EBEBEB"/>
<path d="M615.067 327.283V372.855L638.424 375.061C641.557 390.08 647.501 404.371 655.941 417.182L640.863 435.348L673.096 467.581L691.262 452.503C704.065 460.935 718.348 466.87 733.357 469.994L735.563 493.351H781.42L783.626 469.994C798.643 466.87 812.934 460.935 825.746 452.503L843.913 467.581L876.146 435.348L861.067 417.182C869.5 404.369 875.435 390.078 878.559 375.061L902.046 372.855V327.283L878.559 325.051C875.455 310.021 869.538 295.712 861.119 282.879L876.198 264.713L843.965 232.506L825.798 247.584C813.005 239.163 798.744 233.221 783.756 230.066L781.55 206.709H735.822L733.616 230.066C718.61 233.212 704.329 239.154 691.522 247.584L673.355 232.506L641.019 264.713L656.097 282.879C647.664 295.685 641.721 309.966 638.579 324.974L615.067 327.283ZM758.53 288.355C770.736 288.355 782.668 291.975 792.817 298.756C802.966 305.537 810.876 315.176 815.547 326.452C820.218 337.729 821.44 350.138 819.059 362.109C816.678 374.081 810.8 385.077 802.169 393.708C793.538 402.339 782.542 408.217 770.57 410.598C758.599 412.979 746.19 411.757 734.913 407.086C723.636 402.415 713.998 394.505 707.217 384.356C700.436 374.207 696.816 362.275 696.816 350.069C696.816 341.956 698.416 333.923 701.524 326.428C704.632 318.934 709.187 312.126 714.928 306.394C720.67 300.662 727.486 296.118 734.985 293.023C742.485 289.928 750.521 288.341 758.634 288.355H758.53Z" fill="#F0F0F0"/>
<path d="M538.144 531.267L551.12 542.115L574.296 518.94L563.448 505.964C569.566 496.739 573.872 486.434 576.138 475.6L593.007 474.017V441.187L576.138 439.604C573.892 428.813 569.621 418.545 563.551 409.344L574.399 396.368L551.224 373.192L538.248 384.04C529.041 377.982 518.776 373.712 507.988 371.454L506.405 354.585H473.549L471.966 371.454C461.175 373.727 450.909 378.015 441.706 384.092L428.73 373.244L405.554 396.42L416.402 409.396C410.333 418.597 406.062 428.865 403.816 439.656L386.947 441.239V473.991L403.816 475.574C406.062 486.365 410.333 496.633 416.402 505.834L405.554 518.81L428.73 541.985L441.706 531.137C450.913 537.196 461.178 541.466 471.966 543.724L473.549 560.593H506.301L507.884 543.724C518.663 541.506 528.928 537.28 538.144 531.267ZM445.599 457.641C445.599 448.868 448.201 440.292 453.075 432.997C457.95 425.703 464.878 420.018 472.984 416.662C481.09 413.306 490.009 412.429 498.613 414.143C507.217 415.856 515.12 420.083 521.322 426.288C527.524 432.494 531.746 440.399 533.454 449.004C535.163 457.609 534.281 466.528 530.92 474.632C527.559 482.736 521.87 489.661 514.573 494.531C507.276 499.401 498.698 501.998 489.925 501.993C484.102 501.993 478.336 500.846 472.956 498.617C467.576 496.387 462.689 493.12 458.572 489.001C454.456 484.882 451.191 479.993 448.965 474.612C446.739 469.231 445.595 463.464 445.599 457.641Z" fill="#F5F5F5"/>
<path d="M683.711 753.132C696.556 750.462 708.779 745.381 719.732 738.158L735.304 751.134L762.995 723.495L750.019 707.924C757.242 696.971 762.323 684.748 764.993 671.902L785.08 670.034V631.105L764.993 629.211C762.335 616.329 757.254 604.07 750.019 593.085L762.995 577.514L735.33 549.927L719.758 562.903C708.799 555.692 696.578 550.612 683.737 547.929L681.842 527.867H642.914L641.019 547.851C628.178 550.534 615.957 555.614 604.998 562.825L589.426 549.849L561.839 577.436L574.815 593.007C567.605 603.967 562.524 616.188 559.841 629.029L539.754 630.924V669.852L559.841 671.72C562.52 684.563 567.6 696.785 574.815 707.742L561.839 723.313L589.426 750.875L604.998 737.898C615.931 745.213 628.155 750.383 641.019 753.132L642.914 773.219H681.842L683.711 753.132ZM609.539 650.492C609.544 640.052 612.645 629.849 618.448 621.172C624.252 612.495 632.498 605.733 642.143 601.741C651.789 597.75 662.402 596.708 672.64 598.748C682.878 600.788 692.281 605.817 699.661 613.201C707.041 620.584 712.066 629.99 714.1 640.229C716.135 650.468 715.088 661.08 711.092 670.724C707.096 680.368 700.33 688.611 691.65 694.41C682.97 700.209 672.765 703.304 662.326 703.304C655.392 703.304 648.526 701.938 642.119 699.284C635.713 696.629 629.893 692.739 624.991 687.834C620.089 682.93 616.201 677.108 613.55 670.7C610.899 664.293 609.536 657.426 609.539 650.492Z" fill="#FAFAFA"/>
<path d="M367.128 281.24L247.741 264.929L231.429 384.315L350.816 400.627L367.128 281.24Z" fill="#F5F5F5"/>
<path d="M265.302 297.664L264.248 305.378L341.979 315.998L343.033 308.284L265.302 297.664Z" fill="#E0E0E0"/>
<path d="M261.982 321.88L260.928 329.594L338.66 340.215L339.713 332.501L261.982 321.88Z" fill="#E0E0E0"/>
<path d="M258.584 346.91L257.53 354.624L303.299 360.877L304.353 353.163L258.584 346.91Z" fill="#E0E0E0"/>
<path d="M1035.54 148.619L915.048 149.039L915.468 269.534L1035.96 269.114L1035.54 148.619Z" fill="#F0F0F0"/>
<path d="M1015.51 178.564L937.06 178.852L937.089 186.637L1015.54 186.35L1015.51 178.564Z" fill="#E0E0E0"/>
<path d="M1015.63 203.011L937.176 203.298L937.204 211.084L1015.66 210.796L1015.63 203.011Z" fill="#E0E0E0"/>
<path d="M983.436 228.406L937.242 228.575L937.27 236.361L983.465 236.191L983.436 228.406Z" fill="#E0E0E0"/>
<path d="M1107.86 442.484L988.315 457.627L1003.46 577.168L1123 562.024L1107.86 442.484Z" fill="#F5F5F5"/>
<path d="M1091.67 474.778L1013.84 484.638L1014.82 492.362L1092.65 482.502L1091.67 474.778Z" fill="#E0E0E0"/>
<path d="M1094.74 499.011L1016.91 508.871L1017.89 516.595L1095.72 506.735L1094.74 499.011Z" fill="#E0E0E0"/>
<path d="M1065.91 528.129L1020.08 533.935L1021.06 541.659L1066.89 535.853L1065.91 528.129Z" fill="#E0E0E0"/>
<path d="M466.899 636.503L346.403 636.923L346.824 757.419L467.319 756.998L466.899 636.503Z" fill="#F0F0F0"/>
<path d="M447.006 666.548L368.553 666.835L368.582 674.621L447.035 674.333L447.006 666.548Z" fill="#E0E0E0"/>
<path d="M447.096 690.994L368.643 691.282L368.671 699.068L447.124 698.78L447.096 690.994Z" fill="#E0E0E0"/>
<path d="M414.93 716.389L368.735 716.559L368.764 724.344L414.958 724.175L414.93 716.389Z" fill="#E0E0E0"/>
<path d="M999.095 695.503L878.6 695.923L879.02 816.419L999.516 815.998L999.095 695.503Z" fill="#F0F0F0"/>
<path d="M979.186 725.455L900.733 725.742L900.762 733.528L979.215 733.24L979.186 725.455Z" fill="#E0E0E0"/>
<path d="M979.302 749.901L900.849 750.188L900.877 757.974L979.33 757.687L979.302 749.901Z" fill="#E0E0E0"/>
<path d="M947.11 775.296L900.916 775.466L900.944 783.251L947.139 783.082L947.11 775.296Z" fill="#E0E0E0"/>
<path d="M491.34 140.748L373.71 166.869L399.831 284.5L517.462 258.379L491.34 140.748Z" fill="#F0F0F0"/>
<path d="M478.167 174.465L401.58 191.472L403.267 199.072L479.855 182.065L478.167 174.465Z" fill="#E0E0E0"/>
<path d="M483.478 198.338L406.89 215.345L408.577 222.946L485.165 205.939L483.478 198.338Z" fill="#E0E0E0"/>
<path d="M457.457 229.991L412.361 240.005L414.049 247.605L459.145 237.591L457.457 229.991Z" fill="#E0E0E0"/>
<path d="M257.549 277.948H255.395L252.411 264.193H260.508L257.549 277.948Z" fill="#E0E0E0"/>
<path d="M256.46 274.549C262.508 274.549 267.411 270.679 267.411 265.906C267.411 261.134 262.508 257.264 256.46 257.264C250.411 257.264 245.508 261.134 245.508 265.906C245.508 270.679 250.411 274.549 256.46 274.549Z" fill="#E6E6E6"/>
<path d="M477.702 157.868H475.548L472.589 144.139H480.686L477.702 157.868Z" fill="#E0E0E0"/>
<path d="M476.638 154.494C482.701 154.494 487.616 150.624 487.616 145.852C487.616 141.079 482.701 137.209 476.638 137.209C470.575 137.209 465.66 141.079 465.66 145.852C465.66 150.624 470.575 154.494 476.638 154.494Z" fill="#E6E6E6"/>
<path d="M973.57 161.319H971.416L968.432 147.591H976.529L973.57 161.319Z" fill="#E0E0E0"/>
<path d="M972.481 157.945C978.529 157.945 983.432 154.076 983.432 149.303C983.432 144.53 978.529 140.661 972.481 140.661C966.432 140.661 961.529 144.53 961.529 149.303C961.529 154.076 966.432 157.945 972.481 157.945Z" fill="#E6E6E6"/>
<path d="M1096.74 459.743H1094.59L1091.63 446.014H1099.72L1096.74 459.743Z" fill="#E0E0E0"/>
<path d="M1095.68 456.369C1101.72 456.369 1106.63 452.5 1106.63 447.727C1106.63 442.954 1101.72 439.085 1095.68 439.085C1089.63 439.085 1084.72 442.954 1084.72 447.727C1084.72 452.5 1089.63 456.369 1095.68 456.369Z" fill="#E6E6E6"/>
<path d="M941 709.196H938.82L935.862 695.441H943.959L941 709.196Z" fill="#E0E0E0"/>
<path d="M939.911 705.796C945.959 705.796 950.862 701.927 950.862 697.154C950.862 692.381 945.959 688.512 939.911 688.512C933.862 688.512 928.959 692.381 928.959 697.154C928.959 701.927 933.862 705.796 939.911 705.796Z" fill="#E6E6E6"/>
<path d="M403.504 647.429H401.35L398.392 633.675H406.489L403.504 647.429Z" fill="#E0E0E0"/>
<path d="M402.441 644.03C408.489 644.03 413.392 640.161 413.392 635.388C413.392 630.615 408.489 626.746 402.441 626.746C396.392 626.746 391.489 630.615 391.489 635.388C391.489 640.161 396.392 644.03 402.441 644.03Z" fill="#E6E6E6"/>
<path d="M648.805 966.875C926.708 966.875 1151.99 953.722 1151.99 937.497C1151.99 921.272 926.708 908.119 648.805 908.119C370.903 908.119 145.618 921.272 145.618 937.497C145.618 953.722 370.903 966.875 648.805 966.875Z" fill="#F5F5F5"/>
<path d="M1065.18 301.668H767.173C762.214 301.668 758.193 305.688 758.193 310.647V802.96C758.193 807.92 762.214 811.94 767.173 811.94H1065.18C1070.14 811.94 1074.16 807.92 1074.16 802.96V310.647C1074.16 305.688 1070.14 301.668 1065.18 301.668Z" fill="#407BFF"/>
<path d="M832.65 299.229H999.73C1000.17 299.229 1000.59 299.404 1000.9 299.715C1001.22 300.027 1001.39 300.449 1001.39 300.89V317.603H830.963V300.89C830.963 300.669 831.007 300.451 831.092 300.248C831.177 300.045 831.302 299.86 831.459 299.706C831.616 299.551 831.802 299.429 832.006 299.347C832.211 299.266 832.43 299.225 832.65 299.229Z" fill="#263238"/>
<path opacity="0.9" d="M1061.68 317.603H770.702V795.928H1061.68V317.603Z" fill="white"/>
<path d="M973.207 339.61H922.055L921.458 337.819C921.097 336.711 920.394 335.745 919.45 335.06C918.506 334.375 917.369 334.006 916.203 334.006C915.037 334.006 913.9 334.375 912.956 335.06C912.012 335.745 911.309 336.711 910.948 337.819L910.351 339.61H859.147C857.162 339.61 855.259 338.823 853.853 337.422C852.447 336.022 851.654 334.121 851.647 332.136V313.295C851.661 311.312 852.456 309.415 853.86 308.015C855.265 306.616 857.165 305.827 859.147 305.82H973.337C975.317 305.827 977.214 306.617 978.614 308.017C980.015 309.417 980.804 311.314 980.811 313.295V332.188C980.804 333.176 980.602 334.153 980.215 335.062C979.828 335.972 979.265 336.795 978.558 337.486C977.851 338.176 977.014 338.719 976.095 339.084C975.177 339.448 974.195 339.627 973.207 339.61ZM925.611 334.42H973.207C973.508 334.423 973.806 334.366 974.085 334.253C974.364 334.139 974.617 333.971 974.83 333.758C975.042 333.546 975.21 333.293 975.324 333.014C975.438 332.735 975.494 332.437 975.491 332.136V313.295C975.491 312.689 975.25 312.108 974.822 311.68C974.394 311.251 973.813 311.011 973.207 311.011H859.017C858.715 311.007 858.416 311.064 858.135 311.177C857.855 311.29 857.601 311.458 857.386 311.67C857.171 311.883 857 312.136 856.884 312.415C856.768 312.693 856.708 312.992 856.708 313.295V332.188C856.708 332.49 856.768 332.789 856.884 333.068C857 333.347 857.171 333.599 857.386 333.812C857.601 334.024 857.855 334.192 858.135 334.305C858.416 334.418 858.715 334.475 859.017 334.472H906.769C907.688 332.769 909.049 331.347 910.71 330.356C912.371 329.365 914.269 328.841 916.203 328.841C918.137 328.841 920.035 329.365 921.696 330.356C923.357 331.347 924.719 332.769 925.637 334.472L925.611 334.42Z" fill="#263238"/>
<g opacity="0.5">
<path d="M973.207 339.61H922.055L921.458 337.819C921.096 336.711 920.393 335.745 919.449 335.06C918.505 334.375 917.369 334.006 916.203 334.006C915.037 334.006 913.9 334.375 912.956 335.06C912.012 335.745 911.309 336.711 910.947 337.819L910.351 339.61H859.147C857.162 339.61 855.258 338.824 853.853 337.423C852.447 336.022 851.654 334.121 851.647 332.136V313.295C851.66 311.312 852.456 309.415 853.86 308.016C855.264 306.616 857.164 305.827 859.147 305.82H973.336C975.317 305.827 977.214 306.617 978.614 308.017C980.014 309.417 980.804 311.314 980.811 313.295V332.188C980.804 333.176 980.601 334.153 980.215 335.062C979.828 335.972 979.265 336.795 978.557 337.486C977.85 338.176 977.013 338.719 976.095 339.084C975.176 339.448 974.195 339.627 973.207 339.61ZM925.61 334.42H973.207C973.508 334.423 973.806 334.367 974.085 334.253C974.364 334.139 974.617 333.971 974.829 333.759C975.042 333.546 975.21 333.293 975.324 333.014C975.437 332.735 975.494 332.437 975.491 332.136V313.295C975.491 312.689 975.25 312.108 974.822 311.68C974.393 311.251 973.812 311.011 973.207 311.011H859.017C858.715 311.007 858.415 311.064 858.135 311.177C857.855 311.29 857.6 311.458 857.385 311.671C857.171 311.883 857 312.136 856.884 312.415C856.767 312.693 856.707 312.993 856.707 313.295V332.188C856.707 332.49 856.767 332.789 856.884 333.068C857 333.347 857.171 333.6 857.385 333.812C857.6 334.024 857.855 334.192 858.135 334.305C858.415 334.419 858.715 334.475 859.017 334.472H906.769C907.687 332.769 909.049 331.347 910.71 330.356C912.371 329.365 914.269 328.841 916.203 328.841C918.137 328.841 920.035 329.365 921.696 330.356C923.357 331.347 924.718 332.769 925.636 334.472L925.61 334.42Z" fill="white"/>
</g>
<path d="M965.214 302.81H867.166C865.748 302.81 864.597 303.96 864.597 305.379V311.53C864.597 312.949 865.748 314.099 867.166 314.099H965.214C966.633 314.099 967.783 312.949 967.783 311.53V305.379C967.783 303.96 966.633 302.81 965.214 302.81Z" fill="#263238"/>
<path opacity="0.2" d="M965.214 302.81H867.166C865.748 302.81 864.597 303.96 864.597 305.379V311.53C864.597 312.949 865.748 314.099 867.166 314.099H965.214C966.633 314.099 967.783 312.949 967.783 311.53V305.379C967.783 303.96 966.633 302.81 965.214 302.81Z" fill="white"/>
<path d="M1038.92 718.321C1045.93 688.636 1027.54 658.892 997.858 651.886C968.173 644.879 938.429 663.264 931.423 692.949C924.417 722.634 942.801 752.378 972.486 759.385C1002.17 766.391 1031.92 748.006 1038.92 718.321Z" fill="#407BFF"/>
<path opacity="0.3" d="M985.197 705.692H1040.42C1040.42 716.614 1037.18 727.292 1031.12 736.374C1025.05 745.455 1016.42 752.534 1006.33 756.714C996.24 760.894 985.136 761.988 974.423 759.857C963.71 757.726 953.87 752.466 946.146 744.742C938.423 737.019 933.163 727.179 931.032 716.466C928.901 705.753 929.995 694.649 934.175 684.557C938.354 674.466 945.433 665.841 954.515 659.773C963.597 653.704 974.274 650.465 985.197 650.465H985.405L985.197 705.692Z" fill="white"/>
<path opacity="0.3" d="M985.198 705.692L1014.99 752.172C1007.77 756.806 999.565 759.694 991.031 760.605C982.498 761.517 973.87 760.427 965.832 757.423C957.793 754.418 950.565 749.582 944.721 743.297C938.878 737.012 934.579 729.452 932.167 721.217C929.754 712.981 929.294 704.297 930.823 695.852C932.352 687.408 935.828 679.436 940.975 672.569C946.122 665.702 952.799 660.129 960.475 656.292C968.151 652.456 976.616 650.46 985.198 650.465H985.379L985.198 705.692Z" fill="white"/>
<path opacity="0.3" d="M985.197 705.692L938.639 735.381C933.317 727.034 930.337 717.409 930.01 707.515C929.683 697.621 932.021 687.821 936.781 679.141C941.54 670.46 948.545 663.219 957.063 658.174C965.58 653.129 975.297 650.467 985.197 650.465H985.379L985.197 705.692Z" fill="white"/>
<g opacity="0.5">
<path d="M791.672 403.271V533.603H1040.81V403.271H791.672ZM1038.76 423.618H995.656V405.217H1038.76V423.618ZM901.086 423.618H856.708V405.217H901.086V423.618ZM903.032 405.217H947.385V423.618H903.136L903.032 405.217ZM901.086 425.564V531.656H856.708V425.616L901.086 425.564ZM903.032 425.564H947.385V531.656H903.136L903.032 425.564ZM949.331 425.564H993.709V531.656H949.331V425.564ZM949.331 423.618V405.217H993.709V423.618H949.331ZM854.761 405.217V423.618H793.618V405.217H854.761ZM793.618 425.616H854.761V531.708H793.618V425.616ZM995.656 531.708V425.616H1038.76V531.708H995.656Z" fill="black"/>
<path d="M870.851 443.782H888.81C889.499 443.782 890.159 443.509 890.645 443.022C891.132 442.535 891.405 441.875 891.405 441.187C891.405 440.499 891.132 439.839 890.645 439.352C890.159 438.865 889.499 438.592 888.81 438.592H870.851C870.163 438.592 869.503 438.865 869.016 439.352C868.53 439.839 868.256 440.499 868.256 441.187C868.256 441.875 868.53 442.535 869.016 443.022C869.503 443.509 870.163 443.782 870.851 443.782Z" fill="black"/>
<path d="M916.112 467.321H935.602C936.291 467.321 936.951 467.048 937.437 466.561C937.924 466.074 938.198 465.414 938.198 464.726C938.198 464.038 937.924 463.377 937.437 462.891C936.951 462.404 936.291 462.131 935.602 462.131H916.112C915.424 462.131 914.764 462.404 914.277 462.891C913.791 463.377 913.517 464.038 913.517 464.726C913.517 465.414 913.791 466.074 914.277 466.561C914.764 467.048 915.424 467.321 916.112 467.321Z" fill="black"/>
<path d="M936.537 509.234H916.112C915.424 509.234 914.764 509.507 914.277 509.994C913.791 510.481 913.517 511.141 913.517 511.829C913.517 512.517 913.791 513.178 914.277 513.664C914.764 514.151 915.424 514.424 916.112 514.424H936.459C937.147 514.424 937.807 514.151 938.294 513.664C938.781 513.178 939.054 512.517 939.054 511.829C939.054 511.141 938.781 510.481 938.294 509.994C937.807 509.507 937.147 509.234 936.459 509.234H936.537Z" fill="black"/>
<path d="M981.693 485.669H960.231C959.542 485.669 958.882 485.943 958.396 486.429C957.909 486.916 957.635 487.576 957.635 488.264C957.635 488.953 957.909 489.613 958.396 490.1C958.882 490.586 959.542 490.86 960.231 490.86H981.745C982.433 490.86 983.093 490.586 983.58 490.1C984.067 489.613 984.34 488.953 984.34 488.264C984.34 487.576 984.067 486.916 983.58 486.429C983.093 485.943 982.433 485.669 981.745 485.669H981.693Z" fill="black"/>
<path d="M1028.12 438.592H1006.32C1005.63 438.592 1004.97 438.865 1004.49 439.352C1004 439.839 1003.73 440.499 1003.73 441.187C1003.73 441.875 1004 442.535 1004.49 443.022C1004.97 443.509 1005.63 443.782 1006.32 443.782H1028.12C1028.81 443.782 1029.47 443.509 1029.96 443.022C1030.44 442.535 1030.72 441.875 1030.72 441.187C1030.72 440.499 1030.44 439.839 1029.96 439.352C1029.47 438.865 1028.81 438.592 1028.12 438.592Z" fill="black"/>
<path d="M1025.32 509.234H1006.32C1005.63 509.234 1004.97 509.507 1004.49 509.994C1004 510.481 1003.73 511.141 1003.73 511.829C1003.73 512.517 1004 513.178 1004.49 513.664C1004.97 514.151 1005.63 514.424 1006.32 514.424H1025.32C1026.01 514.424 1026.67 514.151 1027.15 513.664C1027.64 513.178 1027.91 512.517 1027.91 511.829C1027.91 511.141 1027.64 510.481 1027.15 509.994C1026.67 509.507 1026.01 509.234 1025.32 509.234Z" fill="black"/>
<path d="M870.851 490.86H886.241C886.929 490.86 887.589 490.586 888.076 490.1C888.563 489.613 888.836 488.953 888.836 488.264C888.836 487.576 888.563 486.916 888.076 486.429C887.589 485.943 886.929 485.669 886.241 485.669H870.851C870.163 485.669 869.503 485.943 869.016 486.429C868.53 486.916 868.256 487.576 868.256 488.264C868.256 488.953 868.53 489.613 869.016 490.1C869.503 490.586 870.163 490.86 870.851 490.86Z" fill="black"/>
<path d="M888.81 509.234H870.851C870.163 509.234 869.503 509.507 869.016 509.994C868.53 510.481 868.256 511.141 868.256 511.829C868.256 512.517 868.53 513.178 869.016 513.664C869.503 514.151 870.163 514.424 870.851 514.424H888.81C889.499 514.424 890.159 514.151 890.645 513.664C891.132 513.178 891.405 512.517 891.405 511.829C891.405 511.141 891.132 510.481 890.645 509.994C890.159 509.507 889.499 509.234 888.81 509.234Z" fill="black"/>
<path d="M802.987 443.782H844.043C844.731 443.782 845.391 443.509 845.878 443.022C846.365 442.535 846.638 441.875 846.638 441.187C846.638 440.499 846.365 439.839 845.878 439.352C845.391 438.865 844.731 438.592 844.043 438.592H802.987C802.298 438.592 801.638 438.865 801.151 439.352C800.665 439.839 800.391 440.499 800.391 441.187C800.391 441.875 800.665 442.535 801.151 443.022C801.638 443.509 802.298 443.782 802.987 443.782Z" fill="black"/>
<path d="M802.987 467.321H830.314C831.003 467.321 831.663 467.048 832.149 466.561C832.636 466.074 832.909 465.414 832.909 464.726C832.909 464.038 832.636 463.377 832.149 462.891C831.663 462.404 831.003 462.131 830.314 462.131H802.987C802.298 462.131 801.638 462.404 801.151 462.891C800.665 463.377 800.391 464.038 800.391 464.726C800.391 465.414 800.665 466.074 801.151 466.561C801.638 467.048 802.298 467.321 802.987 467.321Z" fill="black"/>
<path d="M844.043 485.669H802.987C802.298 485.669 801.638 485.943 801.151 486.429C800.665 486.916 800.391 487.576 800.391 488.264C800.391 488.953 800.665 489.613 801.151 490.1C801.638 490.586 802.298 490.86 802.987 490.86H844.043C844.731 490.86 845.391 490.586 845.878 490.1C846.365 489.613 846.638 488.953 846.638 488.264C846.638 487.576 846.365 486.916 845.878 486.429C845.391 485.943 844.731 485.669 844.043 485.669Z" fill="black"/>
<path d="M823.515 509.234H802.987C802.298 509.234 801.638 509.507 801.151 509.994C800.665 510.481 800.391 511.141 800.391 511.829C800.391 512.517 800.665 513.178 801.151 513.664C801.638 514.151 802.298 514.424 802.987 514.424H823.515C824.203 514.424 824.863 514.151 825.35 513.664C825.837 513.178 826.11 512.517 826.11 511.829C826.11 511.141 825.837 510.481 825.35 509.994C824.863 509.507 824.203 509.234 823.515 509.234Z" fill="black"/>
</g>
<g opacity="0.5">
<path d="M891.432 375.943H794.267C793.579 375.943 792.918 375.67 792.432 375.183C791.945 374.696 791.672 374.036 791.672 373.348C791.672 372.66 791.945 372 792.432 371.513C792.918 371.026 793.579 370.753 794.267 370.753H891.432C892.12 370.753 892.78 371.026 893.267 371.513C893.754 372 894.027 372.66 894.027 373.348C894.027 374.036 893.754 374.696 893.267 375.183C892.78 375.67 892.12 375.943 891.432 375.943Z" fill="black"/>
</g>
<g opacity="0.5">
<path d="M857.357 390.502H794.267C793.579 390.502 792.918 390.229 792.432 389.742C791.945 389.256 791.672 388.595 791.672 387.907C791.672 387.219 791.945 386.559 792.432 386.072C792.918 385.585 793.579 385.312 794.267 385.312H857.357C858.045 385.312 858.705 385.585 859.192 386.072C859.678 386.559 859.952 387.219 859.952 387.907C859.952 388.595 859.678 389.256 859.192 389.742C858.705 390.229 858.045 390.502 857.357 390.502Z" fill="black"/>
</g>
<g opacity="0.5">
<path d="M919.642 556.103H794.267C793.579 556.103 792.918 555.83 792.432 555.343C791.945 554.856 791.672 554.196 791.672 553.508C791.672 552.82 791.945 552.159 792.432 551.673C792.918 551.186 793.579 550.913 794.267 550.913H919.642C920.33 550.913 920.99 551.186 921.477 551.673C921.964 552.159 922.237 552.82 922.237 553.508C922.237 554.196 921.964 554.856 921.477 555.343C920.99 555.83 920.33 556.103 919.642 556.103Z" fill="black"/>
</g>
<path d="M807.165 658.978H791.672V674.471H807.165V658.978Z" fill="#407BFF"/>
<g opacity="0.5">
<path d="M895.351 669.333H818.428C817.74 669.333 817.08 669.059 816.593 668.572C816.106 668.086 815.833 667.426 815.833 666.737C815.833 666.049 816.106 665.389 816.593 664.902C817.08 664.415 817.74 664.142 818.428 664.142H895.351C896.039 664.142 896.699 664.415 897.186 664.902C897.672 665.389 897.946 666.049 897.946 666.737C897.946 667.426 897.672 668.086 897.186 668.572C896.699 669.059 896.039 669.333 895.351 669.333Z" fill="black"/>
</g>
<path d="M807.165 684.956H791.672V700.45H807.165V684.956Z" fill="#407BFF"/>
<g opacity="0.5">
<path d="M895.351 695.285H818.428C817.74 695.285 817.08 695.011 816.593 694.525C816.106 694.038 815.833 693.378 815.833 692.69C815.833 692.001 816.106 691.341 816.593 690.855C817.08 690.368 817.74 690.094 818.428 690.094H895.351C896.039 690.094 896.699 690.368 897.186 690.855C897.672 691.341 897.946 692.001 897.946 692.69C897.946 693.378 897.672 694.038 897.186 694.525C896.699 695.011 896.039 695.285 895.351 695.285Z" fill="black"/>
</g>
<path d="M807.165 710.908H791.672V726.402H807.165V710.908Z" fill="#407BFF"/>
<g opacity="0.5">
<path d="M895.351 721.263H818.428C817.74 721.263 817.08 720.99 816.593 720.503C816.106 720.016 815.833 719.356 815.833 718.668C815.833 717.98 816.106 717.32 816.593 716.833C817.08 716.346 817.74 716.073 818.428 716.073H895.351C896.039 716.073 896.699 716.346 897.186 716.833C897.672 717.32 897.946 717.98 897.946 718.668C897.946 719.356 897.672 720.016 897.186 720.503C896.699 720.99 896.039 721.263 895.351 721.263Z" fill="black"/>
</g>
<path d="M807.165 736.886H791.672V752.38H807.165V736.886Z" fill="#407BFF"/>
<g opacity="0.5">
<path d="M895.351 747.241H818.428C817.74 747.241 817.08 746.968 816.593 746.481C816.106 745.995 815.833 745.335 815.833 744.646C815.833 743.958 816.106 743.298 816.593 742.811C817.08 742.324 817.74 742.051 818.428 742.051H895.351C896.039 742.051 896.699 742.324 897.186 742.811C897.672 743.298 897.946 743.958 897.946 744.646C897.946 745.335 897.672 745.995 897.186 746.481C896.699 746.968 896.039 747.241 895.351 747.241Z" fill="black"/>
</g>
<g opacity="0.5">
<path d="M1037.26 579.305H812.148C811.459 579.305 810.799 579.031 810.313 578.545C809.826 578.058 809.552 577.398 809.552 576.709C809.552 576.021 809.826 575.361 810.313 574.874C810.799 574.388 811.459 574.114 812.148 574.114H1037.26C1037.95 574.114 1038.61 574.388 1039.09 574.874C1039.58 575.361 1039.85 576.021 1039.85 576.709C1039.85 577.398 1039.58 578.058 1039.09 578.545C1038.61 579.031 1037.95 579.305 1037.26 579.305Z" fill="black"/>
<path d="M1037.54 592.307H794.266C793.578 592.307 792.918 592.033 792.431 591.547C791.944 591.06 791.671 590.4 791.671 589.712C791.671 589.023 791.944 588.363 792.431 587.877C792.918 587.39 793.578 587.116 794.266 587.116H1037.54C1038.23 587.116 1038.89 587.39 1039.38 587.877C1039.86 588.363 1040.14 589.023 1040.14 589.712C1040.14 590.4 1039.86 591.06 1039.38 591.547C1038.89 592.033 1038.23 592.307 1037.54 592.307Z" fill="black"/>
<path d="M1037.83 605.309H794.551C793.863 605.309 793.203 605.035 792.716 604.549C792.229 604.062 791.956 603.402 791.956 602.714C791.956 602.025 792.229 601.365 792.716 600.879C793.203 600.392 793.863 600.118 794.551 600.118H1037.83C1038.52 600.118 1039.18 600.392 1039.66 600.879C1040.15 601.365 1040.42 602.025 1040.42 602.714C1040.42 603.402 1040.15 604.062 1039.66 604.549C1039.18 605.035 1038.52 605.309 1037.83 605.309Z" fill="black"/>
<path d="M1001.75 618.311H794.837C794.149 618.311 793.489 618.037 793.002 617.55C792.515 617.064 792.242 616.404 792.242 615.715C792.242 615.027 792.515 614.367 793.002 613.88C793.489 613.394 794.149 613.12 794.837 613.12H1001.75C1002.44 613.12 1003.1 613.394 1003.59 613.88C1004.08 614.367 1004.35 615.027 1004.35 615.715C1004.35 616.404 1004.08 617.064 1003.59 617.55C1003.1 618.037 1002.44 618.311 1001.75 618.311Z" fill="black"/>
</g>
<path opacity="0.3" d="M807.165 684.956H791.672V700.45H807.165V684.956Z" fill="white"/>
<path opacity="0.5" d="M807.165 710.908H791.672V726.402H807.165V710.908Z" fill="white"/>
<path opacity="0.7" d="M807.165 736.886H791.672V752.38H807.165V736.886Z" fill="white"/>
<path d="M1057.32 877.833C1057.32 877.833 1044.99 850.946 1059.08 824.423C1073.17 797.9 1077.25 791.671 1068.27 786.247C1059.29 780.823 1055.16 807.45 1055.16 807.45C1050.72 795.403 1050.27 782.248 1053.87 769.923C1060.09 750.745 1064.01 719.498 1055.5 716.15C1046.99 712.803 1053.87 755.079 1046.44 769.56C1042.68 759.424 1040.25 748.842 1039.2 738.08C1038.19 722.69 1039.77 698.088 1033.05 691.781C1026.33 685.475 1022 689.835 1028.61 723.832C1032.59 744.148 1034.79 764.771 1035.18 785.469C1035.18 785.469 1020.57 740.857 1010.73 739.559C1000.9 738.262 1000.92 752.717 1009.33 765.252C1017.74 777.787 1033.96 800.21 1036.61 811.758C1036.61 811.758 1020.54 778.202 1006.11 788.401C991.685 798.601 1018.68 818.973 1030.72 826.292C1042.76 833.61 1051.06 879.623 1051.06 879.623L1057.32 877.833Z" fill="#407BFF"/>
<path opacity="0.2" d="M1057.32 877.833C1057.32 877.833 1044.99 850.946 1059.08 824.423C1073.17 797.9 1077.25 791.671 1068.27 786.247C1059.29 780.823 1055.16 807.45 1055.16 807.45C1050.72 795.403 1050.27 782.248 1053.87 769.923C1060.09 750.745 1064.01 719.498 1055.5 716.15C1046.99 712.803 1053.87 755.079 1046.44 769.56C1042.68 759.424 1040.25 748.842 1039.2 738.08C1038.19 722.69 1039.77 698.088 1033.05 691.781C1026.33 685.475 1022 689.835 1028.61 723.832C1032.59 744.148 1034.79 764.771 1035.18 785.469C1035.18 785.469 1020.57 740.857 1010.73 739.559C1000.9 738.262 1000.92 752.717 1009.33 765.252C1017.74 777.787 1033.96 800.21 1036.61 811.758C1036.61 811.758 1020.54 778.202 1006.11 788.401C991.685 798.601 1018.68 818.973 1030.72 826.292C1042.76 833.61 1051.06 879.623 1051.06 879.623L1057.32 877.833Z" fill="black"/>
<path d="M1047.59 888.862C1047.59 888.862 1059.6 861.794 1045.2 835.505C1030.79 809.215 1026.64 803.012 1035.54 797.433C1044.45 791.853 1048.91 818.454 1048.91 818.454C1053.21 806.36 1053.51 793.204 1049.77 780.927C1043.3 761.826 1039 730.658 1047.48 727.18C1055.97 723.703 1049.58 766.108 1057.16 780.434C1060.81 770.256 1063.12 759.649 1064.04 748.876C1064.87 733.435 1062.98 708.858 1069.65 702.448C1076.31 696.037 1080.67 700.346 1074.45 734.447C1070.72 754.819 1068.77 775.477 1068.63 796.187C1068.63 796.187 1082.73 751.368 1092.59 750.018C1102.45 748.668 1102.55 762.994 1094.3 775.659C1086.05 788.323 1070.11 811.006 1067.59 822.58C1067.59 822.58 1083.17 788.843 1097.8 798.86C1112.44 808.878 1085.61 829.613 1073.67 837.114C1061.73 844.614 1053.89 890.653 1053.89 890.653L1047.59 888.862Z" fill="#407BFF"/>
<path d="M1102.97 869.58H1003.8L1011.82 940.533H1094.92L1102.97 869.58Z" fill="#263238"/>
<path d="M504.147 261.001H578.734C584.818 261.001 590.654 263.418 594.956 267.721C599.258 272.023 601.675 277.859 601.675 283.943V348.824C601.675 354.908 599.258 360.743 594.956 365.046C590.654 369.348 584.818 371.765 578.734 371.765H556.934L564.72 400.053L541.363 371.765H504.147C501.132 371.769 498.146 371.178 495.36 370.026C492.573 368.875 490.041 367.186 487.908 365.055C485.775 362.924 484.083 360.394 482.928 357.609C481.774 354.824 481.179 351.838 481.179 348.824V283.943C481.179 280.928 481.774 277.943 482.928 275.158C484.083 272.373 485.775 269.842 487.908 267.712C490.041 265.581 492.573 263.892 495.36 262.74C498.146 261.589 501.132 260.998 504.147 261.001Z" fill="#407BFF"/>
<path opacity="0.7" d="M504.147 261.001H578.734C584.818 261.001 590.654 263.418 594.956 267.721C599.258 272.023 601.675 277.859 601.675 283.943V348.824C601.675 354.908 599.258 360.743 594.956 365.046C590.654 369.348 584.818 371.765 578.734 371.765H556.934L564.72 400.053L541.363 371.765H504.147C501.132 371.769 498.146 371.178 495.36 370.026C492.573 368.875 490.041 367.186 487.908 365.055C485.775 362.924 484.083 360.394 482.928 357.609C481.774 354.824 481.179 351.838 481.179 348.824V283.943C481.179 280.928 481.774 277.943 482.928 275.158C484.083 272.373 485.775 269.842 487.908 267.712C490.041 265.581 492.573 263.892 495.36 262.74C498.146 261.589 501.132 260.998 504.147 261.001Z" fill="white"/>
<path opacity="0.7" d="M530.151 330.527C542.979 330.527 553.378 320.128 553.378 307.3C553.378 294.472 542.979 284.073 530.151 284.073C517.323 284.073 506.924 294.472 506.924 307.3C506.924 320.128 517.323 330.527 530.151 330.527Z" fill="white"/>
<path d="M530.151 333.875C524.004 333.87 518.048 331.734 513.299 327.831C508.55 323.928 505.301 318.499 504.106 312.469C502.91 306.439 503.841 300.181 506.742 294.762C509.642 289.342 514.332 285.095 520.012 282.744C525.692 280.394 532.011 280.085 537.893 281.871C543.776 283.657 548.857 287.427 552.271 292.538C555.686 297.65 557.223 303.787 556.62 309.905C556.017 316.023 553.313 321.742 548.966 326.089C546.498 328.563 543.565 330.524 540.336 331.86C537.107 333.196 533.646 333.881 530.151 333.875ZM530.151 287.447C525.558 287.447 521.107 289.041 517.557 291.955C514.007 294.87 511.577 298.925 510.682 303.43C509.786 307.935 510.481 312.611 512.647 316.661C514.812 320.712 518.316 323.886 522.559 325.643C526.803 327.4 531.525 327.632 535.92 326.298C540.315 324.964 544.112 322.147 546.663 318.328C549.215 314.508 550.363 309.923 549.912 305.352C549.461 300.781 547.439 296.507 544.191 293.26C542.352 291.409 540.164 289.943 537.754 288.945C535.344 287.947 532.76 287.438 530.151 287.447Z" fill="#407BFF"/>
<path d="M548.973 321.34L544.202 326.111L570.682 352.592L575.453 347.821L548.973 321.34Z" fill="#407BFF"/>
<path d="M575.905 358.14C574.565 358.128 573.281 357.598 572.323 356.661L552.107 336.444C551.601 335.984 551.195 335.426 550.911 334.804C550.628 334.182 550.473 333.509 550.457 332.826C550.44 332.143 550.563 331.463 550.816 330.828C551.069 330.194 551.449 329.617 551.931 329.133C552.413 328.648 552.989 328.267 553.623 328.011C554.257 327.756 554.936 327.631 555.619 327.645C556.302 327.659 556.976 327.811 557.599 328.092C558.222 328.374 558.781 328.778 559.243 329.281L579.486 349.524C580.186 350.233 580.661 351.133 580.852 352.111C581.043 353.089 580.94 354.102 580.558 355.022C580.175 355.942 579.53 356.729 578.702 357.284C577.874 357.838 576.901 358.136 575.905 358.14Z" fill="#407BFF"/>
<path d="M533.758 296.789C533.758 297.816 533.454 298.82 532.884 299.673C532.313 300.527 531.503 301.192 530.554 301.585C529.606 301.978 528.562 302.08 527.555 301.88C526.548 301.68 525.624 301.186 524.898 300.46C524.172 299.734 523.677 298.809 523.477 297.802C523.277 296.795 523.38 295.752 523.773 294.803C524.165 293.855 524.831 293.044 525.684 292.474C526.538 291.903 527.541 291.599 528.568 291.599C529.944 291.599 531.265 292.146 532.238 293.119C533.211 294.093 533.758 295.413 533.758 296.789Z" fill="white"/>
<path d="M541.466 300.578C541.466 301.092 541.314 301.593 541.029 302.02C540.744 302.447 540.338 302.78 539.864 302.976C539.39 303.172 538.868 303.224 538.365 303.124C537.861 303.024 537.399 302.776 537.036 302.413C536.673 302.05 536.426 301.588 536.325 301.085C536.225 300.581 536.277 300.059 536.473 299.585C536.67 299.111 537.002 298.706 537.429 298.42C537.856 298.135 538.358 297.983 538.871 297.983C539.559 297.983 540.219 298.257 540.706 298.743C541.193 299.23 541.466 299.89 541.466 300.578Z" fill="white"/>
<path d="M749.448 738.236H362.917V800.443H749.448V738.236Z" fill="#407BFF"/>
<path opacity="0.8" d="M749.448 738.236H362.917V800.443H749.448V738.236Z" fill="white"/>
<path opacity="0.2" d="M749.448 754.69V749.629L484.814 751.731L749.448 754.69Z" fill="black"/>
<path opacity="0.2" d="M749.448 776.489V772.57L630.639 776.826L749.448 776.489Z" fill="black"/>
<path opacity="0.2" d="M749.448 791.075V786.014L557.895 788.947L749.448 791.075Z" fill="black"/>
<path opacity="0.2" d="M449.337 738.236L443.783 784.613L450.401 777.554C452.625 786.02 456.783 793.855 462.547 800.443C466.681 795.027 469.971 789.016 472.305 782.614L652.828 780.538L474.017 776.619C474.573 774.061 474.86 771.452 474.874 768.834C474.865 766.665 474.656 764.502 474.251 762.372L739.119 761.697L473.628 759.621C472.694 756.127 471.389 752.742 469.735 749.525C473.554 746.158 478.477 744.31 483.568 744.335H749.448V738.236H449.337Z" fill="black"/>
<path d="M455.306 768.989C455.327 776.446 458.301 783.591 463.579 788.859C468.857 794.127 476.007 797.089 483.464 797.095H753.912C754.184 797.095 754.454 797.149 754.706 797.253C754.958 797.358 755.187 797.511 755.38 797.704C755.573 797.896 755.726 798.125 755.83 798.377C755.934 798.629 755.988 798.899 755.988 799.172V801.403C755.988 801.954 755.769 802.482 755.38 802.872C754.99 803.261 754.462 803.48 753.912 803.48H354.404C349.847 803.48 345.335 802.578 341.129 800.825C336.922 799.073 333.104 796.505 329.896 793.269C326.687 790.034 324.15 786.195 322.432 781.974C320.715 777.754 319.85 773.234 319.887 768.678C320.112 759.467 323.95 750.714 330.573 744.31C337.197 737.905 346.073 734.362 355.286 734.447H753.912C754.462 734.447 754.99 734.666 755.38 735.055C755.769 735.444 755.988 735.972 755.988 736.523V738.729C755.988 739.28 755.769 739.808 755.38 740.197C754.99 740.586 754.462 740.805 753.912 740.805H484.295C476.74 740.789 469.478 743.728 464.061 748.995C458.645 754.261 455.502 761.437 455.306 768.989Z" fill="#407BFF"/>
<path opacity="0.4" d="M455.306 768.989C455.327 776.446 458.301 783.591 463.579 788.859C468.857 794.127 476.007 797.089 483.464 797.095H753.912C754.184 797.095 754.454 797.149 754.706 797.253C754.958 797.358 755.187 797.511 755.38 797.704C755.573 797.896 755.726 798.125 755.83 798.377C755.934 798.629 755.988 798.899 755.988 799.172V801.403C755.988 801.954 755.769 802.482 755.38 802.872C754.99 803.261 754.462 803.48 753.912 803.48H354.404C349.847 803.48 345.335 802.578 341.129 800.825C336.922 799.073 333.104 796.505 329.896 793.269C326.687 790.034 324.15 786.195 322.432 781.974C320.715 777.754 319.85 773.234 319.887 768.678C320.112 759.467 323.95 750.714 330.573 744.31C337.197 737.905 346.073 734.362 355.286 734.447H753.912C754.462 734.447 754.99 734.666 755.38 735.055C755.769 735.444 755.988 735.972 755.988 736.523V738.729C755.988 739.28 755.769 739.808 755.38 740.197C754.99 740.586 754.462 740.805 753.912 740.805H484.295C476.74 740.789 469.478 743.728 464.061 748.995C458.645 754.261 455.502 761.437 455.306 768.989Z" fill="white"/>
<path d="M455.306 768.989C455.327 776.446 458.301 783.591 463.579 788.859C468.857 794.127 476.007 797.089 483.464 797.095H753.912C754.184 797.095 754.454 797.149 754.706 797.253C754.958 797.358 755.187 797.511 755.38 797.703C755.573 797.896 755.726 798.125 755.83 798.377C755.934 798.629 755.988 798.899 755.988 799.171V801.403C755.988 801.954 755.769 802.482 755.38 802.871C754.99 803.261 754.462 803.48 753.912 803.48H481.907C477.35 803.476 472.838 802.572 468.632 800.819C464.426 799.065 460.608 796.498 457.397 793.263C454.187 790.029 451.648 786.191 449.926 781.972C448.204 777.753 447.334 773.235 447.365 768.678C447.602 759.48 451.437 750.743 458.047 744.343C464.656 737.942 473.511 734.389 482.711 734.447H753.912C754.462 734.447 754.99 734.665 755.38 735.055C755.769 735.444 755.988 735.972 755.988 736.523V738.729C755.988 739.279 755.769 739.808 755.38 740.197C754.99 740.586 754.462 740.805 753.912 740.805H484.295C476.74 740.789 469.478 743.728 464.061 748.994C458.645 754.261 455.502 761.437 455.306 768.989Z" fill="#407BFF"/>
<path d="M506.224 752.224V777.164L515.255 768.133L524.001 776.879V752.224H506.224Z" fill="#263238"/>
<path opacity="0.6" d="M455.306 768.989C455.327 776.446 458.301 783.591 463.579 788.859C468.857 794.127 476.007 797.089 483.464 797.095H753.912C754.184 797.095 754.454 797.149 754.706 797.253C754.958 797.358 755.187 797.511 755.38 797.703C755.573 797.896 755.726 798.125 755.83 798.377C755.934 798.629 755.988 798.899 755.988 799.171V801.403C755.988 801.954 755.769 802.482 755.38 802.871C754.99 803.261 754.462 803.48 753.912 803.48H481.907C477.35 803.476 472.838 802.572 468.632 800.819C464.426 799.065 460.608 796.498 457.397 793.263C454.187 790.029 451.648 786.191 449.926 781.972C448.204 777.753 447.334 773.235 447.365 768.678C447.602 759.48 451.437 750.743 458.047 744.343C464.656 737.942 473.511 734.389 482.711 734.447H753.912C754.462 734.447 754.99 734.665 755.38 735.055C755.769 735.444 755.988 735.972 755.988 736.523V738.729C755.988 739.279 755.769 739.808 755.38 740.197C754.99 740.586 754.462 740.805 753.912 740.805H484.295C476.74 740.789 469.478 743.728 464.061 748.994C458.645 754.261 455.502 761.437 455.306 768.989Z" fill="white"/>
<path d="M768.108 875.315H381.576V937.523H768.108V875.315Z" fill="#407BFF"/>
<path opacity="0.7" d="M768.108 875.315H381.576V937.523H768.108V875.315Z" fill="white"/>
<path opacity="0.2" d="M768.107 891.743V886.682L503.473 888.81L768.107 891.743Z" fill="black"/>
<path opacity="0.2" d="M768.108 913.543V909.65L649.299 913.88L768.108 913.543Z" fill="black"/>
<path opacity="0.2" d="M768.108 928.128V923.093L576.555 926L768.108 928.128Z" fill="black"/>
<path opacity="0.2" d="M467.996 875.315L462.391 921.692L469.008 914.633C471.257 923.095 475.421 930.927 481.18 937.523C485.296 932.089 488.576 926.071 490.912 919.668L671.436 917.592L492.625 913.699C493.186 911.141 493.481 908.532 493.507 905.913C493.489 903.744 493.272 901.581 492.859 899.451L757.804 898.854L492.288 896.778C491.353 893.292 490.048 889.916 488.395 886.708C492.194 883.294 497.119 881.4 502.227 881.388H768.185V875.315H467.996Z" fill="black"/>
<path d="M473.966 906.043C473.952 909.748 474.67 913.42 476.08 916.846C477.489 920.273 479.561 923.388 482.178 926.012C484.794 928.635 487.903 930.716 491.326 932.135C494.749 933.554 498.419 934.282 502.124 934.279H772.572C773.122 934.279 773.65 934.498 774.04 934.887C774.429 935.276 774.648 935.804 774.648 936.355V938.587C774.648 939.137 774.429 939.666 774.04 940.055C773.65 940.444 773.122 940.663 772.572 940.663H351.809C347.256 940.656 342.749 939.75 338.548 937.997C334.346 936.244 330.532 933.678 327.325 930.447C324.118 927.215 321.581 923.382 319.859 919.168C318.137 914.953 317.265 910.44 317.292 905.887C317.51 896.665 321.348 887.899 327.977 881.484C334.606 875.069 343.493 871.52 352.717 871.604H772.572C773.122 871.604 773.65 871.823 774.04 872.212C774.429 872.602 774.648 873.13 774.648 873.68V875.912C774.648 876.463 774.429 876.991 774.04 877.38C773.65 877.77 773.122 877.988 772.572 877.988H502.954C495.421 877.971 488.179 880.893 482.765 886.131C477.352 891.37 474.195 898.513 473.966 906.043Z" fill="#263238"/>
<path opacity="0.2" d="M473.966 906.043C473.952 909.748 474.67 913.42 476.08 916.846C477.489 920.273 479.561 923.388 482.178 926.012C484.794 928.635 487.903 930.716 491.326 932.135C494.749 933.554 498.419 934.282 502.124 934.279H772.572C773.122 934.279 773.65 934.498 774.04 934.887C774.429 935.276 774.648 935.804 774.648 936.355V938.587C774.648 939.137 774.429 939.666 774.04 940.055C773.65 940.444 773.122 940.663 772.572 940.663H351.809C347.256 940.656 342.749 939.75 338.548 937.997C334.346 936.244 330.532 933.678 327.325 930.447C324.118 927.215 321.581 923.382 319.859 919.168C318.137 914.953 317.265 910.44 317.292 905.887C317.51 896.665 321.348 887.899 327.977 881.484C334.606 875.069 343.493 871.52 352.717 871.604H772.572C773.122 871.604 773.65 871.823 774.04 872.212C774.429 872.602 774.648 873.13 774.648 873.68V875.912C774.648 876.463 774.429 876.991 774.04 877.38C773.65 877.77 773.122 877.988 772.572 877.988H502.954C495.421 877.971 488.179 880.893 482.765 886.131C477.352 891.37 474.195 898.513 473.966 906.043Z" fill="white"/>
<path d="M473.966 906.043C473.953 909.748 474.671 913.42 476.08 916.846C477.489 920.273 479.562 923.388 482.178 926.012C484.795 928.635 487.904 930.716 491.327 932.135C494.75 933.554 498.419 934.282 502.124 934.279H772.572C773.123 934.279 773.651 934.498 774.04 934.887C774.429 935.276 774.648 935.804 774.648 936.355V938.587C774.648 939.137 774.429 939.666 774.04 940.055C773.651 940.444 773.123 940.663 772.572 940.663H500.567C496.013 940.663 491.503 939.762 487.298 938.011C483.093 936.26 479.277 933.694 476.068 930.462C472.86 927.229 470.323 923.393 468.603 919.176C466.884 914.958 466.017 910.442 466.051 905.887C466.262 896.667 470.094 887.901 476.719 881.486C483.344 875.07 492.228 871.52 501.45 871.604H772.572C773.123 871.604 773.651 871.823 774.04 872.212C774.429 872.602 774.648 873.13 774.648 873.68V875.912C774.648 876.463 774.429 876.991 774.04 877.38C773.651 877.77 773.123 877.988 772.572 877.988H502.955C495.422 877.971 488.179 880.893 482.766 886.131C477.353 891.37 474.196 898.513 473.966 906.043Z" fill="#263238"/>
<path d="M503.473 898.153V923.093L512.478 914.062L521.224 922.808V898.153H503.473Z" fill="#407BFF"/>
<path opacity="0.4" d="M473.966 906.043C473.953 909.748 474.671 913.42 476.08 916.846C477.489 920.273 479.562 923.388 482.178 926.012C484.795 928.635 487.904 930.716 491.327 932.135C494.75 933.554 498.419 934.282 502.124 934.279H772.572C773.123 934.279 773.651 934.498 774.04 934.887C774.429 935.276 774.648 935.804 774.648 936.355V938.587C774.648 939.137 774.429 939.666 774.04 940.055C773.651 940.444 773.123 940.663 772.572 940.663H500.567C496.013 940.663 491.503 939.762 487.298 938.011C483.093 936.26 479.277 933.694 476.068 930.462C472.86 927.229 470.323 923.393 468.603 919.176C466.884 914.958 466.017 910.442 466.051 905.887C466.262 896.667 470.094 887.901 476.719 881.486C483.344 875.07 492.228 871.52 501.45 871.604H772.572C773.123 871.604 773.651 871.823 774.04 872.212C774.429 872.602 774.648 873.13 774.648 873.68V875.912C774.648 876.463 774.429 876.991 774.04 877.38C773.651 877.77 773.123 877.988 772.572 877.988H502.955C495.422 877.971 488.179 880.893 482.766 886.131C477.353 891.37 474.196 898.513 473.966 906.043Z" fill="white"/>
<path d="M346.8 868.879H490.004V806.75H346.8V868.879Z" fill="#407BFF"/>
<path opacity="0.8" d="M346.8 868.879H490.004V806.75H346.8V868.879Z" fill="white"/>
<path opacity="0.2" d="M478.533 812.848H346.8V806.776H478.378L478.533 812.848Z" fill="black"/>
<path opacity="0.2" d="M478.534 818.143L359.698 820.686L478.534 823.203V818.143Z" fill="black"/>
<path opacity="0.2" d="M478.533 841.11L352.691 843.238L478.533 845.029V841.11Z" fill="black"/>
<path opacity="0.2" d="M478.533 854.553L353.807 857.071L478.533 859.588V854.553Z" fill="black"/>
<path opacity="0.2" d="M346.8 826.992L467.452 830.625L346.8 833.169V826.992Z" fill="black"/>
<path d="M666.427 837.503C666.413 844.964 663.441 852.116 658.163 857.39C652.885 862.663 645.73 865.628 638.269 865.635H340.182C339.632 865.635 339.103 865.854 338.714 866.243C338.325 866.633 338.106 867.161 338.106 867.711V869.917C338.106 870.468 338.325 870.996 338.714 871.385C339.103 871.775 339.632 871.994 340.182 871.994H639.826C644.383 872.001 648.896 871.104 653.103 869.356C657.311 867.607 661.131 865.042 664.341 861.808C667.551 858.574 670.087 854.735 671.804 850.514C673.521 846.293 674.384 841.774 674.342 837.218C674.131 827.998 670.299 819.232 663.674 812.816C657.05 806.4 648.165 802.851 638.944 802.935H340.182C339.632 802.935 339.103 803.154 338.714 803.543C338.325 803.932 338.106 804.46 338.106 805.011V807.243C338.106 807.793 338.325 808.322 338.714 808.711C339.103 809.1 339.632 809.319 340.182 809.319H637.438C644.993 809.303 652.255 812.242 657.672 817.508C663.088 822.775 666.231 829.951 666.427 837.503Z" fill="#263238"/>
<path opacity="0.4" d="M666.427 837.503C666.413 844.964 663.441 852.116 658.163 857.39C652.885 862.663 645.73 865.628 638.269 865.635H340.182C339.632 865.635 339.103 865.854 338.714 866.243C338.325 866.633 338.106 867.161 338.106 867.711V869.917C338.106 870.468 338.325 870.996 338.714 871.385C339.103 871.775 339.632 871.994 340.182 871.994H639.826C644.383 872.001 648.896 871.104 653.103 869.356C657.311 867.607 661.131 865.042 664.341 861.808C667.551 858.574 670.087 854.735 671.804 850.514C673.521 846.293 674.384 841.774 674.342 837.218C674.131 827.998 670.299 819.232 663.674 812.816C657.05 806.4 648.165 802.851 638.944 802.935H340.182C339.632 802.935 339.103 803.154 338.714 803.543C338.325 803.932 338.106 804.46 338.106 805.011V807.243C338.106 807.793 338.325 808.322 338.714 808.711C339.103 809.1 339.632 809.319 340.182 809.319H637.438C644.993 809.303 652.255 812.242 657.672 817.508C663.088 822.775 666.231 829.951 666.427 837.503Z" fill="white"/>
<path d="M775.14 837.867C775.14 846.126 771.859 854.047 766.019 859.888C760.178 865.728 752.257 869.009 743.998 869.009H478.533V806.724H744.024C752.279 806.731 760.193 810.015 766.028 815.855C771.863 821.694 775.14 829.611 775.14 837.867Z" fill="#407BFF"/>
<path opacity="0.7" d="M478.533 806.776V869.061H744.05C752.309 869.061 760.23 865.78 766.071 859.939C771.911 854.099 775.192 846.178 775.192 837.918C775.192 829.659 771.911 821.737 766.071 815.897C760.23 810.057 752.309 806.776 744.05 806.776H478.533Z" fill="white"/>
<path opacity="0.2" d="M478.533 823.203V818.143L743.167 820.271L478.533 823.203Z" fill="black"/>
<path opacity="0.2" d="M478.533 845.029V841.11L597.342 845.366L478.533 845.029Z" fill="black"/>
<path opacity="0.2" d="M478.533 859.588V854.553L670.086 857.46L478.533 859.588Z" fill="black"/>
<path opacity="0.2" d="M744.465 812.848C749.573 812.86 754.498 814.754 758.297 818.169C756.643 821.388 755.329 824.771 754.379 828.264L488.888 830.34L753.782 830.989C753.368 833.127 753.151 835.299 753.133 837.477C753.138 840.098 753.442 842.711 754.041 845.263L575.205 849.156L755.702 851.258C757.266 855.564 759.275 859.696 761.697 863.585C767.13 859.804 771.218 854.391 773.366 848.131C775.515 841.87 775.613 835.088 773.646 828.768C771.679 822.447 767.749 816.918 762.428 812.983C757.106 809.047 750.669 806.909 744.05 806.879H478.533V812.952L744.465 812.848Z" fill="black"/>
<path d="M772.675 837.503C772.662 844.964 769.69 852.116 764.411 857.39C759.133 862.663 751.979 865.628 744.517 865.635H474.07C473.519 865.635 472.991 865.854 472.602 866.243C472.212 866.633 471.993 867.161 471.993 867.711V869.917C471.993 870.468 472.212 870.996 472.602 871.385C472.991 871.775 473.519 871.994 474.07 871.994H746.074C750.631 872.001 755.144 871.104 759.352 869.356C763.56 867.607 767.379 865.042 770.589 861.808C773.799 858.574 776.336 854.735 778.052 850.514C779.769 846.293 780.632 841.774 780.591 837.218C780.38 827.998 776.547 819.232 769.923 812.816C763.298 806.4 754.414 802.851 745.192 802.935H474.07C473.519 802.935 472.991 803.154 472.602 803.543C472.212 803.932 471.993 804.46 471.993 805.011V807.243C471.993 807.793 472.212 808.322 472.602 808.711C472.991 809.1 473.519 809.319 474.07 809.319H743.687C751.242 809.303 758.503 812.242 763.92 817.508C769.337 822.775 772.479 829.951 772.675 837.503Z" fill="#263238"/>
<path d="M743.168 829.613V854.553L734.136 845.522L725.39 854.268V829.613H743.168Z" fill="#407BFF"/>
<path d="M813.316 479.051H806.828C805.623 479.076 804.441 479.388 803.38 479.961C802.319 480.534 801.411 481.352 800.73 482.347L794.293 491.742C793.016 493.598 792.203 495.733 791.923 497.969C791.643 500.204 791.904 502.475 792.684 504.588L793.671 507.183C804.441 507.702 816.482 500.332 816.482 500.332L820.168 498.619C820.929 498.287 821.617 497.807 822.192 497.208C822.766 496.608 823.216 495.9 823.516 495.126C823.815 494.351 823.957 493.524 823.935 492.694C823.913 491.864 823.726 491.046 823.386 490.289L820.09 483.152C819.476 481.889 818.51 480.83 817.308 480.102C816.106 479.375 814.72 479.01 813.316 479.051Z" fill="#EEC1BB"/>
<path d="M690.329 490.496C706.99 503.965 724.975 516.942 744.828 524.883L742.363 524.364C744.179 524.805 748.954 522.988 751.446 521.769C765.304 515.021 778.436 504.9 790.893 495.661C792.168 494.738 793.731 494.301 795.3 494.431C796.869 494.56 798.339 495.246 799.446 496.365C800.553 497.485 801.222 498.963 801.334 500.533C801.446 502.103 800.992 503.661 800.054 504.926C787.623 520.497 759.647 552.133 737.484 547.513C713.192 540.273 691.73 526.751 672.603 510.22C660.198 498.282 676.833 479.622 690.329 490.496Z" fill="#EBC0BB"/>
<path d="M655.372 472.148C649.299 489.069 659.083 505.886 682.622 525.688C694.326 523.949 710.131 499.943 710.131 499.943C710.131 499.943 677.016 466.828 655.372 472.148Z" fill="#407BFF"/>
<path d="M675.614 367.042C675.614 367.042 652.439 343.321 622.231 373.089C592.022 402.856 586.131 501.474 586.131 501.474L664.974 516.786C664.974 516.786 675.173 505.081 680.416 471.318C685.658 437.554 688.435 405.269 695.079 397.743C701.722 390.217 675.614 367.042 675.614 367.042Z" fill="#263238"/>
<path d="M743.323 866.466L726.247 859.666L732.916 834.778L739.067 811.94L760.659 816.715L751.498 843.057L743.323 866.466Z" fill="#EEC1BB"/>
<path opacity="0.2" d="M751.291 843.602L732.735 835.245L738.99 812.174L760.608 816.845L751.291 843.602Z" fill="black"/>
<path d="M614.108 642.213C614.108 642.213 756.845 622.956 796.499 648.286C836.154 673.615 759.362 827.875 759.362 827.875L735.33 822.684C735.33 822.684 753.341 700.398 751.991 695.285C750.642 690.172 683.426 723.521 591.425 726.687L614.108 642.213Z" fill="#263238"/>
<path opacity="0.2" d="M614.108 642.213C614.108 642.213 756.845 622.956 796.499 648.286C836.154 673.615 759.362 827.875 759.362 827.875L735.33 822.684C735.33 822.684 753.341 700.398 751.991 695.285C750.642 690.172 683.426 723.521 591.425 726.687L614.108 642.213Z" fill="black"/>
<path d="M734.007 814.899L764.241 824.709L758.817 838.489L731.048 829.043L734.007 814.899Z" fill="#263238"/>
<path d="M759.128 870.306C755.858 870.306 750.097 865.116 748.903 863.87C748.834 863.805 748.781 863.725 748.747 863.637V863.481C748.742 863.316 748.787 863.153 748.877 863.014C749.033 862.832 752.822 857.823 756.455 857.668C757.004 857.612 757.559 857.678 758.08 857.862C758.6 858.046 759.074 858.343 759.466 858.732C760.374 859.588 760.685 860.419 760.374 861.197C759.881 862.443 757.779 863.118 755.417 863.533C757.328 863.805 759.126 864.605 760.607 865.843C760.867 866.103 761.069 866.416 761.199 866.761C761.329 867.105 761.384 867.474 761.36 867.841C761.36 869.346 760.556 869.943 759.985 870.151C759.712 870.257 759.421 870.31 759.128 870.306ZM751.083 864.156C754.093 866.751 758.09 869.554 759.517 868.983C759.517 868.983 760.037 868.801 760.088 867.763C760.099 867.566 760.068 867.37 759.996 867.186C759.925 867.002 759.815 866.836 759.673 866.699C758.272 865.142 753.938 864.415 751.083 864.208V864.156ZM756.741 858.965H756.507C754.212 859.568 752.178 860.909 750.72 862.78C754.69 862.599 758.739 861.846 759.154 860.782C759.284 860.445 758.843 859.952 758.557 859.692C758.062 859.241 757.411 858.999 756.741 859.017V858.965Z" fill="#577AFA"/>
<path d="M723.055 849.052C723.73 847.131 746.905 856.344 746.905 856.344C746.905 856.344 756.663 875.886 769.743 883.828C782.823 891.769 772.131 897.686 756.326 892.522L717.19 879.779C705.901 876.146 716.074 868.879 723.055 849.052Z" fill="#2E353A"/>
<path opacity="0.4" d="M734.007 814.899L764.241 824.709L758.817 838.489L731.048 829.043L734.007 814.899Z" fill="white"/>
<path d="M817.806 915.853L800.107 920.836L790.245 897.011L781.266 875.16L801.301 865.817L810.047 892.314L817.806 915.853Z" fill="#EEC1BB"/>
<path d="M792.243 908.326C792.243 906.302 817.209 908.508 817.209 908.508C817.209 908.508 832.132 924.469 846.924 928.335C861.717 932.202 853.179 940.922 836.544 940.533L795.409 939.495C783.601 939.209 791.231 929.322 792.243 908.326Z" fill="#2E353A"/>
<path d="M830.315 915.178C826.677 914.684 823.16 913.532 819.934 911.778L819.753 911.648C819.743 911.58 819.743 911.51 819.753 911.441C819.741 911.381 819.741 911.319 819.753 911.259C819.725 911.175 819.725 911.084 819.753 911C819.753 910.714 822.063 905.005 825.462 903.681C825.974 903.472 826.527 903.379 827.079 903.411C827.631 903.442 828.169 903.596 828.654 903.863C829.77 904.408 830.289 905.108 830.237 905.965C830.108 907.288 828.239 908.56 826.163 909.598C828.091 909.311 830.06 909.571 831.846 910.351C832.165 910.527 832.443 910.768 832.662 911.059C832.881 911.35 833.036 911.683 833.118 912.038C833.285 912.485 833.312 912.973 833.197 913.436C833.081 913.899 832.827 914.317 832.469 914.633C831.839 915.065 831.075 915.258 830.315 915.178ZM822.088 911.441C825.748 913.076 830.341 914.607 831.561 913.647C831.561 913.647 832.002 913.309 831.769 912.323C831.726 912.13 831.641 911.948 831.52 911.791C831.398 911.634 831.244 911.505 831.068 911.415C829.251 910.325 824.891 910.922 822.088 911.441ZM826.76 904.667C826.431 904.666 826.105 904.728 825.8 904.849C823.798 906.06 822.234 907.879 821.336 910.039C825.099 908.742 828.758 906.847 828.862 905.731C828.862 905.368 828.317 905.005 827.98 904.849C827.592 904.697 827.175 904.635 826.76 904.667Z" fill="#577AFA"/>
<path opacity="0.2" d="M810.202 892.859L790.401 897.504L781.318 875.393L801.327 865.947L810.202 892.859Z" fill="black"/>
<path d="M654.593 660.665C654.593 660.665 652.543 632.429 651.583 626.667C650.789 620.956 649.619 615.303 648.079 609.747C641.825 590.931 557.921 613.068 557.921 613.068L555.534 626.044C555.534 626.044 517.669 697.439 542.973 723.158C550.758 730.943 565.733 734.473 581.122 734.369C581.122 734.369 628.174 736.627 715.685 732.552C715.685 732.552 709.196 783.522 781.318 883.386L805.453 875.601C805.453 875.601 757.805 694.299 753.756 691.081C718.877 662.897 654.593 660.665 654.593 660.665Z" fill="#263238"/>
<path d="M776.958 882.167L806.932 871.552L811.007 885.8L783.212 895.195L776.958 882.167Z" fill="#263238"/>
<path d="M682.803 485.669C682.803 485.669 679.793 493.04 675.588 505.912C674.576 508.922 673.538 512.244 672.448 515.826C671.021 520.523 669.49 525.688 667.958 531.397C666.842 535.446 665.726 539.676 664.636 544.14C663.547 548.603 662.379 553.43 661.263 558.335C661.263 558.906 661.003 559.503 660.899 560.074C656.154 580.155 652.687 600.516 650.518 621.036L558.336 612.991C558.323 592.759 559.371 572.54 561.477 552.418C563.138 534.985 566.361 517.735 571.105 500.877C574.764 488.732 579.487 478.299 585.56 471.473C585.56 471.577 635.544 455.175 682.803 485.669Z" fill="#407BFF"/>
<path d="M635.829 458.341C608.087 449.466 597.316 471.317 597.316 471.317L612.083 469.864L642.058 507.495L659.628 484.735L670.683 490.678C670.683 490.678 659.861 466.023 635.829 458.341Z" fill="#407BFF"/>
<path opacity="0.6" d="M635.829 458.341C608.087 449.466 597.316 471.317 597.316 471.317L612.083 469.864L642.058 507.495L659.628 484.735L670.683 490.678C670.683 490.678 659.861 466.023 635.829 458.341Z" fill="white"/>
<path d="M641.28 505.445L615.846 467.373C627.836 461.949 635.778 439.007 637.516 426.083L655.475 453.229C649.61 461.949 645.691 471.914 659.135 479.441C659.187 479.441 641.254 505.367 641.28 505.445Z" fill="#EEC1BB"/>
<path opacity="0.2" d="M644.835 437.165L655.475 453.229C654.077 455.222 652.869 457.342 651.868 459.561C646.547 457.174 640.89 449.18 642.214 443.653C642.665 441.342 643.555 439.14 644.835 437.165Z" fill="black"/>
<path d="M556.909 615.923L585.742 617.818L584.704 625.967L554.08 623.761L556.909 615.923Z" fill="black"/>
<path d="M652.828 630.82L588.181 626.2L589.219 618.051L651.79 622.178L652.828 630.82Z" fill="black"/>
<path d="M629.134 630.794H628.874L621.089 630.275C620.159 630.214 619.29 629.792 618.669 629.098C618.048 628.404 617.724 627.494 617.767 626.563L617.974 621.373C617.972 620.882 618.074 620.396 618.276 619.948C618.477 619.501 618.773 619.101 619.142 618.778C619.485 618.449 619.894 618.197 620.341 618.036C620.788 617.875 621.264 617.809 621.737 617.844L629.834 618.311C630.306 618.337 630.768 618.457 631.193 618.664C631.618 618.871 631.997 619.16 632.309 619.515C632.621 619.871 632.859 620.285 633.009 620.733C633.158 621.181 633.218 621.654 633.182 622.126L632.793 627.524C632.708 628.43 632.284 629.27 631.605 629.877C630.926 630.483 630.044 630.811 629.134 630.794ZM620.466 621.347L620.232 626.538C620.225 626.791 620.315 627.037 620.484 627.225C620.653 627.414 620.888 627.53 621.14 627.55L628.926 628.095C629.184 628.109 629.436 628.022 629.63 627.852C629.824 627.682 629.944 627.443 629.964 627.186L630.354 621.814C630.366 621.684 630.352 621.552 630.312 621.427C630.272 621.302 630.206 621.186 630.12 621.088C630.034 620.993 629.93 620.917 629.814 620.864C629.698 620.81 629.573 620.781 629.445 620.776L621.348 620.309C621.09 620.3 620.838 620.393 620.647 620.569C620.55 620.652 620.471 620.755 620.417 620.872C620.363 620.988 620.336 621.115 620.336 621.243L620.466 621.347Z" fill="white"/>
<path opacity="0.5" d="M776.958 882.167L806.932 871.552L811.007 885.8L783.212 895.195L776.958 882.167Z" fill="white"/>
<path d="M700.528 419.102C700.394 419.106 700.262 419.071 700.147 419.002C700.032 418.933 699.939 418.833 699.879 418.713C699.16 417.313 698.133 416.095 696.874 415.151C695.615 414.207 694.158 413.561 692.613 413.263C692.516 413.26 692.421 413.237 692.333 413.195C692.246 413.154 692.168 413.094 692.105 413.021C692.041 412.948 691.994 412.863 691.965 412.77C691.936 412.678 691.927 412.58 691.938 412.484C691.964 412.298 692.058 412.129 692.202 412.009C692.346 411.889 692.529 411.827 692.717 411.835C694.511 412.142 696.209 412.866 697.674 413.947C699.139 415.029 700.33 416.439 701.151 418.064C701.195 418.147 701.223 418.238 701.231 418.332C701.239 418.426 701.229 418.521 701.2 418.61C701.17 418.7 701.124 418.783 701.062 418.854C701 418.925 700.924 418.983 700.84 419.024L700.528 419.102Z" fill="#263238"/>
<path d="M691.86 430.339C692.142 433.941 692.857 437.496 693.988 440.928C693.07 441.49 692.015 441.787 690.939 441.787C689.862 441.787 688.807 441.49 687.889 440.928L691.86 430.339Z" fill="#D4827D"/>
<path d="M697.596 426.472C696.921 428.081 695.519 429.067 694.429 428.6C693.339 428.133 693.002 426.472 693.677 424.863C694.352 423.254 695.753 422.268 696.843 422.735C697.933 423.202 698.244 424.837 697.596 426.472Z" fill="#263238"/>
<path d="M696.35 422.631H700.425C700.425 422.631 697.466 424.941 696.35 422.631Z" fill="#263238"/>
<path d="M637.854 440.435C637.952 440.701 638.083 440.954 638.243 441.187C638.502 441.706 638.788 442.173 639.073 442.693C640.74 445.888 643.004 448.733 645.743 451.075C654.593 458.42 662.223 460.755 669.1 458.861C669.438 458.861 669.749 458.653 670.086 458.549C680.26 454.708 688.253 442.978 695.026 427.147C697.96 421.018 699.879 414.453 700.71 407.709C700.71 407.709 700.71 407.475 700.71 407.424C700.71 407.372 700.71 406.879 700.71 406.645C701.042 402.766 700.399 398.866 698.84 395.299C697.281 391.732 694.855 388.611 691.782 386.221C689.159 384.061 686.304 382.198 683.27 380.667C653.788 365.355 623.606 411.939 637.854 440.435Z" fill="#EEC1BB"/>
<path d="M700.71 407.449C700.71 407.449 691.834 429.145 667.543 428.211C667.543 428.211 648.131 445.625 635.492 439.63C618.234 431.455 615.431 399.638 633.779 377.916C657.63 349.731 707.458 371.583 700.71 407.449Z" fill="#263238"/>
<path d="M680.649 427.277C682.284 424.007 682.414 417.233 676.99 415.417C671.566 413.6 661.937 424.993 673.356 434.362C674.991 435.711 677.353 434.076 680.649 427.277Z" fill="#EEC1BB"/>
<path d="M675.614 367.042C675.614 367.042 698.063 372.025 705.018 385.572C713.167 401.403 713.167 413.522 690.381 420.867C690.381 420.867 662.431 393.202 650.155 389.906C642.998 387.939 635.688 386.576 628.303 385.831C637.101 362.578 666.765 356.921 675.614 367.042Z" fill="#263238"/>
<path d="M667.595 428.211C653.477 456.421 622.438 504.355 589.349 470.539C589.349 470.539 601.235 432.286 625.241 416.507C649.247 400.728 667.595 428.211 667.595 428.211Z" fill="#263238"/>
<path d="M662.482 475.262C674.55 484.19 659.108 513.568 674.342 520.108C672.911 518.128 672.011 515.815 671.729 513.388C671.448 510.962 671.793 508.504 672.733 506.249C675.925 498.256 688.876 477.131 683.711 448.531L662.482 475.262Z" fill="#263238"/>
<path opacity="0.2" d="M599.964 537.21C599.964 537.21 580.24 550.576 561.58 552.236C563.219 534.867 566.406 517.679 571.105 500.877C573.492 499.533 576.155 498.752 578.89 498.593C592.749 498.853 597.81 511.855 597.81 511.855C599.31 520.222 600.031 528.71 599.964 537.21Z" fill="black"/>
<path d="M671.955 629.782L667.803 624.799C667.022 623.889 666.036 623.179 664.925 622.728C663.815 622.276 662.613 622.097 661.419 622.204L650.052 623.034C647.805 623.198 645.631 623.898 643.711 625.077C641.792 626.256 640.184 627.878 639.022 629.808L637.569 632.221C643.901 640.967 657.163 645.768 657.163 645.768L660.796 647.559C661.526 647.953 662.327 648.199 663.153 648.282C663.978 648.364 664.812 648.283 665.606 648.042C666.4 647.8 667.138 647.404 667.778 646.876C668.418 646.347 668.947 645.698 669.334 644.964L672.967 637.801C673.619 636.516 673.87 635.065 673.69 633.636C673.509 632.207 672.905 630.865 671.955 629.782Z" fill="#EEC1BB"/>
<path d="M592.048 510.479C591.732 526.824 592.904 543.164 595.552 559.295C596.524 564.456 597.78 569.559 599.315 574.581L598.173 572.323C604.168 581.485 612.94 589.971 620.595 598.276L633.416 611.511L646.392 624.825C647.535 625.976 648.211 627.51 648.29 629.13C648.37 630.75 647.846 632.343 646.821 633.6C645.796 634.857 644.341 635.69 642.738 635.939C641.135 636.188 639.497 635.834 638.139 634.946C632.767 631.546 627.758 627.965 622.568 624.332C606.737 612.42 590.776 601.286 578.449 585.403C567.705 561.605 565.084 535.16 565.992 509.312C567.523 492.053 592.541 493.325 592.334 510.635L592.048 510.479Z" fill="#EBC0BB"/>
<path d="M584.678 471.733C567.679 477.572 560.646 495.738 559.893 526.466C568.587 534.537 597.187 531.864 597.187 531.864C597.187 531.864 602.351 485.306 584.678 471.733Z" fill="#407BFF"/>
<path d="M767.849 653.658V661.781C767.849 663.883 765.253 664.739 763.281 664.739H599.497C597.395 664.739 594.851 663.883 594.851 661.781V653.58L767.849 653.658Z" fill="#263238"/>
<path opacity="0.4" d="M767.849 653.658V661.781C767.849 663.883 765.253 664.739 763.281 664.739H599.497C597.395 664.739 594.851 663.883 594.851 661.781V653.58L767.849 653.658Z" fill="white"/>
<path opacity="0.2" d="M767.849 653.658V661.781C767.849 663.883 765.253 664.739 763.281 664.739H655.268C653.166 664.739 650.675 663.883 650.675 661.781V653.58L767.849 653.658Z" fill="black"/>
<path d="M795.254 568.586L775.738 657.005C775.392 658.429 774.582 659.697 773.435 660.608C772.288 661.52 770.87 662.024 769.406 662.04H663.002C662.34 662.021 661.692 661.849 661.108 661.539C660.523 661.228 660.018 660.787 659.632 660.25C659.245 659.713 658.988 659.094 658.879 658.441C658.77 657.789 658.813 657.12 659.005 656.486L678.495 568.716C678.89 567.38 679.732 566.22 680.88 565.431C682.028 564.642 683.413 564.271 684.801 564.382H791.335C794.138 564.382 795.877 565.757 795.254 568.586Z" fill="#263238"/>
<path opacity="0.4" d="M795.254 568.587L775.738 657.006C775.392 658.429 774.582 659.697 773.435 660.609C772.288 661.52 770.871 662.024 769.406 662.04H666.531C665.868 662.025 665.216 661.856 664.629 661.547C664.041 661.239 663.533 660.798 663.143 660.261C662.754 659.723 662.494 659.103 662.384 658.448C662.274 657.793 662.316 657.122 662.509 656.487L681.999 568.716C682.394 567.375 683.24 566.212 684.394 565.422C685.547 564.633 686.938 564.266 688.331 564.382H791.231C794.138 564.382 795.877 565.758 795.254 568.587Z" fill="white"/>
<path opacity="0.2" d="M742.727 613.536C742.727 621.088 734.604 627.239 728.661 627.239C722.718 627.239 719.188 621.088 720.875 613.536C722.562 605.984 728.505 600.041 734.318 599.833C732.631 607.385 736.265 613.536 742.104 613.536H742.727Z" fill="black"/>
</svg>
