<svg width="823" height="893" viewBox="0 0 823 893" fill="none" xmlns="http://www.w3.org/2000/svg">
<path d="M120.442 828.634C280.997 913.266 541.31 913.266 701.865 828.634C862.421 744.002 862.44 606.822 701.865 522.21C541.29 437.598 280.997 437.578 120.422 522.21C-40.1538 606.842 -40.1339 743.963 120.442 828.634Z" fill="#F5F5F5"/>
<path d="M51.5919 722.72L59.0447 727.004C60.3819 727.682 61.8599 728.035 63.359 728.035C64.8581 728.035 66.3361 727.682 67.6733 727.004L412.06 528.188C412.583 528.017 413.038 527.685 413.361 527.239C413.684 526.793 413.858 526.257 413.858 525.707C413.858 525.157 413.684 524.62 413.361 524.175C413.038 523.729 412.583 523.397 412.06 523.226L404.667 519.001C403.329 518.324 401.851 517.971 400.352 517.971C398.853 517.971 397.375 518.324 396.038 519.001L51.5919 717.738C51.0713 717.914 50.6192 718.25 50.299 718.696C49.9788 719.143 49.8066 719.679 49.8066 720.229C49.8066 720.778 49.9788 721.314 50.299 721.761C50.6192 722.208 51.0713 722.543 51.5919 722.72Z" fill="#E0E0E0"/>
<path d="M548.762 794.339C606.806 794.339 653.859 768.546 653.859 736.729C653.859 704.912 606.806 679.119 548.762 679.119C490.718 679.119 443.665 704.912 443.665 736.729C443.665 768.546 490.718 794.339 548.762 794.339Z" fill="#E0E0E0"/>
<path d="M60.8785 717.698L59.364 716.821C58.0903 715.992 57.0297 714.874 56.2681 713.558C55.5064 712.243 55.0652 710.766 54.98 709.249V198.588C55.0668 197.068 55.5086 195.589 56.2699 194.271C57.0313 192.952 58.0909 191.83 59.364 190.995L388.406 1.04668C389.765 0.358565 391.267 0 392.79 0C394.313 0 395.815 0.358565 397.174 1.04668L398.669 1.92349C399.946 2.75386 401.009 3.8745 401.771 5.19397C402.533 6.51343 402.972 7.99434 403.053 9.51585V520.157C402.972 521.679 402.533 523.159 401.771 524.479C401.009 525.798 399.946 526.919 398.669 527.749L69.6466 717.698C68.2876 718.386 66.7858 718.745 65.2626 718.745C63.7393 718.745 62.2375 718.386 60.8785 717.698Z" fill="#2603FF"/>
<path opacity="0.4" d="M403.013 8.81818C402.714 6.54645 400.881 5.70949 398.689 6.96492L69.627 196.933C68.3388 197.745 67.2764 198.87 66.5383 200.201L56.2756 194.223C57.0235 192.892 58.0921 191.769 59.3843 190.955L388.407 1.04647C389.766 0.358351 391.267 -0.000213623 392.791 -0.000213623C394.314 -0.000213623 395.816 0.358351 397.175 1.04647L398.689 1.92327C399.855 2.70347 400.842 3.72092 401.587 4.90907C402.333 6.09722 402.818 7.4293 403.013 8.81818Z" fill="white"/>
<path opacity="0.1" d="M68.9091 718.036C67.6317 718.545 66.2611 718.778 64.8873 718.72C63.5135 718.662 62.1676 718.313 60.9381 717.697L59.4037 716.821C58.1299 715.988 57.0707 714.866 56.3124 713.547C55.554 712.228 55.1179 710.748 55.0396 709.228V198.587C55.0858 197.066 55.5251 195.583 56.3149 194.283L66.5776 200.261C65.7633 201.538 65.2773 202.996 65.1627 204.506V715.167C65.1627 717.678 66.8366 718.853 68.9091 718.036Z" fill="black"/>
<path d="M104.062 533.01L102.547 532.133C101.273 531.303 100.213 530.186 99.4512 528.87C98.6896 527.555 98.2483 526.078 98.1631 524.561V432.775C98.2484 431.254 98.6895 429.775 99.451 428.456C100.212 427.138 101.273 426.016 102.547 425.182L401.28 252.551C402.635 251.863 404.134 251.504 405.654 251.504C407.174 251.504 408.672 251.863 410.028 252.551L411.542 253.428C412.82 254.258 413.883 255.379 414.645 256.698C415.407 258.017 415.846 259.498 415.926 261.02V352.806C415.846 354.325 415.407 355.803 414.645 357.119C413.882 358.435 412.819 359.552 411.542 360.378L112.83 533.01C111.471 533.698 109.969 534.056 108.446 534.056C106.922 534.056 105.421 533.698 104.062 533.01Z" fill="#EBEBEB"/>
<path d="M415.887 260.323C415.588 258.051 413.754 257.214 411.542 258.47L112.81 431.121C111.522 431.933 110.459 433.057 109.721 434.389L99.4585 428.411C100.197 427.068 101.267 425.936 102.567 425.123L401.28 252.491C402.635 251.803 404.134 251.445 405.654 251.445C407.174 251.445 408.673 251.803 410.028 252.491L411.542 253.368C412.725 254.146 413.725 255.17 414.475 256.37C415.225 257.571 415.706 258.919 415.887 260.323Z" fill="#FAFAFA"/>
<path d="M112.072 533.369C110.794 533.877 109.423 534.108 108.048 534.046C106.674 533.984 105.329 533.631 104.101 533.01L102.547 532.153C101.282 531.312 100.231 530.188 99.4772 528.87C98.7231 527.552 98.2868 526.077 98.2029 524.561V432.775C98.2491 431.254 98.6885 429.771 99.4782 428.47L109.741 434.449C108.959 435.754 108.514 437.233 108.446 438.753V530.559C108.426 532.99 110.02 534.166 112.072 533.369Z" fill="#E0E0E0"/>
<path d="M155.056 424.964C172.094 415.119 185.903 422.772 185.903 442.061C185.903 461.351 172.074 484.786 155.016 494.411C137.958 504.036 124.148 496.404 124.148 477.313C124.148 458.223 138.018 434.808 155.056 424.964Z" fill="#2603FF"/>
<path d="M104.062 657.397L102.547 656.521C101.273 655.691 100.213 654.573 99.4512 653.258C98.6896 651.942 98.2483 650.466 98.1631 648.948V557.162C98.2484 555.642 98.6895 554.163 99.451 552.844C100.212 551.525 101.273 550.404 102.547 549.57L401.28 376.938C402.635 376.25 404.134 375.892 405.654 375.892C407.174 375.892 408.672 376.25 410.028 376.938L411.542 377.815C412.821 378.644 413.885 379.765 414.647 381.084C415.409 382.404 415.847 383.886 415.926 385.407V477.193C415.846 478.712 415.407 480.19 414.645 481.507C413.882 482.823 412.819 483.94 411.542 484.766L112.83 657.397C111.471 658.085 109.969 658.444 108.446 658.444C106.922 658.444 105.421 658.085 104.062 657.397Z" fill="#EBEBEB"/>
<path d="M415.887 384.69C415.588 382.418 413.754 381.601 411.542 382.857L112.81 555.508C111.527 556.318 110.465 557.434 109.721 558.757L99.4585 552.778C100.214 551.49 101.283 550.413 102.567 549.65L401.28 377.018C402.635 376.33 404.134 375.972 405.654 375.972C407.174 375.972 408.673 376.33 410.028 377.018L411.542 377.895C412.708 378.654 413.698 379.652 414.447 380.824C415.196 381.996 415.687 383.314 415.887 384.69Z" fill="#FAFAFA"/>
<path d="M112.072 657.736C110.796 658.248 109.425 658.482 108.05 658.424C106.676 658.365 105.33 658.016 104.101 657.398L102.547 656.521C101.279 655.684 100.226 654.56 99.471 653.242C98.7165 651.923 98.2821 650.446 98.2029 648.928V557.162C98.2464 555.641 98.6859 554.157 99.4782 552.858L109.741 558.836C108.962 560.15 108.517 561.635 108.446 563.161V654.966C108.426 657.378 110.02 658.553 112.072 657.736Z" fill="#E0E0E0"/>
<path d="M155.056 549.35C172.094 539.506 185.903 547.158 185.903 566.448C185.903 585.738 172.074 609.173 155.016 618.798C137.958 628.423 124.148 620.79 124.148 601.7C124.148 582.609 138.018 559.175 155.056 549.35Z" fill="#2603FF"/>
<path d="M104.062 325.007L102.547 324.13C101.273 323.296 100.212 322.175 99.451 320.856C98.6895 319.537 98.2484 318.058 98.1631 316.538V224.832C98.2483 223.314 98.6896 221.838 99.4512 220.522C100.213 219.206 101.273 218.089 102.547 217.259L401.28 44.5478C402.635 43.8599 404.134 43.5014 405.654 43.5014C407.174 43.5014 408.672 43.8599 410.028 44.5478L411.542 45.4246C412.819 46.2507 413.882 47.3676 414.645 48.6839C415.407 50.0001 415.846 51.4783 415.926 52.9971V144.783C415.846 146.304 415.407 147.785 414.645 149.105C413.883 150.424 412.82 151.545 411.542 152.375L112.83 325.007C111.471 325.695 109.969 326.054 108.446 326.054C106.922 326.054 105.421 325.695 104.062 325.007Z" fill="#EBEBEB"/>
<path d="M415.887 52.2999C415.588 50.0282 413.754 49.2112 411.542 50.4666L112.81 223.118C111.518 223.917 110.454 225.036 109.721 226.366L99.4585 220.388C100.193 219.047 101.264 217.92 102.567 217.12L401.28 44.4883C402.635 43.8004 404.134 43.4419 405.654 43.4419C407.174 43.4419 408.673 43.8004 410.028 44.4883L411.542 45.3652C412.724 46.139 413.724 47.1595 414.474 48.3566C415.224 49.5537 415.706 50.8989 415.887 52.2999Z" fill="#FAFAFA"/>
<path d="M112.072 325.346C110.795 325.857 109.424 326.092 108.05 326.033C106.676 325.975 105.33 325.625 104.101 325.007L102.547 324.13C101.27 323.291 100.209 322.163 99.4508 320.837C98.6925 319.51 98.258 318.024 98.1826 316.498V224.832C98.2254 223.304 98.6649 221.814 99.458 220.507L109.721 226.486C108.938 227.798 108.493 229.284 108.425 230.81V322.476C108.425 324.987 110.02 326.143 112.072 325.346Z" fill="#E0E0E0"/>
<path d="M155.056 216.961C172.094 207.116 185.903 214.769 185.903 234.038C185.903 253.308 172.074 276.763 155.016 286.408C137.958 296.053 124.148 288.401 124.148 269.31C124.148 250.219 138.018 226.825 155.056 216.961Z" fill="#2603FF"/>
<path d="M125.065 441.543L123.55 440.666C122.273 439.836 121.21 438.715 120.448 437.396C119.686 436.076 119.247 434.595 119.166 433.074V341.288C119.25 339.767 119.69 338.287 120.452 336.968C121.214 335.65 122.275 334.528 123.55 333.696L422.263 161.064C423.622 160.376 425.124 160.017 426.647 160.017C428.17 160.017 429.672 160.376 431.031 161.064L432.545 161.921C433.818 162.756 434.878 163.878 435.64 165.196C436.401 166.515 436.843 167.993 436.929 169.513V261.299C436.844 262.82 436.403 264.299 435.642 265.617C434.88 266.936 433.82 268.058 432.545 268.892L133.813 441.543C132.457 442.231 130.959 442.589 129.439 442.589C127.919 442.589 126.42 442.231 125.065 441.543Z" fill="#37474F"/>
<path d="M436.89 168.836C436.591 166.564 434.758 165.727 432.546 167.002L133.813 339.654C132.52 340.458 131.451 341.575 130.704 342.902L120.462 336.924C121.194 335.582 122.257 334.45 123.55 333.636L422.263 161.064C423.622 160.376 425.124 160.017 426.647 160.017C428.17 160.017 429.672 160.376 431.031 161.064L432.546 161.921C433.723 162.695 434.721 163.712 435.47 164.906C436.22 166.099 436.704 167.439 436.89 168.836Z" fill="#455A64"/>
<path d="M133.076 441.882C131.798 442.391 130.428 442.624 129.054 442.565C127.68 442.507 126.334 442.159 125.105 441.543L123.57 440.666C122.299 439.831 121.241 438.709 120.483 437.39C119.725 436.071 119.288 434.593 119.206 433.074V341.288C119.259 339.765 119.705 338.282 120.501 336.983L130.744 342.962C129.968 344.268 129.53 345.748 129.469 347.266V439.072C129.429 441.503 130.923 442.679 133.076 441.882Z" fill="#263238"/>
<path d="M176.059 333.477C193.097 323.652 206.906 331.304 206.906 350.574C206.906 369.844 193.077 393.299 176.019 402.944C158.961 412.589 145.131 404.936 145.151 385.846C145.171 366.755 159.021 343.321 176.059 333.477Z" fill="#F5F5F5"/>
<path d="M176.756 388.934C176.217 389.343 175.567 389.58 174.891 389.612C174.215 389.644 173.545 389.47 172.97 389.114L159.419 378.871C157.606 377.496 157.825 373.73 159.918 370.422C162.01 367.114 165.178 365.56 166.972 366.935L176.417 374.088L202.662 317.714C204.296 314.187 207.425 311.735 209.656 312.433C211.888 313.13 212.367 316.418 210.713 319.886L180.742 384.251C179.913 386.103 178.58 387.684 176.896 388.815L176.756 388.934Z" fill="#2603FF"/>
<path d="M436.849 305.139L428.181 300.137C424.415 297.985 419.812 300.137 417.38 301.612L411.9 298.563C405.344 294.578 396.217 302.887 394.185 304.86L391.833 303.525C384.879 299.34 372.225 310.56 372.225 310.56V268.672L377.725 266.022L368.977 260.96C367.723 260.404 366.345 260.187 364.982 260.33C363.618 260.473 362.315 260.972 361.205 261.777C357.968 263.885 355.274 266.726 353.341 270.071C351.409 273.416 350.294 277.17 350.085 281.027V377.815C342.114 371.836 333.585 368.25 326.172 369.585C320.267 370.965 315.1 374.523 311.705 379.548C308.038 386.045 314.096 390.11 321.908 399.037C329.719 407.965 336.495 418.566 343.549 425.142C347.031 428.67 351.166 431.486 355.725 433.432V446.026L364.294 450.988L421.047 408.324V395.71C421.047 395.71 429.138 363.387 431.728 349.876C434.219 336.884 436.511 316.139 432.226 305.378L436.869 305.06L436.849 305.139Z" fill="#2603FF"/>
<path opacity="0.4" d="M436.849 305.139L428.181 300.137C424.415 297.985 419.812 300.137 417.38 301.612L411.9 298.563C405.344 294.578 396.217 302.887 394.185 304.86L391.833 303.525C384.879 299.34 372.225 310.56 372.225 310.56V268.672L377.725 266.022L368.977 260.96C367.723 260.404 366.345 260.187 364.982 260.33C363.618 260.473 362.315 260.972 361.205 261.777C357.968 263.885 355.274 266.726 353.341 270.071C351.409 273.416 350.294 277.17 350.085 281.027V377.815C342.114 371.836 333.585 368.25 326.172 369.585C320.267 370.965 315.1 374.523 311.705 379.548C308.038 386.045 314.096 390.11 321.908 399.037C329.719 407.965 336.495 418.566 343.549 425.142C347.031 428.67 351.166 431.486 355.725 433.432V446.026L364.294 450.988L421.047 408.324V395.71C421.047 395.71 429.138 363.387 431.728 349.876C434.219 336.884 436.511 316.139 432.226 305.378L436.869 305.06L436.849 305.139Z" fill="white"/>
<path d="M372.863 416.375L329.939 391.605L311.147 380.744C308.756 386.603 314.555 390.708 321.888 399.097C329.64 407.965 336.475 418.626 343.529 425.202C347.011 428.73 351.147 431.546 355.705 433.492V446.027L364.274 450.989L376.808 441.563C375.194 430.922 372.863 416.375 372.863 416.375Z" fill="#2603FF"/>
<path d="M358.674 286.029L350.105 281.067V382.598L358.674 382.817V286.029Z" fill="#2603FF"/>
<path d="M426.009 311.656L432.665 306.754C432.506 306.315 432.386 305.877 432.207 305.459L434.638 305.299L429.297 305.06L420.39 300.138C419.349 300.556 418.342 301.055 417.381 301.632L420.17 303.247L426.009 311.656Z" fill="#2603FF"/>
<path d="M402.435 310.201L408.672 305.458L400.064 300.237C397.986 301.572 396.044 303.107 394.265 304.821L400.243 308.288L402.435 310.201Z" fill="#2603FF"/>
<path d="M389.403 309.743L380.874 304.761L380.914 304.681V315.462L390.838 311.835L389.403 309.743Z" fill="#2603FF"/>
<g opacity="0.15">
<path d="M372.862 416.374L329.939 391.604L311.147 380.744C308.756 386.603 314.555 390.708 321.888 399.097C329.64 407.965 336.475 418.626 343.529 425.202C347.011 428.73 351.146 431.546 355.705 433.492V446.026L364.274 450.988L376.808 441.563C375.194 430.921 372.862 416.374 372.862 416.374Z" fill="black"/>
<path d="M358.674 286.029L350.105 281.067V382.598L358.674 382.817V286.029Z" fill="black"/>
<path d="M426.009 311.656L432.665 306.754C432.505 306.315 432.386 305.877 432.206 305.458L434.638 305.299L429.297 305.06L420.389 300.138C419.348 300.555 418.342 301.055 417.38 301.632L420.17 303.246L426.009 311.656Z" fill="black"/>
<path d="M402.435 310.201L408.672 305.459L400.064 300.238C397.986 301.573 396.044 303.108 394.265 304.821L400.243 308.288L402.435 310.201Z" fill="black"/>
<path d="M389.403 309.743L380.874 304.761L380.913 304.681V315.462L390.837 311.835L389.403 309.743Z" fill="black"/>
</g>
<path d="M364.274 451.068V438.454C359.717 436.48 355.588 433.637 352.118 430.084C345.064 423.508 338.169 412.827 330.477 403.98C322.785 395.132 316.528 390.967 320.274 384.49C323.669 379.465 328.836 375.907 334.741 374.527C342.194 373.192 350.683 376.838 358.654 382.757V286.029C358.861 282.173 359.973 278.421 361.902 275.076C363.83 271.732 366.521 268.889 369.754 266.779C375.892 263.232 380.873 266.101 380.873 273.196V315.462C380.873 315.462 396.198 301.871 402.375 310.201C402.375 310.201 417.44 294.438 424.295 307.75C424.295 307.75 435.335 298.842 440.237 309.185C445.14 319.527 442.828 341.407 440.237 354.918C437.647 368.429 429.536 400.751 429.536 400.751V413.365L364.274 451.068Z" fill="#2603FF"/>
<path d="M380.913 333.616C380.913 333.616 382.308 314.326 389.403 309.703H389.143C386.208 311.286 383.449 313.176 380.913 315.342V314.984C380.887 315.04 380.873 315.101 380.873 315.163C380.873 315.225 380.887 315.286 380.913 315.342V333.616Z" fill="#455A64"/>
<path d="M402.435 310.201V327.857C402.435 327.857 404.428 309.703 408.413 305.319C406.248 306.722 404.243 308.36 402.435 310.201Z" fill="#455A64"/>
<path d="M424.276 307.75V325.466C424.276 325.466 425.352 307.631 429.198 305C427.432 305.672 425.773 306.598 424.276 307.75Z" fill="#455A64"/>
<path d="M361.166 249.622C359.771 250.419 358.655 249.961 358.655 248.566V234.617C358.729 233.801 358.995 233.015 359.431 232.322C359.868 231.629 360.462 231.05 361.166 230.631C362.541 229.834 363.657 230.312 363.657 231.687V245.636C363.586 246.45 363.324 247.236 362.891 247.929C362.458 248.622 361.867 249.202 361.166 249.622Z" fill="#EBEBEB"/>
<path d="M340.162 271.721C339.185 273.395 337.611 274.312 336.635 273.714L328.524 269.031C327.548 268.473 327.548 266.64 328.524 265.046C329.501 263.352 331.075 262.435 332.051 263.053L340.162 267.736C341.218 268.194 341.218 270.028 340.162 271.721Z" fill="#EBEBEB"/>
<path d="M331.573 300.676V301.074C331.488 301.94 331.2 302.774 330.732 303.508C330.265 304.242 329.631 304.856 328.883 305.299L317.803 311.696C316.328 312.553 315.113 312.054 315.113 310.56V310.161C315.203 309.297 315.492 308.465 315.959 307.731C316.426 306.998 317.057 306.384 317.803 305.937L328.883 299.54C330.377 298.683 331.573 299.181 331.573 300.676Z" fill="#EBEBEB"/>
<path d="M390.737 266.919V266.52C390.819 265.651 391.106 264.813 391.573 264.075C392.041 263.338 392.676 262.721 393.427 262.276L404.507 255.879C405.982 255.022 407.197 255.54 407.197 257.015V257.413C407.108 258.278 406.818 259.11 406.351 259.843C405.884 260.576 405.253 261.191 404.507 261.638L393.427 268.035C391.973 268.891 390.737 268.393 390.737 266.919Z" fill="#EBEBEB"/>
<path d="M382.009 247.549C381.033 246.991 381.033 245.178 382.009 243.564L390.12 229.614C391.096 227.921 392.67 227.004 393.647 227.622C394.623 228.2 394.623 230.013 393.647 231.707L385.536 245.656C384.64 247.21 383.045 248.127 382.009 247.549Z" fill="#EBEBEB"/>
<path d="M596.25 482.573C597.784 425.641 593.221 412.01 578.076 401.588L572.197 434.568C572.197 434.568 579.092 473.427 578.355 486.379C577.717 497.758 576.601 511.986 573.911 521.173C573.438 522.829 572.365 524.25 570.902 525.158C567.036 527.569 565.482 530.04 562.572 533.129C560.301 535.521 558.368 536.098 558.587 536.856C559.027 537.691 559.764 538.332 560.654 538.649C561.544 538.966 562.52 538.938 563.389 538.569C565.317 537.792 567.149 536.796 568.85 535.6C567.514 539.089 565.623 542.34 563.25 545.225C557.83 551.861 557.59 555.946 568.531 556.046C575.366 556.046 580.826 551.881 585.987 536.796C587.989 531.264 589.593 525.597 590.79 519.838C593.5 504.792 596.011 491.74 596.25 482.573Z" fill="#B16668"/>
<path d="M565.342 397.264C572.576 396.208 582.4 397.723 588.757 409.081C595.114 420.44 596.728 439.989 597.385 459.418C597.385 459.418 584.771 469.96 569.626 464.778L565.342 397.264Z" fill="#2603FF"/>
<path opacity="0.1" d="M565.342 397.264C572.576 396.208 582.4 397.723 588.757 409.081C595.114 420.44 596.728 439.989 597.385 459.418C597.385 459.418 584.771 469.96 569.626 464.778L565.342 397.264Z" fill="black"/>
<path d="M586.605 710.345C587.741 710.783 588.04 712.975 588.219 717.319C588.339 720.607 589.056 726.366 585.19 727.502C581.324 728.638 575.685 728.06 573.234 724.971C570.145 720.986 568.073 717.678 563.669 713.015C559.843 708.91 555.698 705.044 554.183 699.345C552.788 694.143 553.944 691.892 557.491 690.377C562.353 688.384 570.025 695.1 573.832 696.156C577.1 697.113 585.449 709.906 586.605 710.345Z" fill="#263238"/>
<path d="M586.605 706.319V711.66C584.598 712.943 582.28 713.654 579.899 713.717C577.518 713.78 575.166 713.193 573.094 712.018C572.875 711.5 571.699 704.386 571.699 704.386L586.605 706.319Z" fill="#B16668"/>
<path d="M543.422 741.132C544.354 743.993 545.139 746.9 545.774 749.841C546.431 753.069 547.368 758.469 546.252 760.9C545.136 763.332 540.712 764.886 533.857 764.886C529.433 764.886 522.538 767.855 517.815 770.485C513.093 773.116 502.77 774.292 497.609 773.694C491.531 772.976 485.234 769.449 484.238 766.918C483.241 764.388 484.556 761.797 498.904 755.679C499.044 755.679 518.832 749.183 525.766 741.531L543.422 741.132Z" fill="#263238"/>
<path d="M543.422 735.353C543.422 735.353 543.422 739.339 543.422 741.59C543.422 743.842 540.772 747.23 533.837 746.971C528.975 746.811 525.587 745.496 525.866 741.491V735.712L543.422 735.353Z" fill="#B16668"/>
<path d="M590.072 635.437C588.89 625.954 586.781 616.61 583.775 607.539C583.775 607.539 585.668 583.626 586.585 560.789C587.581 536.199 586.585 505.311 587.004 499.173C587.004 499.173 507.692 483.231 506.277 511.528C504.863 539.825 509.406 612.282 510.263 624.756C511.12 637.231 513.352 648.291 515.942 668.597C518.533 688.903 525.607 735.712 525.607 735.712C528.353 737.109 531.4 737.807 534.48 737.744C537.559 737.682 540.576 736.861 543.263 735.354C543.263 735.354 548.842 678.541 548.265 664.133C547.814 653.465 545.979 642.902 542.804 632.707C542.804 632.707 544.299 609.273 545.634 588.867C546.969 568.461 548.364 558.697 548.663 549.849L550.377 548.992C550.377 548.992 552.111 584.144 553.047 596.639C553.984 609.133 555.976 621.09 559.583 644.265C562.732 664.392 572.058 706.937 572.058 706.937C581.105 711.839 586.525 706.299 586.525 706.299C586.525 706.299 592.523 652.894 590.072 635.437Z" fill="#37474F"/>
<path d="M548.743 549.869C548.743 549.869 567.993 540.383 577.618 531.834C577.618 531.834 568.67 544.429 556.933 550.008C556.933 550.008 552.768 593.689 552.788 592.813L550.377 549.789L548.743 549.869Z" fill="#263238"/>
<path d="M531.625 388.257L536.328 414.083L559.643 412.389L554.761 383.095L531.625 388.257Z" fill="#B16668"/>
<path d="M584.293 410.496C581.981 403.481 573.074 395.829 564.166 397.483C550.918 399.734 537.861 402.991 525.109 407.228C516.938 410.157 509.505 417.191 508.828 444.054C508.828 444.054 506.098 506.666 506.058 518.762C526.543 526.872 547.906 526.633 559.643 524.062C584.193 518.702 587.143 508.519 587.143 508.519C587.143 508.519 587.462 463.503 586.724 444.054C586.106 427.534 585.887 415.318 584.293 410.496Z" fill="#2603FF"/>
<path d="M513.631 356.831C513.631 356.831 507.652 366.277 508.43 367.173C509.207 368.07 513.67 368.788 513.67 368.788L513.631 356.831Z" fill="#B16668"/>
<path d="M530.051 330.746C517.715 333.636 514.268 339.156 513.531 358.884C512.773 379.489 515.025 385.906 517.795 388.616C519.648 390.449 529.752 390.609 534.893 389.034C541.25 387.042 555.617 381.661 562.154 371.1C569.846 358.745 571.579 342.205 562.891 335.609C550.655 326.462 535.072 329.551 530.051 330.746Z" fill="#B16668"/>
<path d="M531.884 389.672C536.069 386.304 535.69 384.132 535.69 384.132C532.701 386.942 521.582 389.333 517.756 388.616C519.33 390.23 526.564 390.469 531.884 389.672Z" fill="#9A4A4D"/>
<path d="M513.671 335.868C517.297 342.065 525.149 345.034 525.149 345.034C527.52 347.724 526.205 358.246 530.37 359.9C530.37 359.9 532.163 352.248 538.6 353.065C545.036 353.882 546.132 362.092 542.167 367.174C538.201 372.255 534.395 370.442 534.395 370.442C534.395 370.442 534.834 381.302 539.795 387.36C539.795 387.36 545.315 389.014 555.339 386.623C561.516 385.168 570.105 377.217 573.592 368.947C581.005 351.411 581.185 335.788 570.005 331.364C568.631 323.393 562.254 319.946 555.04 318.451C539.516 315.263 529.513 324.947 517.556 324.11C510.701 323.632 509.426 328.594 513.671 335.868Z" fill="#263238"/>
<path d="M570.264 334.034L577.578 329.491C576.975 328.521 576.012 327.83 574.9 327.571C573.788 327.311 572.619 327.503 571.649 328.106C570.679 328.708 569.989 329.672 569.729 330.783C569.469 331.895 569.662 333.065 570.264 334.034Z" fill="#263238"/>
<path d="M525.746 407.128C525.746 407.128 514.148 409.28 508.091 418.447C502.033 427.614 475.808 460.494 475.808 460.494C475.808 460.494 438.105 441.623 436.252 439.371C434.399 437.119 435.435 432.615 435.953 430.124C436.471 427.633 437.308 422.153 437.946 420.559C438.902 417.829 434.897 418.566 432.526 421.097C430.154 423.628 429.118 428.59 427.942 429.447C426.767 430.304 417.779 419.981 413.435 414.999C409.091 410.018 407.038 406.53 404.109 408.583C402.017 410.077 403.372 413.027 406.48 417.291C407.943 419.079 409.275 420.971 410.466 422.951C410.845 423.708 409.689 424.326 409.25 424.724C408.393 425.481 406.899 426.717 406.779 427.912C406.843 428.575 406.843 429.242 406.779 429.905C406.361 431.32 404.607 431.898 404.109 433.373C403.75 434.389 404.109 435.505 403.95 436.561C403.81 437.239 403.451 437.836 403.312 438.554C403.273 439.23 403.38 439.907 403.624 440.54C403.868 441.172 404.244 441.745 404.727 442.22C407.776 445.867 411.96 447.262 415.966 449.474C419.294 451.327 422.741 452.124 426.587 453.838C430.433 455.552 475.629 488.95 482.683 485.064C489.737 481.179 525.886 438.932 525.886 438.932C528.94 434.185 530.552 428.654 530.527 423.01C530.502 417.365 528.842 411.848 525.746 407.128Z" fill="#B16668"/>
<path d="M529.791 405.773C524.81 406.331 517.835 405.414 508.051 415.896C500.197 424.892 492.877 434.34 486.13 444.193C487.416 449.37 490.168 454.065 494.056 457.717C497.945 461.368 502.804 463.82 508.051 464.778C508.051 464.778 525.148 447.262 529.971 437.597C534.793 427.932 535.65 412.269 529.791 405.773Z" fill="#2603FF"/>
<path opacity="0.1" d="M529.791 405.773C524.81 406.331 517.835 405.414 508.051 415.896C500.197 424.892 492.877 434.34 486.13 444.193C487.416 449.37 490.168 454.065 494.056 457.717C497.945 461.368 502.804 463.82 508.051 464.778C508.051 464.778 525.148 447.262 529.971 437.597C534.793 427.932 535.65 412.269 529.791 405.773Z" fill="black"/>
</svg>
